<?xml version="1.0" standalone="no"?>
<!DOCTYPE svg PUBLIC "-//W3C//DTD SVG 1.1//EN" "http://www.w3.org/Graphics/SVG/1.1/DTD/svg11.dtd" >
<svg xmlns="http://www.w3.org/2000/svg" xmlns:xlink="http://www.w3.org/1999/xlink" version="1.1">
<metadata>
Created by FontForge 20170731 at Wed Mar 22 13:05:11 2023
 By Aleksey,,,
Le Jour Personal Use (c) Din Studio 2019. All Rights Reserved
</metadata>
<defs>
<font id="LeJour-Serif" horiz-adv-x="1486" >
  <font-face 
    font-family="Le Jour Serif Personal Use"
    font-weight="400"
    font-stretch="normal"
    units-per-em="2048"
    panose-1="2 0 5 0 0 0 0 0 0 0"
    ascent="1638"
    descent="-410"
    x-height="1632"
    cap-height="1632"
    bbox="-2647.05 -1060.31 8233 2464"
    underline-thickness="102"
    underline-position="-255"
    unicode-range="U+001D-E354"
  />
<missing-glyph horiz-adv-x="1024" 
 />
    <glyph glyph-name="dollar" unicode="LEJOUR" horiz-adv-x="8259" 
d="M414 1628h-361q30 0 51.5 -29.5t24.5 -76.5v-1407q-3 -48 -24.5 -76.5t-51.5 -28.5l1121 -2v225q0 -4 -1.5 -10t-9.5 -24t-21 -35.5t-40.5 -39.5t-64 -39.5t-95 -33t-129.5 -22.5h-440q-33 29 -33 94v1390q0 51 21.5 83t52.5 32zM2398 1628h-1120q30 0 51.5 -29.5
t24.5 -76.5v-1409q-3 -47 -24.5 -76t-51.5 -29h1122v225q-1 -7 -3.5 -18.5t-23.5 -42.5t-55.5 -56.5t-108 -51t-171.5 -35.5h-443q-32 28 -32 92v698h229q47 -8 83.5 -22t54.5 -28t29.5 -27t14.5 -21l2 -8v114v115q-1 -3 -3 -8.5t-13.5 -20t-29.5 -27.5t-54.5 -26.5
t-83.5 -21.5h-229v673q0 65 34 99h439q72 -8 131 -23.5t95.5 -34t64 -39.5t41 -40.5t21.5 -35t9 -25.5l2 -9v225h-2zM3537 1628q30 0 51.5 -29.5t24.5 -76.5v-1104v-21q2 -23 0 -51.5t-3 -60t-10.5 -64.5t-21 -63.5t-35 -58t-53 -47.5t-74 -32t-98.5 -12q97 0 173 11
t128.5 29.5t90 49.5t59 63.5t34 79t16 88t3.5 99.5v1083q0 51 21.5 84t51.5 33h-358zM4770 1630q-208 0 -385 -109t-280 -296t-103 -406q0 -221 103 -407.5t279.5 -295t385.5 -108.5t385 108.5t278.5 295t102.5 407.5q0 220 -102.5 406.5t-279 295.5t-384.5 109zM4770 1608
q113 0 216 -63t177 -169t118 -252t44 -307q0 -214 -74 -395.5t-202 -287t-279 -105.5q-152 0 -280.5 105.5t-202.5 286.5t-74 396q0 161 44 307t118.5 252.5t177.5 169t217 62.5zM5712 498q0 -150 76.5 -263t203 -170t283.5 -57q233 0 391 122.5t170 336.5v1044q0 51 22 84
t54 33h-360q29 0 49.5 -29.5t23.5 -76.5v-1213q0 -95 -48 -160t-125 -93.5t-177 -28.5q-157 0 -254.5 70.5t-97.5 211.5v1204q0 50 22.5 82.5t53.5 32.5h-363q31 0 53 -29.5t23 -76.5v-1024zM7379 8q-32 0 -54 32t-22 83v489h316q52 -30 81 -92l195 -405q21 -49 13 -77
t-38 -28h363q-33 0 -70 31t-61 82l-186 389q-5 9 -15.5 27t-15 25t-14 19.5t-18 18t-22 12t-30.5 9.5q205 31 309.5 159t106.5 314q1 114 -28.5 207.5t-91.5 167.5t-168.5 115.5t-250.5 41.5h-662q31 0 53 -29.5t23 -76.5v-1409q-1 -47 -23 -76t-53 -29h363zM7500 1610
q106 0 190 -24.5t133.5 -64t87 -89.5t50 -101t23.5 -98.5t6.5 -82t-1.5 -50.5v-6q0 -21 -0.5 -36.5t-5 -51.5t-12 -65t-24 -69t-39 -71t-58.5 -64t-81.5 -54.5t-109 -36t-139.5 -15.5h-217v882q0 64 33 97h164z" />
    <glyph glyph-name="O_O" unicode="OO" horiz-adv-x="2367" 
d="M1139 1536q-173 98 -369 98q-157 0 -300 -64.5t-247 -174t-165.5 -261t-61.5 -317.5t61.5 -317.5t165.5 -261t247 -174t300 -64.5q196 0 369 98q170 -98 366 -98q210 0 388.5 109.5t282 297.5t103.5 410t-103.5 410t-282 297.5t-388.5 109.5q-196 0 -366 -98zM1067 1491
q-155 -112 -245.5 -289.5t-90.5 -384.5t91.5 -385t246.5 -291q-137 -121 -299 -121q-91 0 -176.5 40t-154.5 114t-121 171.5t-80.5 219t-28.5 250.5q0 216 75.5 400t204.5 290.5t281 106.5q164 0 297 -121zM1206 141q156 112 247 290t91 386q0 207 -90.5 384.5t-245.5 289.5
q133 121 297 121q152 0 281 -106.5t204.5 -290.5t75.5 -400q0 -129 -28.5 -250.5t-80.5 -219t-121 -171.5t-154.5 -114t-176.5 -40q-162 0 -299 121zM1139 1417q90 -111 141 -267.5t51 -334.5q0 -177 -51 -333t-141 -267q-91 111 -143 267t-52 333q0 178 52 334.5t143 267.5
z" />
    <glyph glyph-name="S_S" unicode="SS" horiz-adv-x="2045" 
d="M997 1509q-128 128 -389 125q-97 -1 -185.5 -31.5t-152.5 -80.5t-106.5 -114t-54.5 -132q-18 -98 0.5 -176.5t64.5 -130.5t110.5 -93.5t139.5 -72t151 -59.5t146 -62.5t123 -73.5t82.5 -100.5t25.5 -136.5q-4 -68 -29 -130t-69.5 -112t-114.5 -79t-155 -27
q-84 2 -151.5 33.5t-105 78t-55.5 96t-16 93.5q7 98 72 108l-353 2q23 -6 46 -23.5t36 -41.5q13 -45 39 -91.5t73 -97t106 -89.5t144.5 -64.5t182.5 -26.5q291 0 442 106q103 -103 299 -106q290 -1 445 108.5t164 315.5q4 95 -21.5 170.5t-73.5 125.5t-111.5 89.5
t-135.5 68.5t-145 56t-141 58.5t-122.5 69.5t-90.5 95.5t-44 130.5q-6 45 0 90q4 8 4 15q20 101 101.5 162.5t224.5 58.5q76 -2 137 -48t80 -132q22 -101 -74 -105h358q-25 7 -51 28t-39 50q-47 109 -161.5 168.5t-296.5 58.5q-205 -3 -353 -125zM883 1372q-25 -51 -33 -96
q-16 -89 -2.5 -161.5t50 -122.5t91 -92t118.5 -70t133.5 -57t136 -53.5t125.5 -58t103 -71.5t67.5 -94t19.5 -125q-3 -68 -28 -130t-69.5 -112t-114.5 -79t-155 -27q-157 3 -209 149q88 102 94 252q4 95 -21.5 170.5t-73.5 125.5t-111.5 89.5t-135 68.5t-144.5 56t-141 58.5
t-122.5 69.5t-90.5 95.5t-44 130.5q-7 65 8.5 123t53.5 105t106.5 73.5t160.5 24.5q51 -1 102.5 -26.5t90 -82.5t35.5 -133z" />
    <glyph glyph-name="T_T" unicode="TT" horiz-adv-x="1705" 
d="M1610 1632h-1610v-225q0 4 1.5 11.5t10.5 28t23 39.5t42.5 42.5t65.5 41t95 30t129 14.5h86q32 -32 32 -88v-1420q-1 -47 -22.5 -76.5t-52.5 -29.5h364q-31 0 -53.5 32.5t-22.5 82.5v1401q0 66 33 96q8 0 29 1t33 1h86q31 -31 34 -88v-1420q-3 -47 -24 -76.5t-51 -29.5
h362q-31 0 -53.5 32.5t-22.5 82.5v1401q0 66 33 96q29 0 39 2h49q71 -2 129 -14t95 -30.5t65.5 -40.5t42.5 -43.5t22.5 -39t10.5 -28.5l2 -11v225h-2z" />
    <glyph glyph-name="L_A" unicode="LA" horiz-adv-x="1773" 
d="M365 1632h-365q31 0 53 -29.5t25 -76.5v-1420q-5 -86 -78 -106q94 30 182.5 36t166 -5t152.5 -25.5t173.5 -23t197.5 -0.5q67 5 125.5 33t102 82t52.5 132.5t-22 184.5q-22 -79 -54 -139t-67 -98.5t-83.5 -62.5t-92 -35t-105 -11.5t-109.5 4t-119 14.5q-103 14 -126.5 16
t-84.5 -2v1416q0 51 22 83.5t54 32.5zM809 1632q4 0 20 -4q22 -9 28 -38.5t-7 -73.5l-369 -1182q-17 -51 -49 -83t-63 -32h200q-30 0 -42.5 29t-0.5 78l142 446q11 33 51 33h383q42 0 49 -33l211 -668q13 -47 0.5 -76.5t-43.5 -29.5h364q-31 0 -63 32.5t-49 84.5l-438 1401
q-16 52 -5 84t43 32h-362zM1126 854q8 -29 -20 -29h-391q-29 0 -21 29l209 672l6 18q6 -9 9 -18z" />
    <glyph glyph-name="L_O" unicode="LO" horiz-adv-x="1894" 
d="M365 1632h-365q31 0 53 -29.5t23 -76.5v-1420q-3 -85 -76 -106q106 38 327 36t418 -21.5t424 -36t344 -7.5q67 5 125.5 33.5t101.5 82t52 132t-23 184.5q-22 -78 -78 -138.5t-130.5 -97t-172.5 -60t-192.5 -32.5t-202.5 -9t-192 5.5t-170 14.5q-239 27 -342 14v1416
q0 52 21.5 84t54.5 32zM1118 1632q-187 0 -345.5 -93.5t-250.5 -255t-92 -351.5q0 -146 44.5 -272t128.5 -222.5t216.5 -151.5t298.5 -55q165 0 297.5 55t217 151.5t129 222.5t44.5 272q0 190 -92.5 351.5t-251 255t-344.5 93.5zM1118 1614q133 0 235 -92t155 -246.5
t53 -343.5t-53 -343.5t-155 -246.5t-235 -92q-135 0 -245.5 91.5t-172 247.5t-61.5 343t61.5 343t172 247.5t245.5 91.5z" />
    <glyph glyph-name="L_U" unicode="LU" horiz-adv-x="1681" 
d="M369 1632h-365q30 0 52.5 -30t23.5 -76v-1420q-3 -85 -76 -106q105 38 293.5 36t347.5 -21.5t353.5 -36t312.5 -7.5q67 5 125.5 33.5t102 82t52.5 132t-22 184.5q-22 -78 -78 -138.5t-130 -97t-168 -60t-186 -32.5t-189.5 -9t-173 5.5t-142.5 14.5q-101 14 -125 16
t-86 -2v1416q0 51 22.5 83.5t55.5 32.5zM522 692q0 -142 66 -249.5t176 -161.5t246 -54q202 0 340 116t147 319v860q0 48 19.5 78t46.5 30h-314q27 0 46 -28t20 -72v-1018q0 -132 -85.5 -199t-219.5 -67t-219.5 67t-85.5 199v1010q0 49 18.5 78.5t46.5 29.5h-313
q27 0 45.5 -27.5t19.5 -72.5v-838z" />
    <glyph glyph-name="R_A" unicode="RA" horiz-adv-x="2568" 
d="M369 0q-33 0 -55.5 32t-22.5 83v493h317q4 -2 13 -32.5t24 -78t37.5 -109t58.5 -128t82 -132t113 -123t146.5 -100.5t187.5 -64.5t231 -14.5q111 6 209.5 81.5t143.5 204t-15 300.5q18 -88 -2.5 -165.5t-70 -131t-122 -84t-155.5 -31.5q-102 -1 -189 19.5t-147.5 54
t-111 81.5t-82.5 97t-59.5 105.5t-43 101.5t-33 90.5t-30.5 68.5q139 22 234 91t138.5 166.5t44.5 218.5q1 116 -28 210.5t-91 169.5t-169 116.5t-252 41.5l-666 -2q30 2 51.5 -27.5t24.5 -78.5v-1418q-3 -47 -24.5 -76.5t-51.5 -29.5h365zM492 1612q74 0 137.5 -12
t109.5 -32.5t84.5 -48.5t63 -60.5t44.5 -67.5t28.5 -70t16.5 -68t8 -61.5t2 -51t-1 -35.5v-11q-4 -158 -59 -257q-112 -205 -414 -208h-221v887q0 63 33 96h168zM1638 1632q7 0 19 -4q50 -19 22 -112l-307 -986q-15 -50 -47 -82t-65 -32h202q-31 0 -43.5 29.5t0.5 76.5
l78 250q11 33 51 33h383q42 0 49 -33l211 -668q13 -47 0.5 -76.5t-43.5 -29.5h365q-31 0 -63.5 32.5t-49.5 84.5l-438 1401q-16 52 -4.5 84t43.5 32h-363zM1956 854q8 -29 -21 -29h-391q-18 0 -21.5 9.5t1.5 19.5l209 672l6 18q4 -6 8 -18z" />
    <glyph glyph-name="R_O" unicode="RO" horiz-adv-x="2758" 
d="M362 0q-32 0 -53.5 32t-21.5 83v493h317q4 -2 29 -36.5t63 -87t99 -119t132 -133.5t167.5 -130.5t201 -110.5t236.5 -72t270 -17q150 9 280 49t221.5 99.5t157.5 133.5t99 151t35 152q-30 -104 -109.5 -184.5t-190.5 -128.5t-238.5 -72.5t-266.5 -25.5
q-161 -2 -313.5 40.5t-261.5 105.5t-201.5 141.5t-144.5 141t-81 113.5q139 22 234.5 91t139 166.5t44.5 218.5q1 116 -28 210t-91 168.5t-169 116t-252 41.5h-666q30 0 51.5 -29t24.5 -77v-1418q-3 -48 -24.5 -77t-51.5 -29h362zM487 1612q74 0 137.5 -12t109.5 -32.5
t85 -49t63 -61t44 -67.5t29 -70t17 -68.5t8 -62t2 -50.5t-1 -34v-11q-4 -158 -59 -258q-113 -205 -414 -209h-221v889q0 60 32 96h168zM1974 1632q-140 0 -267.5 -54t-219.5 -145t-146.5 -217t-54.5 -264t54.5 -264t146.5 -217t219.5 -145t267.5 -54q186 0 344.5 91t251 248
t92.5 341t-92.5 341t-251 248t-344.5 91zM1974 1614q133 0 235 -89.5t155 -239.5t53 -333q0 -184 -53 -334t-155 -239.5t-235 -89.5q-134 0 -244 89t-171.5 240.5t-61.5 333.5q0 181 61.5 332.5t171.5 240.5t244 89z" />
    <glyph glyph-name="R_U" unicode="RU" horiz-adv-x="2457" 
d="M1335 823q0 -142 66.5 -249.5t176.5 -161.5t245 -54q99 0 185 29t152 83.5t106.5 138t45.5 186.5v727q0 47 19 76.5t47 29.5h-316q27 0 46 -27t22 -71v-887q0 -131 -86 -198.5t-221 -67.5q-134 0 -219.5 68t-85.5 198v879q0 48 19 78t46 30h-313q26 0 45 -28t20 -72v-707
zM365 0q-32 0 -54 32t-22 83v493h317q4 -2 17 -24.5t32.5 -58.5t50.5 -83.5t69 -99.5t90 -106.5t111.5 -105t136 -94t160 -74.5t187.5 -46t215 -8q126 8 234.5 48t184 99.5t129.5 134t81 151.5t29 153q-29 -102 -106.5 -184t-176 -129.5t-198.5 -72.5t-189 -26
q-116 -1 -222 21.5t-183 55.5t-150 87t-117 97t-90.5 105.5t-65 93t-44.5 76.5q139 22 234 91t138.5 166.5t44.5 218.5q1 115 -28.5 209.5t-91.5 169t-169.5 116t-252.5 41.5h-666q32 0 53.5 -29t22.5 -77v-1418q-1 -48 -22.5 -77t-53.5 -29h365zM487 1612
q107 0 191.5 -24.5t134.5 -64.5t88 -90t51 -101.5t24 -99t6.5 -82t-1.5 -50.5v-6q0 -28 -1 -50.5t-10.5 -73.5t-25.5 -90.5t-51.5 -89t-83.5 -82.5t-126 -56.5t-175 -24.5h-219v889q0 63 33 96h165z" />
    <glyph glyph-name="R_N" unicode="RN" horiz-adv-x="2490" 
d="M365 0q-33 0 -55.5 32t-22.5 83v493h319q4 -2 18.5 -34.5t35.5 -81.5t57 -112t79.5 -128t106 -127t134 -110t167.5 -77.5t201 -29.5t185 30t125.5 78.5t69.5 110.5t22.5 125.5t-21 123.5t-55.5 105q30 -84 11.5 -158t-67 -128t-123.5 -84.5t-159 -28.5q-102 2 -195 44.5
t-157 102.5t-119 137t-84.5 137t-49.5 115q139 22 235 91t139.5 166.5t43.5 218.5q2 115 -27 209.5t-91 169t-169.5 116t-252.5 41.5h-666q30 0 52.5 -29t23.5 -77v-1418q-1 -48 -23.5 -77t-52.5 -29h365zM487 1612q74 0 137.5 -12t109.5 -32.5t85 -49t63 -61t44 -67.5
t29 -70t17 -68.5t8 -62t2 -50.5t-1 -34v-11q-4 -158 -59 -258q-113 -205 -414 -209h-221v889q0 60 32 96h168zM1769 1630h-364h6h-8q32 0 54 -31.5t22 -82.5v-1158q0 -51 -22 -82.5t-54 -31.5h76h49h76q-30 0 -52.5 30t-23.5 76v1174v6q4 -4 4 -6l678 -1418q20 -50 12 -78
t-39 -28h365q-43 -1 -58.5 27t-17.5 79v1418q3 47 24.5 76.5t51.5 29.5h-201q33 0 54.5 -31t21.5 -83v-1401v-13l-6 13l-668 1401q-25 52 -18.5 83t38.5 31z" />
    <glyph glyph-name="K_A" unicode="KA" horiz-adv-x="2324" 
d="M1122 1632h-200q36 0 29 -41q-7 -32 -38 -75l-620 -850v850q0 51 22 82.5t54 31.5h-365q31 0 53 -28.5t25 -77.5v-1418q-3 -49 -25 -77.5t-53 -28.5h365q-32 0 -54 32t-22 83v483l106 145l187 -249q102 -133 206.5 -234.5t199.5 -163t185.5 -92.5t167.5 -27.5t143 37
t113.5 95.5t77 153.5t35.5 206.5q-11 -207 -158 -277q-136 -65 -338 6q-213 76 -396 268q-71 75 -130 161l-184 266l461 633q36 46 79.5 76t73.5 30zM1391 1632q8 0 20 -4q22 -9 29 -38t-6 -74l-308 -986q-17 -50 -49 -82t-63 -32h200q-30 0 -42.5 29.5t-0.5 76.5l80 250
q7 33 52 33h-3h383q41 0 52 -33l211 -668q12 -47 -0.5 -76.5t-42.5 -29.5h364q-33 0 -65.5 33t-47.5 84l-440 1401q-14 52 -2 84t43 32h-364zM1708 854q12 -29 -18 -29h-394q-28 0 -20 29l209 672q4 12 8 18q4 -12 8 -18z" />
    <glyph glyph-name="K_U" unicode="KU" horiz-adv-x="2334" 
d="M1194 825q0 -213 139.5 -339t347.5 -126q204 0 341.5 116.5t146.5 320.5v727q1 47 20 76.5t47 29.5h-315q27 0 46 -27t20 -71v-887q0 -131 -85.5 -198.5t-220.5 -67.5q-134 0 -219.5 68t-85.5 198v879q0 48 19.5 78t46.5 30h-314q27 0 46 -28t20 -72v-707zM1118 1632
h-203q42 0 29 -48q-8 -28 -35 -66l-620 -852v852q0 50 21.5 82t54.5 32h-365q30 0 52.5 -30t23.5 -76v-1420q-1 -46 -23.5 -76t-52.5 -30h365q-33 0 -54.5 32.5t-21.5 84.5v483l106 145l185 -249q109 -159 236.5 -276.5t253.5 -182t257 -96.5t250 -21.5t228.5 44.5
t196.5 100.5t150 147t93 182.5t22 210q-6 -72 -37 -142t-82.5 -130.5t-122 -109.5t-152.5 -83.5t-177.5 -47.5t-195 -6.5t-206 43.5t-208.5 100t-205.5 165t-194.5 236l-182 266l461 631q36 48 78.5 77t74.5 29z" />
    <glyph glyph-name="K_O" unicode="KO" horiz-adv-x="2365" 
d="M1571 1634q-186 0 -344.5 -91t-251 -248t-92.5 -341t92.5 -341t251 -248t344.5 -91t344.5 91t251 248t92.5 341t-92.5 341t-251 248t-344.5 91zM1571 1616q133 0 235 -89.5t154.5 -239t52.5 -333.5t-52.5 -334t-154.5 -239.5t-235 -89.5q-134 0 -244 89t-171.5 240.5
t-61.5 333.5q0 181 61.5 332.5t171.5 240.5t244 89zM1118 1632h-200q38 0 28 -42q-6 -30 -37 -72l-620 -852v852q0 50 22 82t54 32h-365q31 0 53 -29.5t25 -76.5v-1420q-3 -47 -25 -76.5t-53 -29.5h365q-32 0 -54 33t-22 84v483l106 145l187 -249q109 -159 236.5 -276.5
t253.5 -182t256.5 -96.5t249.5 -21.5t228.5 44.5t196.5 100.5t150 147t93.5 182.5t22.5 210q-6 -72 -37 -142t-82.5 -130.5t-122 -109.5t-152.5 -83.5t-177.5 -47.5t-195 -6.5t-206 43.5t-208.5 100t-205.5 165t-194.5 236l-184 266l461 631q35 48 78.5 77t74.5 29z" />
    <glyph glyph-name=".notdef" horiz-adv-x="1024" 
 />
    <glyph glyph-name=".null" horiz-adv-x="0" 
 />
    <glyph glyph-name=".null" horiz-adv-x="0" 
 />
    <glyph glyph-name="nonmarkingreturn" horiz-adv-x="1040" 
 />
    <glyph glyph-name="space" unicode=" " horiz-adv-x="819" 
 />
    <glyph glyph-name="space" unicode="&#xa0;" horiz-adv-x="819" 
 />
    <glyph glyph-name="exclam" unicode="!" horiz-adv-x="452" 
d="M0 1630q30 0 51.5 -29.5t24.5 -76.5l69 -1129q-3 -49 -24 -77.5t-51 -28.5h231q-32 0 -54 31.5t-22 82.5l62 1110q0 51 22 84t53 33h-362zM186 217q-45 0 -76.5 -31.5t-31.5 -76.5q0 -44 32 -76.5t76 -32.5q46 0 78.5 32.5t32.5 76.5q0 45 -32.5 76.5t-78.5 31.5z" />
    <glyph glyph-name="quotedbl" unicode="&#x22;" horiz-adv-x="331" 
d="M45 1495q10 -4 11 -12.5t-3 -15.5l-4 -7q5 3 13 8t22 20t16 30v112h-100v-94q1 -21 12 -30t33 -11zM219 1495q10 -4 11 -12.5t-3 -15.5l-4 -7q5 3 13 8t22 20t16 30v112h-100v-94q1 -21 12 -30t33 -11z" />
    <glyph glyph-name="numbersign" unicode="#" horiz-adv-x="1007" 
d="M502 1323q16 55 49 84q31 31 63 31h-233q64 -3 43 -107l-96 -311h-74q-21 3 -33 18t-12 35l-57 -196q12 28 18 38q9 15 31 15h98l-72 -232h-75q-20 3 -33 19t-13 35l-57 -197q11 26 19 39q8 14 30 14h101l-95 -301q-14 -46 -47 -76q-30 -27 -61 -30h233q-68 6 -41 114
l91 293h258l-95 -301q-14 -46 -47 -76q-30 -27 -61 -30h233q-68 6 -41 114l90 293h76q23 0 37 -14q12 -15 12 -39l58 197q-1 -2 -2 -6t-2 -5q-7 -20 -15 -28q-9 -12 -26 -15h-109l72 232h78q21 0 36 -15q13 -16 13 -38l57 196q-1 -2 -2 -5.5t-2 -4.5q-7 -23 -14 -29
q-8 -10 -27 -14h-111l95 303q16 55 49 84q31 31 63 31h-233q64 -3 43 -107l-96 -311h-258zM565 698h-258l72 232h258z" />
    <glyph glyph-name="percent" unicode="%" horiz-adv-x="2150" 
d="M57 1249l-10 -53h-31l27 143q20 4 39 4q24 0 37 -10q16 -10 16 -30q0 -28 -20 -41q-15 -15 -45 -15q-4 0 -8 1t-5 1zM70 1317l-9 -43h13q13 0 21.5 6.5t8.5 17.5q0 19 -22 19h-12zM246 1315h-56l-6 -31h54l-7 -27h-51l-6 -34h57l-4 -27h-90l29 145h86zM291 1253l-10 -57
h-31l26 143q20 4 39 4q27 0 37 -10q17 -7 17 -26q0 -30 -33 -41v-2q11 -5 14 -27q5 -39 6 -41h-32q0 2 -1 6.5t-2 12.5l-2 16q-2 22 -20 22h-8zM303 1317l-8 -39h12q31 0 31 22q0 19 -23 19q-3 0 -7 -1t-5 -1zM416 1221q22 0 22 16q0 11 -20 20q-29 17 -29 39q0 21 16 34
t41 13q15 0 33 -6l-8 -26q-18 6 -29 6q-20 0 -20 -14q0 -11 20 -21q29 -16 29 -39q0 -24 -16.5 -36.5t-42.5 -12.5t-41 10l10 27q13 -10 35 -10zM569 1343q27 0 42.5 -16t15.5 -43q0 -45 -25 -70q-23 -20 -53 -20q-28 0 -44 17t-16 44q0 41 27 68q20 20 53 20zM578 1231
q16 16 16 51q0 37 -29 37q-15 0 -24 -12q-19 -16 -19 -52q0 -34 31 -34q12 0 25 10zM674 1247l-10 -51h-29l27 145h36l19 -55q7 -21 14 -49q1 4 2.5 21.5t3.5 29.5l11 53h28l-26 -145h-33l-21 57q-10 33 -12 52h-2l-3 -22q-3 -22 -5 -36zM817 1235l-16 -39h-33l70 145h41
l16 -145h-33l-2 39h-43zM842 1288l-15 -31h31l-2 31q0 4 -1 14.5t-1 14.5q-2 -4 -6 -14.5t-6 -14.5zM938 1341h31l-21 -118h56l-7 -27h-86zM1114 1341l-16 -84q-2 -4 -2 -16q0 -20 22 -20q26 0 31 36l16 84h31l-16 -81q-6 -34 -21.5 -50t-44.5 -16q-49 0 -49 47q0 13 2 21
l16 79h31zM1237 1221q23 0 23 16q0 11 -21 20q-29 17 -29 39q0 21 16.5 34t41.5 13q14 0 32 -6l-8 -26q-18 6 -28 6q-21 0 -21 -14q0 -11 21 -21q28 -16 28 -39q0 -24 -16.5 -36.5t-42.5 -12.5t-41 10l10 27q13 -10 35 -10zM1413 1315h-53l-6 -31h51l-4 -27h-53l-7 -34h58
l-4 -27h-88l26 145h86zM1575 1214q-20 -20 -53 -20q-27 0 -43.5 17t-16.5 44q0 41 27 68q23 20 53 20q29 0 44.5 -16t15.5 -43q0 -43 -27 -70zM1495 1255q0 -34 31 -34q14 0 24 10q19 16 19 51q0 37 -31 37q-16 0 -25 -12q-18 -18 -18 -52zM1657 1305q0 -3 -10 -58l-11 -51
h-28l28 145h37l19 -55q9 -28 12 -49h2q0 21 6 51l10 53h29l-29 -145h-30l-21 57q-9 31 -14 52zM1780 1341h30l-22 -118h55l-4 -27h-88zM1907 1255l-13 -59h-30l12 59l-29 86h33l10 -36q4 -24 4 -27h2q6 12 15 27l20 36h37zM1997 1212q0 8 5.5 14.5t14.5 6.5q7 0 13 -5.5
t6 -13.5q0 -20 -21 -20q-7 0 -12.5 5t-5.5 13zM2056 1341l-22 -98h-25l14 98h33zM92 649h-51v-41h47v-14h-47v-55h-14v123h65v-13zM186 584q0 -23 -13 -35t-30 -12q-18 0 -29.5 13t-11.5 34t12 33t31 12t30 -12.5t11 -32.5zM117 584q0 -15 7.5 -25t18.5 -10q12 0 19.5 10
t7.5 25q0 12 -6.5 22t-18.5 10q-28 0 -28 -32zM223 539h-16v61v27h14v-17q6 19 25 19h4v-15h-4q-20 0 -23 -20v-8v-47zM299 600q0 28 17 46t46 18q15 0 29 -7l-4 -12q-9 6 -25 6q-47 0 -47 -51q0 -49 47 -49q16 0 25 6l4 -14q-12 -4 -33 -4q-27 0 -43 15.5t-16 45.5z
M444 537q-19 0 -31 13t-12 34t12.5 33t30.5 12q20 0 31.5 -12.5t11.5 -32.5q0 -23 -13 -35t-30 -12zM444 616q-26 0 -26 -32q0 -15 7 -25t19 -10q11 0 19 10t8 25q0 12 -7 22t-20 10zM633 539h-17v51q0 26 -18 26q-14 0 -18 -14q0 -1 -1 -4t-1 -4v-55h-15v53q0 24 -18 24
q-17 0 -21 -16q0 -1 -1 -3.5t-1 -4.5v-53h-14v65q0 17 -2 23h14l2 -15q8 17 27 17q21 0 24 -17h2q2 4 9 11q9 6 20 6q29 0 29 -37v-53zM784 592v-53h-16v51q0 26 -18 26q-16 0 -19 -14q-2 -2 -2 -8v-55h-16v53q0 24 -19 24q-14 0 -18 -16q-2 -2 -2 -8v-53h-15v65q0 17 -2 23
h15v-15h2q8 17 26 17t25 -17q1 1 4.5 5.5t5.5 5.5q9 6 21 6q28 0 28 -37zM881 588v-8h-62q0 -14 8.5 -21.5t20.5 -7.5t24 4l5 -12q-12 -4 -31 -4q-43 0 -43 43q0 21 11.5 34t29.5 13q19 0 28 -13t9 -28zM819 592h47q0 9 -5.5 17.5t-16.5 8.5t-18 -8.5t-7 -17.5zM901 600
q0 19 -2 27h14v-17h2q6 19 25 19h4v-15h-6q-17 0 -20 -20q0 -1 -1.5 -3.5t-1.5 -4.5v-47h-14v61zM1020 543q-8 -4 -25 -4q-43 0 -43 43q0 22 12.5 34.5t34.5 12.5q13 0 21 -4l-2 -13q-8 4 -19 4q-15 0 -23.5 -9t-8.5 -23q0 -15 9 -24t21 -9q13 0 21 4zM1047 662q10 0 10 -11
q0 -8 -10 -8q-11 0 -11 8q0 11 11 11zM1038 539v88h17v-88h-17zM1102 537q-13 0 -20 8t-7 18q0 33 51 33v2q0 20 -18 20q-11 0 -23 -8l-4 11q8 8 29 8q33 0 33 -35v-33q0 -16 2 -22h-15l-2 12q-14 -14 -26 -14zM1128 584q-38 0 -38 -19q0 -16 16 -16q15 0 20 14q0 1 1 3t1 3
v15zM1169 539v129h15v-129h-15zM1210 561l19 2q-7 -29 -19 -45h-10q6 15 10 43zM1286 539v120q20 5 31 5q22 0 33 -11q12 -9 12 -26t-10 -27q-12 -12 -37 -12h-12v-49h-17zM1303 649v-47q2 -2 12 -2q14 0 22.5 7.5t8.5 19.5q0 22 -29 22h-14zM1380 539v129h17v-129h-17z
M1489 543q-8 -4 -29 -4q-43 0 -43 43q0 21 11.5 34t29.5 13q19 0 28 -13t9 -28v-8h-61q0 -29 28 -29q13 0 25 4zM1458 618q-11 0 -17.5 -8.5t-6.5 -17.5h45q0 26 -21 26zM1577 539h-14v12h-2q-9 -14 -27 -14q-11 0 -19 8t-8 18q0 33 54 33v2q0 20 -21 20q-10 0 -22 -8l-5 11
q11 8 29 8q35 0 35 -35v-33v-22zM1561 569v15q-37 0 -37 -19q0 -16 14 -16t23 14v6zM1653 563q0 -11 -9 -17.5t-24 -6.5q-16 0 -25 6l4 10q12 -6 21 -6q18 0 18 14q0 7 -16 17q-25 6 -25 24q0 11 9 18t22 7q11 0 23 -4l-4 -13q-8 4 -19 4q-14 0 -14 -10q0 -11 16 -16
q23 -10 23 -27zM1745 588v-8h-62q0 -29 29 -29q13 0 25 4l2 -12q-8 -4 -29 -4q-43 0 -43 43q0 21 11.5 34t29.5 13q19 0 28 -13t9 -28zM1683 592h46q0 26 -21 26q-11 0 -18 -8.5t-7 -17.5zM1868 662h16l-43 -123h-18l-39 123h16l21 -60q10 -40 12 -47q12 41 14 47zM1903 662
q10 0 10 -11q0 -8 -10 -8q-11 0 -11 8q0 11 11 11zM1894 539v88h17v-88h-17zM1956 549q16 0 16 14q0 9 -16 17q-23 7 -23 24q0 11 9 18t22 7t21 -4l-5 -13q-4 4 -16 4q-16 0 -16 -10t16 -16q25 -9 25 -27q0 -11 -9 -17.5t-24 -6.5q-16 0 -25 6l4 10q12 -6 21 -6zM2017 662
q8 0 8 -11q0 -8 -10 -8q-8 0 -8 8q0 11 10 11zM2025 627v-88h-16v88h16zM2093 614h-22v-47q0 -16 12 -16h8l2 -10q-4 -2 -14 -2q-13 0 -19 6t-6 22v47h-12v13h12v22l17 4v-26h22v-13zM559 274h-35l2 21q-14 -25 -41 -25q-16 0 -27.5 13t-11.5 34q0 35 22.5 59.5t57.5 24.5
q11 0 17 -2l10 56h37l-25 -133q-6 -21 -6 -48zM502 301q22 0 28 35l7 33q-3 6 -15 6q-15 0 -26 -16t-11 -35q0 -23 17 -23zM655 436q0 -22 -22 -22q-17 0 -17 18q0 9 6 15t15 6q18 0 18 -17zM647 399l-24 -125h-37l24 125h37zM731 274l12 70q2 4 2 12q0 17 -12 17
q-10 0 -19 -12t-12 -31l-10 -56h-37l15 84q4 14 8 41h33l-4 -20h2q14 22 43 22q32 0 32 -32q0 -3 -1 -11.5t-1 -11.5l-14 -72h-37zM801 328l6 26h65l-4 -26h-67zM946 375q-16 0 -16 -10q0 -9 14 -15q29 -17 29 -35q0 -21 -16 -33t-42 -12q-23 0 -38 11l8 26q16 -8 33 -8
q16 0 16 10q0 9 -16 17q-25 11 -25 32q0 20 14.5 31.5t38.5 11.5t33 -6l-8 -26q-9 6 -25 6zM1047 371l-9 -43q-2 -4 -2 -15q0 -10 11 -10h10l-4 -29q-12 -4 -23 -4q-33 0 -33 27q0 4 1 12t1 13l11 49h-17l6 28h17l4 27l39 8l-8 -35h26l-4 -28h-26zM1190 274h-33l2 21
q-19 -25 -43 -25q-33 0 -33 35q0 15 2 25l15 69h37l-13 -67q-2 -6 -2 -17q0 -14 13 -14q21 0 30 41l11 57h36l-16 -84q-4 -29 -6 -41zM1335 274h-35l3 21q-14 -25 -41 -25q-16 0 -27.5 13t-11.5 34q0 35 22.5 59.5t57.5 24.5q10 0 16 -2l10 56h37l-25 -133q-6 -21 -6 -48z
M1278 301q23 0 29 35l6 33q-3 6 -15 6q-15 0 -25.5 -16t-10.5 -35q0 -23 16 -23zM1432 436q0 -10 -7 -16t-16 -6q-16 0 -16 18q0 21 20 21q8 0 13.5 -5t5.5 -12zM1423 399l-24 -125h-37l24 125h37zM1489 270q-25 0 -39 14.5t-14 39.5q0 33 20 55t53 22q25 0 39.5 -14.5
t14.5 -36.5q0 -34 -21 -57t-53 -23zM1505 375q-15 0 -23.5 -17t-8.5 -34q0 -25 20 -25q14 0 22.5 16t8.5 35q0 25 -19 25zM1591 270q-9 0 -14.5 7t-5.5 16q0 11 7 18.5t17 7.5t16.5 -6.5t6.5 -15.5q0 -11 -7.5 -19t-19.5 -8zM1722 373q-20 0 -31.5 -13.5t-11.5 -33.5
q0 -25 25 -25q13 0 25 4v-26q-18 -9 -35 -9q-23 0 -38.5 14.5t-15.5 37.5q0 34 23.5 56.5t58.5 22.5q17 0 25 -4l-8 -28q-8 4 -17 4zM1802 270q-24 0 -38.5 15t-14.5 39q0 33 21.5 55t54.5 22q24 0 38.5 -14.5t14.5 -36.5q0 -34 -22 -57t-54 -23zM1819 375
q-14 0 -22.5 -17.5t-8.5 -33.5q0 -25 20 -25q14 0 22.5 16t8.5 35q0 25 -20 25zM2036 274l12 68q0 3 1 8t1 8q0 15 -12 15q-21 0 -31 -43l-10 -56h-35l12 68q2 6 2 14q0 17 -12 17q-9 0 -18 -12t-13 -31l-10 -56h-35l17 84q3 20 6 41h31l-3 -20q16 22 43 22t31 -22
q14 22 43 22q14 0 22.5 -8.5t8.5 -23.5q0 -3 -1 -11.5t-1 -11.5l-14 -72h-35zM158 729q-69 3 -109.5 37t-38.5 82q0 37 15.5 52t33.5 15q28 0 37 -21.5t-6 -35.5q0 20 -20 24q-23 5 -33 -18q-4 -9 -4 -20q0 -41 34.5 -65.5t90.5 -24.5q116 0 116 172v6q0 23 -0.5 37t-4 39
t-10 39.5t-20 26t-32.5 11.5q-12 0 -14 -28v-78v-2v-129q0 -15 5 -22.5t10 -7.5l5 -1v-10h-111v10h5.5t9 6t6.5 17v2v221q0 33 -29 33q-9 0 -15.5 -5.5t-6.5 -11.5q0 -8 5 -11.5t10 -3.5l5 1q0 -33 -31 -33q-30 0 -30 31q0 23 20 36t43 13q20 -1 52 -8.5t61 -7.5
q139 0 139 -172q0 -49 -18 -92t-62 -74t-108 -29zM479 817v-10h-110v10q2 0 5 0.5t8.5 6.5t6.5 18v116q-1 11 -6 17.5t-9 6.5l-5 1v8l90 17v-160q0 -15 5 -22.5t10 -7.5zM426 1090q14 0 23.5 -10t9.5 -23t-9.5 -23t-23.5 -10t-23.5 10t-9.5 23t9.5 23t23.5 10zM592 983
q22 27 59 27q25 0 42.5 -16t17.5 -46v-100q0 -31 18 -31v-10h-108v10q2 0 4.5 0.5t7.5 6.5t6 18v112q0 22 -18 23q-20 2 -27 -18q-2 -5 -2 -11v-100q0 -15 5 -22.5t10 -7.5l5 -1v-10h-110v10q2 0 5 0.5t8.5 6.5t6.5 18v116q-1 11 -6 17.5t-10 6.5l-4 1v8l90 17v-25z
M924 1022q0 3 0.5 8t6 18.5t15.5 23.5t32.5 18t53.5 8q20 0 39 -5.5t25 -7.5t22 5q4 4 12 4v-74h-10q0 2 -1.5 6t-7.5 14t-14.5 17.5t-26.5 13.5t-40 6q-23 0 -38 -15.5t-14.5 -33t17.5 -24.5q8 -3 44.5 -13t59.5 -19t43.5 -33.5t18.5 -59.5q-2 -32 -32.5 -52t-88.5 -20
q-24 0 -43.5 2.5t-27.5 5t-14 1t-11 -8.5h-10v78h12q0 -25 29 -40.5t65 -15.5q37 0 52 17.5t4.5 38t-39.5 28.5q-2 1 -19.5 6t-23 7t-21.5 8.5t-22.5 11t-17.5 13t-16 17t-9 20.5t-4 26zM1284 999h-4.5t-7.5 -5.5t-6 -16.5l-2 -135q1 -12 6 -18t10 -6l4 -1v-10h-29
q-13 0 -20.5 1t-18.5 5.5t-16.5 17t-5.5 31.5v113q-1 12 -6 18t-10 6h-4v11q29 0 54.5 11t37.5 11v-22h18v-11zM1303 999v11h106v-11h-4.5t-7 -6t-4.5 -18v-107q0 -22 11.5 -27.5t23.5 4t12 23.5v103q0 14 -4 21t-8 7h-3v11h105v-11h-5t-8.5 -6t-7.5 -18v-133q2 -12 7 -18
t10 -6l4 -1v-10h-49q-16 0 -28.5 11.5t-12.5 21.5q-16 -33 -51 -33q-26 0 -47 16t-21 45v103q0 13 -4 20t-7 7.5t-7 0.5zM1831 762q0 -33 -39 -33q-18 0 -38.5 4.5t-45.5 25t-31 54.5q-15 -6 -32 -6q-41 0 -70 29.5t-29 72.5q0 41 29 71t70 30q14 0 30 -4v92l90 -19v-8
q-2 0 -4.5 -0.5t-7.5 -6.5t-6 -17v-213q3 -86 47 -89q-6 6 -6 17q0 8 6.5 14t15.5 6q8 0 14.5 -6.5t6.5 -13.5zM1645 821q30 0 30 88q0 44 -6 66t-24 22q-31 0 -31 -88t31 -88zM1886 817v-10h-108v10q2 0 5 0.5t8.5 6.5t6.5 18v116q-1 11 -6 17.5t-10 6.5l-4 1v8l90 17v-160
q0 -15 4.5 -22.5t9.5 -7.5zM1802 1057q0 13 10 23t23 10q12 0 22.5 -10t10.5 -23t-10.5 -23t-22.5 -10q-13 0 -23 10t-10 23zM2087 907q0 -41 -28.5 -70.5t-69.5 -29.5t-71 29.5t-30 70.5q0 43 30 73t71 30t69.5 -30t28.5 -73zM1989 823q18 0 24 22t6 64t-6 64t-24 22
q-31 0 -31 -86t31 -86zM25 299v51h376v-51h-376zM1081 1403h-227l174 219h227zM2091 1403h-215l174 219h41v-219zM399 1403h-227l174 219h227zM1421 1403h-227l174 219h227zM233 1622l-174 -219h-34v219h208zM741 1403h-229l174 219h227zM1763 1403h-227l172 219h229z
M1028 209h227l-174 -219h-227zM1876 -10l174 219h41v-219h-215zM346 209h227l-174 -219h-227zM1368 209h227l-174 -219h-227zM25 209h208l-174 -219h-34v219zM686 209h227l-172 -219h-229zM1708 209h229l-174 -219h-227z" />
    <glyph glyph-name="ampersand" unicode="&#x26;" horiz-adv-x="2150" 
d="M57 1249l-10 -53h-31l27 143q20 4 39 4q24 0 37 -10q16 -10 16 -30q0 -28 -20 -41q-15 -15 -45 -15q-4 0 -8 1t-5 1zM70 1317l-9 -43h13q13 0 21.5 6.5t8.5 17.5q0 19 -22 19h-12zM246 1315h-56l-6 -31h54l-7 -27h-51l-6 -34h57l-4 -27h-90l29 145h86zM291 1253l-10 -57
h-31l26 143q20 4 39 4q27 0 37 -10q17 -7 17 -26q0 -30 -33 -41v-2q11 -5 14 -27q5 -39 6 -41h-32q0 2 -1 6.5t-2 12.5l-2 16q-2 22 -20 22h-8zM303 1317l-8 -39h12q31 0 31 22q0 19 -23 19q-3 0 -7 -1t-5 -1zM416 1221q22 0 22 16q0 11 -20 20q-29 17 -29 39q0 21 16 34
t41 13q15 0 33 -6l-8 -26q-18 6 -29 6q-20 0 -20 -14q0 -11 20 -21q29 -16 29 -39q0 -24 -16.5 -36.5t-42.5 -12.5t-41 10l10 27q13 -10 35 -10zM569 1343q27 0 42.5 -16t15.5 -43q0 -45 -25 -70q-23 -20 -53 -20q-28 0 -44 17t-16 44q0 41 27 68q20 20 53 20zM578 1231
q16 16 16 51q0 37 -29 37q-15 0 -24 -12q-19 -16 -19 -52q0 -34 31 -34q12 0 25 10zM674 1247l-10 -51h-29l27 145h36l19 -55q7 -21 14 -49q1 4 2.5 21.5t3.5 29.5l11 53h28l-26 -145h-33l-21 57q-10 33 -12 52h-2l-3 -22q-3 -22 -5 -36zM817 1235l-16 -39h-33l70 145h41
l16 -145h-33l-2 39h-43zM842 1288l-15 -31h31l-2 31q0 4 -1 14.5t-1 14.5q-2 -4 -6 -14.5t-6 -14.5zM938 1341h31l-21 -118h56l-7 -27h-86zM1114 1341l-16 -84q-2 -4 -2 -16q0 -20 22 -20q26 0 31 36l16 84h31l-16 -81q-6 -34 -21.5 -50t-44.5 -16q-49 0 -49 47q0 13 2 21
l16 79h31zM1237 1221q23 0 23 16q0 11 -21 20q-29 17 -29 39q0 21 16.5 34t41.5 13q14 0 32 -6l-8 -26q-18 6 -28 6q-21 0 -21 -14q0 -11 21 -21q28 -16 28 -39q0 -24 -16.5 -36.5t-42.5 -12.5t-41 10l10 27q13 -10 35 -10zM1413 1315h-53l-6 -31h51l-4 -27h-53l-7 -34h58
l-4 -27h-88l26 145h86zM1575 1214q-20 -20 -53 -20q-27 0 -43.5 17t-16.5 44q0 41 27 68q23 20 53 20q29 0 44.5 -16t15.5 -43q0 -43 -27 -70zM1495 1255q0 -34 31 -34q14 0 24 10q19 16 19 51q0 37 -31 37q-16 0 -25 -12q-18 -18 -18 -52zM1657 1305q0 -3 -10 -58l-11 -51
h-28l28 145h37l19 -55q9 -28 12 -49h2q0 21 6 51l10 53h29l-29 -145h-30l-21 57q-9 31 -14 52zM1780 1341h30l-22 -118h55l-4 -27h-88zM1907 1255l-13 -59h-30l12 59l-29 86h33l10 -36q4 -24 4 -27h2q6 12 15 27l20 36h37zM1997 1212q0 8 5.5 14.5t14.5 6.5q7 0 13 -5.5
t6 -13.5q0 -20 -21 -20q-7 0 -12.5 5t-5.5 13zM2056 1341l-22 -98h-25l14 98h33zM92 649h-51v-41h47v-14h-47v-55h-14v123h65v-13zM186 584q0 -23 -13 -35t-30 -12q-18 0 -29.5 13t-11.5 34t12 33t31 12t30 -12.5t11 -32.5zM117 584q0 -15 7.5 -25t18.5 -10q12 0 19.5 10
t7.5 25q0 12 -6.5 22t-18.5 10q-28 0 -28 -32zM223 539h-16v61v27h14v-17q6 19 25 19h4v-15h-4q-20 0 -23 -20v-8v-47zM299 600q0 28 17 46t46 18q15 0 29 -7l-4 -12q-9 6 -25 6q-47 0 -47 -51q0 -49 47 -49q16 0 25 6l4 -14q-12 -4 -33 -4q-27 0 -43 15.5t-16 45.5z
M444 537q-19 0 -31 13t-12 34t12.5 33t30.5 12q20 0 31.5 -12.5t11.5 -32.5q0 -23 -13 -35t-30 -12zM444 616q-26 0 -26 -32q0 -15 7 -25t19 -10q11 0 19 10t8 25q0 12 -7 22t-20 10zM633 539h-17v51q0 26 -18 26q-14 0 -18 -14q0 -1 -1 -4t-1 -4v-55h-15v53q0 24 -18 24
q-17 0 -21 -16q0 -1 -1 -3.5t-1 -4.5v-53h-14v65q0 17 -2 23h14l2 -15q8 17 27 17q21 0 24 -17h2q2 4 9 11q9 6 20 6q29 0 29 -37v-53zM784 592v-53h-16v51q0 26 -18 26q-16 0 -19 -14q-2 -2 -2 -8v-55h-16v53q0 24 -19 24q-14 0 -18 -16q-2 -2 -2 -8v-53h-15v65q0 17 -2 23
h15v-15h2q8 17 26 17t25 -17q1 1 4.5 5.5t5.5 5.5q9 6 21 6q28 0 28 -37zM881 588v-8h-62q0 -14 8.5 -21.5t20.5 -7.5t24 4l5 -12q-12 -4 -31 -4q-43 0 -43 43q0 21 11.5 34t29.5 13q19 0 28 -13t9 -28zM819 592h47q0 9 -5.5 17.5t-16.5 8.5t-18 -8.5t-7 -17.5zM901 600
q0 19 -2 27h14v-17h2q6 19 25 19h4v-15h-6q-17 0 -20 -20q0 -1 -1.5 -3.5t-1.5 -4.5v-47h-14v61zM1020 543q-8 -4 -25 -4q-43 0 -43 43q0 22 12.5 34.5t34.5 12.5q13 0 21 -4l-2 -13q-8 4 -19 4q-15 0 -23.5 -9t-8.5 -23q0 -15 9 -24t21 -9q13 0 21 4zM1047 662q10 0 10 -11
q0 -8 -10 -8q-11 0 -11 8q0 11 11 11zM1038 539v88h17v-88h-17zM1102 537q-13 0 -20 8t-7 18q0 33 51 33v2q0 20 -18 20q-11 0 -23 -8l-4 11q8 8 29 8q33 0 33 -35v-33q0 -16 2 -22h-15l-2 12q-14 -14 -26 -14zM1128 584q-38 0 -38 -19q0 -16 16 -16q15 0 20 14q0 1 1 3t1 3
v15zM1169 539v129h15v-129h-15zM1210 561l19 2q-7 -29 -19 -45h-10q6 15 10 43zM1286 539v120q20 5 31 5q22 0 33 -11q12 -9 12 -26t-10 -27q-12 -12 -37 -12h-12v-49h-17zM1303 649v-47q2 -2 12 -2q14 0 22.5 7.5t8.5 19.5q0 22 -29 22h-14zM1380 539v129h17v-129h-17z
M1489 543q-8 -4 -29 -4q-43 0 -43 43q0 21 11.5 34t29.5 13q19 0 28 -13t9 -28v-8h-61q0 -29 28 -29q13 0 25 4zM1458 618q-11 0 -17.5 -8.5t-6.5 -17.5h45q0 26 -21 26zM1577 539h-14v12h-2q-9 -14 -27 -14q-11 0 -19 8t-8 18q0 33 54 33v2q0 20 -21 20q-10 0 -22 -8l-5 11
q11 8 29 8q35 0 35 -35v-33v-22zM1561 569v15q-37 0 -37 -19q0 -16 14 -16t23 14v6zM1653 563q0 -11 -9 -17.5t-24 -6.5q-16 0 -25 6l4 10q12 -6 21 -6q18 0 18 14q0 7 -16 17q-25 6 -25 24q0 11 9 18t22 7q11 0 23 -4l-4 -13q-8 4 -19 4q-14 0 -14 -10q0 -11 16 -16
q23 -10 23 -27zM1745 588v-8h-62q0 -29 29 -29q13 0 25 4l2 -12q-8 -4 -29 -4q-43 0 -43 43q0 21 11.5 34t29.5 13q19 0 28 -13t9 -28zM1683 592h46q0 26 -21 26q-11 0 -18 -8.5t-7 -17.5zM1868 662h16l-43 -123h-18l-39 123h16l21 -60q10 -40 12 -47q12 41 14 47zM1903 662
q10 0 10 -11q0 -8 -10 -8q-11 0 -11 8q0 11 11 11zM1894 539v88h17v-88h-17zM1956 549q16 0 16 14q0 9 -16 17q-23 7 -23 24q0 11 9 18t22 7t21 -4l-5 -13q-4 4 -16 4q-16 0 -16 -10t16 -16q25 -9 25 -27q0 -11 -9 -17.5t-24 -6.5q-16 0 -25 6l4 10q12 -6 21 -6zM2017 662
q8 0 8 -11q0 -8 -10 -8q-8 0 -8 8q0 11 10 11zM2025 627v-88h-16v88h16zM2093 614h-22v-47q0 -16 12 -16h8l2 -10q-4 -2 -14 -2q-13 0 -19 6t-6 22v47h-12v13h12v22l17 4v-26h22v-13zM559 274h-35l2 21q-14 -25 -41 -25q-16 0 -27.5 13t-11.5 34q0 35 22.5 59.5t57.5 24.5
q11 0 17 -2l10 56h37l-25 -133q-6 -21 -6 -48zM502 301q22 0 28 35l7 33q-3 6 -15 6q-15 0 -26 -16t-11 -35q0 -23 17 -23zM655 436q0 -22 -22 -22q-17 0 -17 18q0 9 6 15t15 6q18 0 18 -17zM647 399l-24 -125h-37l24 125h37zM731 274l12 70q2 4 2 12q0 17 -12 17
q-10 0 -19 -12t-12 -31l-10 -56h-37l15 84q4 14 8 41h33l-4 -20h2q14 22 43 22q32 0 32 -32q0 -3 -1 -11.5t-1 -11.5l-14 -72h-37zM801 328l6 26h65l-4 -26h-67zM946 375q-16 0 -16 -10q0 -9 14 -15q29 -17 29 -35q0 -21 -16 -33t-42 -12q-23 0 -38 11l8 26q16 -8 33 -8
q16 0 16 10q0 9 -16 17q-25 11 -25 32q0 20 14.5 31.5t38.5 11.5t33 -6l-8 -26q-9 6 -25 6zM1047 371l-9 -43q-2 -4 -2 -15q0 -10 11 -10h10l-4 -29q-12 -4 -23 -4q-33 0 -33 27q0 4 1 12t1 13l11 49h-17l6 28h17l4 27l39 8l-8 -35h26l-4 -28h-26zM1190 274h-33l2 21
q-19 -25 -43 -25q-33 0 -33 35q0 15 2 25l15 69h37l-13 -67q-2 -6 -2 -17q0 -14 13 -14q21 0 30 41l11 57h36l-16 -84q-4 -29 -6 -41zM1335 274h-35l3 21q-14 -25 -41 -25q-16 0 -27.5 13t-11.5 34q0 35 22.5 59.5t57.5 24.5q10 0 16 -2l10 56h37l-25 -133q-6 -21 -6 -48z
M1278 301q23 0 29 35l6 33q-3 6 -15 6q-15 0 -25.5 -16t-10.5 -35q0 -23 16 -23zM1432 436q0 -10 -7 -16t-16 -6q-16 0 -16 18q0 21 20 21q8 0 13.5 -5t5.5 -12zM1423 399l-24 -125h-37l24 125h37zM1489 270q-25 0 -39 14.5t-14 39.5q0 33 20 55t53 22q25 0 39.5 -14.5
t14.5 -36.5q0 -34 -21 -57t-53 -23zM1505 375q-15 0 -23.5 -17t-8.5 -34q0 -25 20 -25q14 0 22.5 16t8.5 35q0 25 -19 25zM1591 270q-9 0 -14.5 7t-5.5 16q0 11 7 18.5t17 7.5t16.5 -6.5t6.5 -15.5q0 -11 -7.5 -19t-19.5 -8zM1722 373q-20 0 -31.5 -13.5t-11.5 -33.5
q0 -25 25 -25q13 0 25 4v-26q-18 -9 -35 -9q-23 0 -38.5 14.5t-15.5 37.5q0 34 23.5 56.5t58.5 22.5q17 0 25 -4l-8 -28q-8 4 -17 4zM1802 270q-24 0 -38.5 15t-14.5 39q0 33 21.5 55t54.5 22q24 0 38.5 -14.5t14.5 -36.5q0 -34 -22 -57t-54 -23zM1819 375
q-14 0 -22.5 -17.5t-8.5 -33.5q0 -25 20 -25q14 0 22.5 16t8.5 35q0 25 -20 25zM2036 274l12 68q0 3 1 8t1 8q0 15 -12 15q-21 0 -31 -43l-10 -56h-35l12 68q2 6 2 14q0 17 -12 17q-9 0 -18 -12t-13 -31l-10 -56h-35l17 84q3 20 6 41h31l-3 -20q16 22 43 22t31 -22
q14 22 43 22q14 0 22.5 -8.5t8.5 -23.5q0 -3 -1 -11.5t-1 -11.5l-14 -72h-35zM158 729q-69 3 -109.5 37t-38.5 82q0 37 15.5 52t33.5 15q28 0 37 -21.5t-6 -35.5q0 20 -20 24q-23 5 -33 -18q-4 -9 -4 -20q0 -41 34.5 -65.5t90.5 -24.5q116 0 116 172v6q0 23 -0.5 37t-4 39
t-10 39.5t-20 26t-32.5 11.5q-12 0 -14 -28v-78v-2v-129q0 -15 5 -22.5t10 -7.5l5 -1v-10h-111v10h5.5t9 6t6.5 17v2v221q0 33 -29 33q-9 0 -15.5 -5.5t-6.5 -11.5q0 -8 5 -11.5t10 -3.5l5 1q0 -33 -31 -33q-30 0 -30 31q0 23 20 36t43 13q20 -1 52 -8.5t61 -7.5
q139 0 139 -172q0 -49 -18 -92t-62 -74t-108 -29zM479 817v-10h-110v10q2 0 5 0.5t8.5 6.5t6.5 18v116q-1 11 -6 17.5t-9 6.5l-5 1v8l90 17v-160q0 -15 5 -22.5t10 -7.5zM426 1090q14 0 23.5 -10t9.5 -23t-9.5 -23t-23.5 -10t-23.5 10t-9.5 23t9.5 23t23.5 10zM592 983
q22 27 59 27q25 0 42.5 -16t17.5 -46v-100q0 -31 18 -31v-10h-108v10q2 0 4.5 0.5t7.5 6.5t6 18v112q0 22 -18 23q-20 2 -27 -18q-2 -5 -2 -11v-100q0 -15 5 -22.5t10 -7.5l5 -1v-10h-110v10q2 0 5 0.5t8.5 6.5t6.5 18v116q-1 11 -6 17.5t-10 6.5l-4 1v8l90 17v-25z
M924 1022q0 3 0.5 8t6 18.5t15.5 23.5t32.5 18t53.5 8q20 0 39 -5.5t25 -7.5t22 5q4 4 12 4v-74h-10q0 2 -1.5 6t-7.5 14t-14.5 17.5t-26.5 13.5t-40 6q-23 0 -38 -15.5t-14.5 -33t17.5 -24.5q8 -3 44.5 -13t59.5 -19t43.5 -33.5t18.5 -59.5q-2 -32 -32.5 -52t-88.5 -20
q-24 0 -43.5 2.5t-27.5 5t-14 1t-11 -8.5h-10v78h12q0 -25 29 -40.5t65 -15.5q37 0 52 17.5t4.5 38t-39.5 28.5q-2 1 -19.5 6t-23 7t-21.5 8.5t-22.5 11t-17.5 13t-16 17t-9 20.5t-4 26zM1284 999h-4.5t-7.5 -5.5t-6 -16.5l-2 -135q1 -12 6 -18t10 -6l4 -1v-10h-29
q-13 0 -20.5 1t-18.5 5.5t-16.5 17t-5.5 31.5v113q-1 12 -6 18t-10 6h-4v11q29 0 54.5 11t37.5 11v-22h18v-11zM1303 999v11h106v-11h-4.5t-7 -6t-4.5 -18v-107q0 -22 11.5 -27.5t23.5 4t12 23.5v103q0 14 -4 21t-8 7h-3v11h105v-11h-5t-8.5 -6t-7.5 -18v-133q2 -12 7 -18
t10 -6l4 -1v-10h-49q-16 0 -28.5 11.5t-12.5 21.5q-16 -33 -51 -33q-26 0 -47 16t-21 45v103q0 13 -4 20t-7 7.5t-7 0.5zM1831 762q0 -33 -39 -33q-18 0 -38.5 4.5t-45.5 25t-31 54.5q-15 -6 -32 -6q-41 0 -70 29.5t-29 72.5q0 41 29 71t70 30q14 0 30 -4v92l90 -19v-8
q-2 0 -4.5 -0.5t-7.5 -6.5t-6 -17v-213q3 -86 47 -89q-6 6 -6 17q0 8 6.5 14t15.5 6q8 0 14.5 -6.5t6.5 -13.5zM1645 821q30 0 30 88q0 44 -6 66t-24 22q-31 0 -31 -88t31 -88zM1886 817v-10h-108v10q2 0 5 0.5t8.5 6.5t6.5 18v116q-1 11 -6 17.5t-10 6.5l-4 1v8l90 17v-160
q0 -15 4.5 -22.5t9.5 -7.5zM1802 1057q0 13 10 23t23 10q12 0 22.5 -10t10.5 -23t-10.5 -23t-22.5 -10q-13 0 -23 10t-10 23zM2087 907q0 -41 -28.5 -70.5t-69.5 -29.5t-71 29.5t-30 70.5q0 43 30 73t71 30t69.5 -30t28.5 -73zM1989 823q18 0 24 22t6 64t-6 64t-24 22
q-31 0 -31 -86t31 -86zM25 299v51h376v-51h-376zM1081 1403h-227l174 219h227zM2091 1403h-215l174 219h41v-219zM399 1403h-227l174 219h227zM1421 1403h-227l174 219h227zM233 1622l-174 -219h-34v219h208zM741 1403h-229l174 219h227zM1763 1403h-227l172 219h229z
M1028 209h227l-174 -219h-227zM1876 -10l174 219h41v-219h-215zM346 209h227l-174 -219h-227zM1368 209h227l-174 -219h-227zM25 209h208l-174 -219h-34v219zM686 209h227l-172 -219h-229zM1708 209h229l-174 -219h-227z" />
    <glyph glyph-name="quotesingle" unicode="'" horiz-adv-x="155" 
d="M45 1495q10 -4 11 -12.5t-3 -15.5l-4 -7q5 3 13 8t22 20t16 30v112h-100v-94q1 -21 12 -30t33 -11z" />
    <glyph glyph-name="parenleft" unicode="(" horiz-adv-x="659" 
d="M606 1630q-167 -21 -305 -133.5t-217.5 -291t-79.5 -384.5t79.5 -384t217.5 -290.5t305 -134.5v27q-117 28 -212 138t-149.5 280t-54.5 366q0 195 54.5 365t149.5 280.5t212 137.5v24z" />
    <glyph glyph-name="parenright" unicode=")" horiz-adv-x="702" 
d="M4 1630v-24q117 -27 212.5 -137t150.5 -280.5t55 -365.5q0 -297 -120 -519t-298 -265v-27q167 22 305 134.5t217.5 290.5t79.5 384t-79.5 384.5t-217.5 291t-305 133.5z" />
    <glyph glyph-name="plus" unicode="+" horiz-adv-x="471" 
d="M174 862h-141q-12 0 -20.5 9.5t-8.5 23.5v-156q0 14 9 23.5t22 9.5h139v-141q-1 -12 -11 -19.5t-22 -7.5h156q-14 0 -23.5 8.5t-9.5 20.5v139h137q13 0 22 -9.5t9 -23.5v156q0 -14 -8.5 -23.5t-20.5 -9.5h-139v137q0 13 9.5 22t23.5 9h-156q12 0 22 -8t11 -21v-139z" />
    <glyph glyph-name="comma" unicode="," horiz-adv-x="2150" 
d="M57 1249l-10 -53h-31l27 143q20 4 39 4q24 0 37 -10q16 -10 16 -30q0 -28 -20 -41q-15 -15 -45 -15q-4 0 -8 1t-5 1zM70 1317l-9 -43h13q13 0 21.5 6.5t8.5 17.5q0 19 -22 19h-12zM246 1315h-56l-6 -31h54l-7 -27h-51l-6 -34h57l-4 -27h-90l29 145h86zM291 1253l-10 -57
h-31l26 143q20 4 39 4q27 0 37 -10q17 -7 17 -26q0 -30 -33 -41v-2q11 -5 14 -27q5 -39 6 -41h-32q0 2 -1 6.5t-2 12.5l-2 16q-2 22 -20 22h-8zM303 1317l-8 -39h12q31 0 31 22q0 19 -23 19q-3 0 -7 -1t-5 -1zM416 1221q22 0 22 16q0 11 -20 20q-29 17 -29 39q0 21 16 34
t41 13q15 0 33 -6l-8 -26q-18 6 -29 6q-20 0 -20 -14q0 -11 20 -21q29 -16 29 -39q0 -24 -16.5 -36.5t-42.5 -12.5t-41 10l10 27q13 -10 35 -10zM569 1343q27 0 42.5 -16t15.5 -43q0 -45 -25 -70q-23 -20 -53 -20q-28 0 -44 17t-16 44q0 41 27 68q20 20 53 20zM578 1231
q16 16 16 51q0 37 -29 37q-15 0 -24 -12q-19 -16 -19 -52q0 -34 31 -34q12 0 25 10zM674 1247l-10 -51h-29l27 145h36l19 -55q7 -21 14 -49q1 4 2.5 21.5t3.5 29.5l11 53h28l-26 -145h-33l-21 57q-10 33 -12 52h-2l-3 -22q-3 -22 -5 -36zM817 1235l-16 -39h-33l70 145h41
l16 -145h-33l-2 39h-43zM842 1288l-15 -31h31l-2 31q0 4 -1 14.5t-1 14.5q-2 -4 -6 -14.5t-6 -14.5zM938 1341h31l-21 -118h56l-7 -27h-86zM1114 1341l-16 -84q-2 -4 -2 -16q0 -20 22 -20q26 0 31 36l16 84h31l-16 -81q-6 -34 -21.5 -50t-44.5 -16q-49 0 -49 47q0 13 2 21
l16 79h31zM1237 1221q23 0 23 16q0 11 -21 20q-29 17 -29 39q0 21 16.5 34t41.5 13q14 0 32 -6l-8 -26q-18 6 -28 6q-21 0 -21 -14q0 -11 21 -21q28 -16 28 -39q0 -24 -16.5 -36.5t-42.5 -12.5t-41 10l10 27q13 -10 35 -10zM1413 1315h-53l-6 -31h51l-4 -27h-53l-7 -34h58
l-4 -27h-88l26 145h86zM1575 1214q-20 -20 -53 -20q-27 0 -43.5 17t-16.5 44q0 41 27 68q23 20 53 20q29 0 44.5 -16t15.5 -43q0 -43 -27 -70zM1495 1255q0 -34 31 -34q14 0 24 10q19 16 19 51q0 37 -31 37q-16 0 -25 -12q-18 -18 -18 -52zM1657 1305q0 -3 -10 -58l-11 -51
h-28l28 145h37l19 -55q9 -28 12 -49h2q0 21 6 51l10 53h29l-29 -145h-30l-21 57q-9 31 -14 52zM1780 1341h30l-22 -118h55l-4 -27h-88zM1907 1255l-13 -59h-30l12 59l-29 86h33l10 -36q4 -24 4 -27h2q6 12 15 27l20 36h37zM1997 1212q0 8 5.5 14.5t14.5 6.5q7 0 13 -5.5
t6 -13.5q0 -20 -21 -20q-7 0 -12.5 5t-5.5 13zM2056 1341l-22 -98h-25l14 98h33zM92 649h-51v-41h47v-14h-47v-55h-14v123h65v-13zM186 584q0 -23 -13 -35t-30 -12q-18 0 -29.5 13t-11.5 34t12 33t31 12t30 -12.5t11 -32.5zM117 584q0 -15 7.5 -25t18.5 -10q12 0 19.5 10
t7.5 25q0 12 -6.5 22t-18.5 10q-28 0 -28 -32zM223 539h-16v61v27h14v-17q6 19 25 19h4v-15h-4q-20 0 -23 -20v-8v-47zM299 600q0 28 17 46t46 18q15 0 29 -7l-4 -12q-9 6 -25 6q-47 0 -47 -51q0 -49 47 -49q16 0 25 6l4 -14q-12 -4 -33 -4q-27 0 -43 15.5t-16 45.5z
M444 537q-19 0 -31 13t-12 34t12.5 33t30.5 12q20 0 31.5 -12.5t11.5 -32.5q0 -23 -13 -35t-30 -12zM444 616q-26 0 -26 -32q0 -15 7 -25t19 -10q11 0 19 10t8 25q0 12 -7 22t-20 10zM633 539h-17v51q0 26 -18 26q-14 0 -18 -14q0 -1 -1 -4t-1 -4v-55h-15v53q0 24 -18 24
q-17 0 -21 -16q0 -1 -1 -3.5t-1 -4.5v-53h-14v65q0 17 -2 23h14l2 -15q8 17 27 17q21 0 24 -17h2q2 4 9 11q9 6 20 6q29 0 29 -37v-53zM784 592v-53h-16v51q0 26 -18 26q-16 0 -19 -14q-2 -2 -2 -8v-55h-16v53q0 24 -19 24q-14 0 -18 -16q-2 -2 -2 -8v-53h-15v65q0 17 -2 23
h15v-15h2q8 17 26 17t25 -17q1 1 4.5 5.5t5.5 5.5q9 6 21 6q28 0 28 -37zM881 588v-8h-62q0 -14 8.5 -21.5t20.5 -7.5t24 4l5 -12q-12 -4 -31 -4q-43 0 -43 43q0 21 11.5 34t29.5 13q19 0 28 -13t9 -28zM819 592h47q0 9 -5.5 17.5t-16.5 8.5t-18 -8.5t-7 -17.5zM901 600
q0 19 -2 27h14v-17h2q6 19 25 19h4v-15h-6q-17 0 -20 -20q0 -1 -1.5 -3.5t-1.5 -4.5v-47h-14v61zM1020 543q-8 -4 -25 -4q-43 0 -43 43q0 22 12.5 34.5t34.5 12.5q13 0 21 -4l-2 -13q-8 4 -19 4q-15 0 -23.5 -9t-8.5 -23q0 -15 9 -24t21 -9q13 0 21 4zM1047 662q10 0 10 -11
q0 -8 -10 -8q-11 0 -11 8q0 11 11 11zM1038 539v88h17v-88h-17zM1102 537q-13 0 -20 8t-7 18q0 33 51 33v2q0 20 -18 20q-11 0 -23 -8l-4 11q8 8 29 8q33 0 33 -35v-33q0 -16 2 -22h-15l-2 12q-14 -14 -26 -14zM1128 584q-38 0 -38 -19q0 -16 16 -16q15 0 20 14q0 1 1 3t1 3
v15zM1169 539v129h15v-129h-15zM1210 561l19 2q-7 -29 -19 -45h-10q6 15 10 43zM1286 539v120q20 5 31 5q22 0 33 -11q12 -9 12 -26t-10 -27q-12 -12 -37 -12h-12v-49h-17zM1303 649v-47q2 -2 12 -2q14 0 22.5 7.5t8.5 19.5q0 22 -29 22h-14zM1380 539v129h17v-129h-17z
M1489 543q-8 -4 -29 -4q-43 0 -43 43q0 21 11.5 34t29.5 13q19 0 28 -13t9 -28v-8h-61q0 -29 28 -29q13 0 25 4zM1458 618q-11 0 -17.5 -8.5t-6.5 -17.5h45q0 26 -21 26zM1577 539h-14v12h-2q-9 -14 -27 -14q-11 0 -19 8t-8 18q0 33 54 33v2q0 20 -21 20q-10 0 -22 -8l-5 11
q11 8 29 8q35 0 35 -35v-33v-22zM1561 569v15q-37 0 -37 -19q0 -16 14 -16t23 14v6zM1653 563q0 -11 -9 -17.5t-24 -6.5q-16 0 -25 6l4 10q12 -6 21 -6q18 0 18 14q0 7 -16 17q-25 6 -25 24q0 11 9 18t22 7q11 0 23 -4l-4 -13q-8 4 -19 4q-14 0 -14 -10q0 -11 16 -16
q23 -10 23 -27zM1745 588v-8h-62q0 -29 29 -29q13 0 25 4l2 -12q-8 -4 -29 -4q-43 0 -43 43q0 21 11.5 34t29.5 13q19 0 28 -13t9 -28zM1683 592h46q0 26 -21 26q-11 0 -18 -8.5t-7 -17.5zM1868 662h16l-43 -123h-18l-39 123h16l21 -60q10 -40 12 -47q12 41 14 47zM1903 662
q10 0 10 -11q0 -8 -10 -8q-11 0 -11 8q0 11 11 11zM1894 539v88h17v-88h-17zM1956 549q16 0 16 14q0 9 -16 17q-23 7 -23 24q0 11 9 18t22 7t21 -4l-5 -13q-4 4 -16 4q-16 0 -16 -10t16 -16q25 -9 25 -27q0 -11 -9 -17.5t-24 -6.5q-16 0 -25 6l4 10q12 -6 21 -6zM2017 662
q8 0 8 -11q0 -8 -10 -8q-8 0 -8 8q0 11 10 11zM2025 627v-88h-16v88h16zM2093 614h-22v-47q0 -16 12 -16h8l2 -10q-4 -2 -14 -2q-13 0 -19 6t-6 22v47h-12v13h12v22l17 4v-26h22v-13zM559 274h-35l2 21q-14 -25 -41 -25q-16 0 -27.5 13t-11.5 34q0 35 22.5 59.5t57.5 24.5
q11 0 17 -2l10 56h37l-25 -133q-6 -21 -6 -48zM502 301q22 0 28 35l7 33q-3 6 -15 6q-15 0 -26 -16t-11 -35q0 -23 17 -23zM655 436q0 -22 -22 -22q-17 0 -17 18q0 9 6 15t15 6q18 0 18 -17zM647 399l-24 -125h-37l24 125h37zM731 274l12 70q2 4 2 12q0 17 -12 17
q-10 0 -19 -12t-12 -31l-10 -56h-37l15 84q4 14 8 41h33l-4 -20h2q14 22 43 22q32 0 32 -32q0 -3 -1 -11.5t-1 -11.5l-14 -72h-37zM801 328l6 26h65l-4 -26h-67zM946 375q-16 0 -16 -10q0 -9 14 -15q29 -17 29 -35q0 -21 -16 -33t-42 -12q-23 0 -38 11l8 26q16 -8 33 -8
q16 0 16 10q0 9 -16 17q-25 11 -25 32q0 20 14.5 31.5t38.5 11.5t33 -6l-8 -26q-9 6 -25 6zM1047 371l-9 -43q-2 -4 -2 -15q0 -10 11 -10h10l-4 -29q-12 -4 -23 -4q-33 0 -33 27q0 4 1 12t1 13l11 49h-17l6 28h17l4 27l39 8l-8 -35h26l-4 -28h-26zM1190 274h-33l2 21
q-19 -25 -43 -25q-33 0 -33 35q0 15 2 25l15 69h37l-13 -67q-2 -6 -2 -17q0 -14 13 -14q21 0 30 41l11 57h36l-16 -84q-4 -29 -6 -41zM1335 274h-35l3 21q-14 -25 -41 -25q-16 0 -27.5 13t-11.5 34q0 35 22.5 59.5t57.5 24.5q10 0 16 -2l10 56h37l-25 -133q-6 -21 -6 -48z
M1278 301q23 0 29 35l6 33q-3 6 -15 6q-15 0 -25.5 -16t-10.5 -35q0 -23 16 -23zM1432 436q0 -10 -7 -16t-16 -6q-16 0 -16 18q0 21 20 21q8 0 13.5 -5t5.5 -12zM1423 399l-24 -125h-37l24 125h37zM1489 270q-25 0 -39 14.5t-14 39.5q0 33 20 55t53 22q25 0 39.5 -14.5
t14.5 -36.5q0 -34 -21 -57t-53 -23zM1505 375q-15 0 -23.5 -17t-8.5 -34q0 -25 20 -25q14 0 22.5 16t8.5 35q0 25 -19 25zM1591 270q-9 0 -14.5 7t-5.5 16q0 11 7 18.5t17 7.5t16.5 -6.5t6.5 -15.5q0 -11 -7.5 -19t-19.5 -8zM1722 373q-20 0 -31.5 -13.5t-11.5 -33.5
q0 -25 25 -25q13 0 25 4v-26q-18 -9 -35 -9q-23 0 -38.5 14.5t-15.5 37.5q0 34 23.5 56.5t58.5 22.5q17 0 25 -4l-8 -28q-8 4 -17 4zM1802 270q-24 0 -38.5 15t-14.5 39q0 33 21.5 55t54.5 22q24 0 38.5 -14.5t14.5 -36.5q0 -34 -22 -57t-54 -23zM1819 375
q-14 0 -22.5 -17.5t-8.5 -33.5q0 -25 20 -25q14 0 22.5 16t8.5 35q0 25 -20 25zM2036 274l12 68q0 3 1 8t1 8q0 15 -12 15q-21 0 -31 -43l-10 -56h-35l12 68q2 6 2 14q0 17 -12 17q-9 0 -18 -12t-13 -31l-10 -56h-35l17 84q3 20 6 41h31l-3 -20q16 22 43 22t31 -22
q14 22 43 22q14 0 22.5 -8.5t8.5 -23.5q0 -3 -1 -11.5t-1 -11.5l-14 -72h-35zM158 729q-69 3 -109.5 37t-38.5 82q0 37 15.5 52t33.5 15q28 0 37 -21.5t-6 -35.5q0 20 -20 24q-23 5 -33 -18q-4 -9 -4 -20q0 -41 34.5 -65.5t90.5 -24.5q116 0 116 172v6q0 23 -0.5 37t-4 39
t-10 39.5t-20 26t-32.5 11.5q-12 0 -14 -28v-78v-2v-129q0 -15 5 -22.5t10 -7.5l5 -1v-10h-111v10h5.5t9 6t6.5 17v2v221q0 33 -29 33q-9 0 -15.5 -5.5t-6.5 -11.5q0 -8 5 -11.5t10 -3.5l5 1q0 -33 -31 -33q-30 0 -30 31q0 23 20 36t43 13q20 -1 52 -8.5t61 -7.5
q139 0 139 -172q0 -49 -18 -92t-62 -74t-108 -29zM479 817v-10h-110v10q2 0 5 0.5t8.5 6.5t6.5 18v116q-1 11 -6 17.5t-9 6.5l-5 1v8l90 17v-160q0 -15 5 -22.5t10 -7.5zM426 1090q14 0 23.5 -10t9.5 -23t-9.5 -23t-23.5 -10t-23.5 10t-9.5 23t9.5 23t23.5 10zM592 983
q22 27 59 27q25 0 42.5 -16t17.5 -46v-100q0 -31 18 -31v-10h-108v10q2 0 4.5 0.5t7.5 6.5t6 18v112q0 22 -18 23q-20 2 -27 -18q-2 -5 -2 -11v-100q0 -15 5 -22.5t10 -7.5l5 -1v-10h-110v10q2 0 5 0.5t8.5 6.5t6.5 18v116q-1 11 -6 17.5t-10 6.5l-4 1v8l90 17v-25z
M924 1022q0 3 0.5 8t6 18.5t15.5 23.5t32.5 18t53.5 8q20 0 39 -5.5t25 -7.5t22 5q4 4 12 4v-74h-10q0 2 -1.5 6t-7.5 14t-14.5 17.5t-26.5 13.5t-40 6q-23 0 -38 -15.5t-14.5 -33t17.5 -24.5q8 -3 44.5 -13t59.5 -19t43.5 -33.5t18.5 -59.5q-2 -32 -32.5 -52t-88.5 -20
q-24 0 -43.5 2.5t-27.5 5t-14 1t-11 -8.5h-10v78h12q0 -25 29 -40.5t65 -15.5q37 0 52 17.5t4.5 38t-39.5 28.5q-2 1 -19.5 6t-23 7t-21.5 8.5t-22.5 11t-17.5 13t-16 17t-9 20.5t-4 26zM1284 999h-4.5t-7.5 -5.5t-6 -16.5l-2 -135q1 -12 6 -18t10 -6l4 -1v-10h-29
q-13 0 -20.5 1t-18.5 5.5t-16.5 17t-5.5 31.5v113q-1 12 -6 18t-10 6h-4v11q29 0 54.5 11t37.5 11v-22h18v-11zM1303 999v11h106v-11h-4.5t-7 -6t-4.5 -18v-107q0 -22 11.5 -27.5t23.5 4t12 23.5v103q0 14 -4 21t-8 7h-3v11h105v-11h-5t-8.5 -6t-7.5 -18v-133q2 -12 7 -18
t10 -6l4 -1v-10h-49q-16 0 -28.5 11.5t-12.5 21.5q-16 -33 -51 -33q-26 0 -47 16t-21 45v103q0 13 -4 20t-7 7.5t-7 0.5zM1831 762q0 -33 -39 -33q-18 0 -38.5 4.5t-45.5 25t-31 54.5q-15 -6 -32 -6q-41 0 -70 29.5t-29 72.5q0 41 29 71t70 30q14 0 30 -4v92l90 -19v-8
q-2 0 -4.5 -0.5t-7.5 -6.5t-6 -17v-213q3 -86 47 -89q-6 6 -6 17q0 8 6.5 14t15.5 6q8 0 14.5 -6.5t6.5 -13.5zM1645 821q30 0 30 88q0 44 -6 66t-24 22q-31 0 -31 -88t31 -88zM1886 817v-10h-108v10q2 0 5 0.5t8.5 6.5t6.5 18v116q-1 11 -6 17.5t-10 6.5l-4 1v8l90 17v-160
q0 -15 4.5 -22.5t9.5 -7.5zM1802 1057q0 13 10 23t23 10q12 0 22.5 -10t10.5 -23t-10.5 -23t-22.5 -10q-13 0 -23 10t-10 23zM2087 907q0 -41 -28.5 -70.5t-69.5 -29.5t-71 29.5t-30 70.5q0 43 30 73t71 30t69.5 -30t28.5 -73zM1989 823q18 0 24 22t6 64t-6 64t-24 22
q-31 0 -31 -86t31 -86zM25 299v51h376v-51h-376zM1081 1403h-227l174 219h227zM2091 1403h-215l174 219h41v-219zM399 1403h-227l174 219h227zM1421 1403h-227l174 219h227zM233 1622l-174 -219h-34v219h208zM741 1403h-229l174 219h227zM1763 1403h-227l172 219h229z
M1028 209h227l-174 -219h-227zM1876 -10l174 219h41v-219h-215zM346 209h227l-174 -219h-227zM1368 209h227l-174 -219h-227zM25 209h208l-174 -219h-34v219zM686 209h227l-172 -219h-229zM1708 209h229l-174 -219h-227z" />
    <glyph glyph-name="hyphenminus" unicode="-" horiz-adv-x="475" 
d="M432 895q0 -14 -8.5 -23.5t-20.5 -9.5h-370q-12 0 -20.5 9.5t-8.5 23.5v-156q0 14 9 23.5t22 9.5h366q13 0 22 -9.5t9 -23.5v156z" />
    <glyph glyph-name="hyphenminus" unicode="&#xad;" horiz-adv-x="475" 
d="M432 895q0 -14 -8.5 -23.5t-20.5 -9.5h-370q-12 0 -20.5 9.5t-8.5 23.5v-156q0 14 9 23.5t22 9.5h366q13 0 22 -9.5t9 -23.5v156z" />
    <glyph glyph-name="period" unicode="." horiz-adv-x="2150" 
d="M57 1249l-10 -53h-31l27 143q20 4 39 4q24 0 37 -10q16 -10 16 -30q0 -28 -20 -41q-15 -15 -45 -15q-4 0 -8 1t-5 1zM70 1317l-9 -43h13q13 0 21.5 6.5t8.5 17.5q0 19 -22 19h-12zM246 1315h-56l-6 -31h54l-7 -27h-51l-6 -34h57l-4 -27h-90l29 145h86zM291 1253l-10 -57
h-31l26 143q20 4 39 4q27 0 37 -10q17 -7 17 -26q0 -30 -33 -41v-2q11 -5 14 -27q5 -39 6 -41h-32q0 2 -1 6.5t-2 12.5l-2 16q-2 22 -20 22h-8zM303 1317l-8 -39h12q31 0 31 22q0 19 -23 19q-3 0 -7 -1t-5 -1zM416 1221q22 0 22 16q0 11 -20 20q-29 17 -29 39q0 21 16 34
t41 13q15 0 33 -6l-8 -26q-18 6 -29 6q-20 0 -20 -14q0 -11 20 -21q29 -16 29 -39q0 -24 -16.5 -36.5t-42.5 -12.5t-41 10l10 27q13 -10 35 -10zM569 1343q27 0 42.5 -16t15.5 -43q0 -45 -25 -70q-23 -20 -53 -20q-28 0 -44 17t-16 44q0 41 27 68q20 20 53 20zM578 1231
q16 16 16 51q0 37 -29 37q-15 0 -24 -12q-19 -16 -19 -52q0 -34 31 -34q12 0 25 10zM674 1247l-10 -51h-29l27 145h36l19 -55q7 -21 14 -49q1 4 2.5 21.5t3.5 29.5l11 53h28l-26 -145h-33l-21 57q-10 33 -12 52h-2l-3 -22q-3 -22 -5 -36zM817 1235l-16 -39h-33l70 145h41
l16 -145h-33l-2 39h-43zM842 1288l-15 -31h31l-2 31q0 4 -1 14.5t-1 14.5q-2 -4 -6 -14.5t-6 -14.5zM938 1341h31l-21 -118h56l-7 -27h-86zM1114 1341l-16 -84q-2 -4 -2 -16q0 -20 22 -20q26 0 31 36l16 84h31l-16 -81q-6 -34 -21.5 -50t-44.5 -16q-49 0 -49 47q0 13 2 21
l16 79h31zM1237 1221q23 0 23 16q0 11 -21 20q-29 17 -29 39q0 21 16.5 34t41.5 13q14 0 32 -6l-8 -26q-18 6 -28 6q-21 0 -21 -14q0 -11 21 -21q28 -16 28 -39q0 -24 -16.5 -36.5t-42.5 -12.5t-41 10l10 27q13 -10 35 -10zM1413 1315h-53l-6 -31h51l-4 -27h-53l-7 -34h58
l-4 -27h-88l26 145h86zM1575 1214q-20 -20 -53 -20q-27 0 -43.5 17t-16.5 44q0 41 27 68q23 20 53 20q29 0 44.5 -16t15.5 -43q0 -43 -27 -70zM1495 1255q0 -34 31 -34q14 0 24 10q19 16 19 51q0 37 -31 37q-16 0 -25 -12q-18 -18 -18 -52zM1657 1305q0 -3 -10 -58l-11 -51
h-28l28 145h37l19 -55q9 -28 12 -49h2q0 21 6 51l10 53h29l-29 -145h-30l-21 57q-9 31 -14 52zM1780 1341h30l-22 -118h55l-4 -27h-88zM1907 1255l-13 -59h-30l12 59l-29 86h33l10 -36q4 -24 4 -27h2q6 12 15 27l20 36h37zM1997 1212q0 8 5.5 14.5t14.5 6.5q7 0 13 -5.5
t6 -13.5q0 -20 -21 -20q-7 0 -12.5 5t-5.5 13zM2056 1341l-22 -98h-25l14 98h33zM92 649h-51v-41h47v-14h-47v-55h-14v123h65v-13zM186 584q0 -23 -13 -35t-30 -12q-18 0 -29.5 13t-11.5 34t12 33t31 12t30 -12.5t11 -32.5zM117 584q0 -15 7.5 -25t18.5 -10q12 0 19.5 10
t7.5 25q0 12 -6.5 22t-18.5 10q-28 0 -28 -32zM223 539h-16v61v27h14v-17q6 19 25 19h4v-15h-4q-20 0 -23 -20v-8v-47zM299 600q0 28 17 46t46 18q15 0 29 -7l-4 -12q-9 6 -25 6q-47 0 -47 -51q0 -49 47 -49q16 0 25 6l4 -14q-12 -4 -33 -4q-27 0 -43 15.5t-16 45.5z
M444 537q-19 0 -31 13t-12 34t12.5 33t30.5 12q20 0 31.5 -12.5t11.5 -32.5q0 -23 -13 -35t-30 -12zM444 616q-26 0 -26 -32q0 -15 7 -25t19 -10q11 0 19 10t8 25q0 12 -7 22t-20 10zM633 539h-17v51q0 26 -18 26q-14 0 -18 -14q0 -1 -1 -4t-1 -4v-55h-15v53q0 24 -18 24
q-17 0 -21 -16q0 -1 -1 -3.5t-1 -4.5v-53h-14v65q0 17 -2 23h14l2 -15q8 17 27 17q21 0 24 -17h2q2 4 9 11q9 6 20 6q29 0 29 -37v-53zM784 592v-53h-16v51q0 26 -18 26q-16 0 -19 -14q-2 -2 -2 -8v-55h-16v53q0 24 -19 24q-14 0 -18 -16q-2 -2 -2 -8v-53h-15v65q0 17 -2 23
h15v-15h2q8 17 26 17t25 -17q1 1 4.5 5.5t5.5 5.5q9 6 21 6q28 0 28 -37zM881 588v-8h-62q0 -14 8.5 -21.5t20.5 -7.5t24 4l5 -12q-12 -4 -31 -4q-43 0 -43 43q0 21 11.5 34t29.5 13q19 0 28 -13t9 -28zM819 592h47q0 9 -5.5 17.5t-16.5 8.5t-18 -8.5t-7 -17.5zM901 600
q0 19 -2 27h14v-17h2q6 19 25 19h4v-15h-6q-17 0 -20 -20q0 -1 -1.5 -3.5t-1.5 -4.5v-47h-14v61zM1020 543q-8 -4 -25 -4q-43 0 -43 43q0 22 12.5 34.5t34.5 12.5q13 0 21 -4l-2 -13q-8 4 -19 4q-15 0 -23.5 -9t-8.5 -23q0 -15 9 -24t21 -9q13 0 21 4zM1047 662q10 0 10 -11
q0 -8 -10 -8q-11 0 -11 8q0 11 11 11zM1038 539v88h17v-88h-17zM1102 537q-13 0 -20 8t-7 18q0 33 51 33v2q0 20 -18 20q-11 0 -23 -8l-4 11q8 8 29 8q33 0 33 -35v-33q0 -16 2 -22h-15l-2 12q-14 -14 -26 -14zM1128 584q-38 0 -38 -19q0 -16 16 -16q15 0 20 14q0 1 1 3t1 3
v15zM1169 539v129h15v-129h-15zM1210 561l19 2q-7 -29 -19 -45h-10q6 15 10 43zM1286 539v120q20 5 31 5q22 0 33 -11q12 -9 12 -26t-10 -27q-12 -12 -37 -12h-12v-49h-17zM1303 649v-47q2 -2 12 -2q14 0 22.5 7.5t8.5 19.5q0 22 -29 22h-14zM1380 539v129h17v-129h-17z
M1489 543q-8 -4 -29 -4q-43 0 -43 43q0 21 11.5 34t29.5 13q19 0 28 -13t9 -28v-8h-61q0 -29 28 -29q13 0 25 4zM1458 618q-11 0 -17.5 -8.5t-6.5 -17.5h45q0 26 -21 26zM1577 539h-14v12h-2q-9 -14 -27 -14q-11 0 -19 8t-8 18q0 33 54 33v2q0 20 -21 20q-10 0 -22 -8l-5 11
q11 8 29 8q35 0 35 -35v-33v-22zM1561 569v15q-37 0 -37 -19q0 -16 14 -16t23 14v6zM1653 563q0 -11 -9 -17.5t-24 -6.5q-16 0 -25 6l4 10q12 -6 21 -6q18 0 18 14q0 7 -16 17q-25 6 -25 24q0 11 9 18t22 7q11 0 23 -4l-4 -13q-8 4 -19 4q-14 0 -14 -10q0 -11 16 -16
q23 -10 23 -27zM1745 588v-8h-62q0 -29 29 -29q13 0 25 4l2 -12q-8 -4 -29 -4q-43 0 -43 43q0 21 11.5 34t29.5 13q19 0 28 -13t9 -28zM1683 592h46q0 26 -21 26q-11 0 -18 -8.5t-7 -17.5zM1868 662h16l-43 -123h-18l-39 123h16l21 -60q10 -40 12 -47q12 41 14 47zM1903 662
q10 0 10 -11q0 -8 -10 -8q-11 0 -11 8q0 11 11 11zM1894 539v88h17v-88h-17zM1956 549q16 0 16 14q0 9 -16 17q-23 7 -23 24q0 11 9 18t22 7t21 -4l-5 -13q-4 4 -16 4q-16 0 -16 -10t16 -16q25 -9 25 -27q0 -11 -9 -17.5t-24 -6.5q-16 0 -25 6l4 10q12 -6 21 -6zM2017 662
q8 0 8 -11q0 -8 -10 -8q-8 0 -8 8q0 11 10 11zM2025 627v-88h-16v88h16zM2093 614h-22v-47q0 -16 12 -16h8l2 -10q-4 -2 -14 -2q-13 0 -19 6t-6 22v47h-12v13h12v22l17 4v-26h22v-13zM559 274h-35l2 21q-14 -25 -41 -25q-16 0 -27.5 13t-11.5 34q0 35 22.5 59.5t57.5 24.5
q11 0 17 -2l10 56h37l-25 -133q-6 -21 -6 -48zM502 301q22 0 28 35l7 33q-3 6 -15 6q-15 0 -26 -16t-11 -35q0 -23 17 -23zM655 436q0 -22 -22 -22q-17 0 -17 18q0 9 6 15t15 6q18 0 18 -17zM647 399l-24 -125h-37l24 125h37zM731 274l12 70q2 4 2 12q0 17 -12 17
q-10 0 -19 -12t-12 -31l-10 -56h-37l15 84q4 14 8 41h33l-4 -20h2q14 22 43 22q32 0 32 -32q0 -3 -1 -11.5t-1 -11.5l-14 -72h-37zM801 328l6 26h65l-4 -26h-67zM946 375q-16 0 -16 -10q0 -9 14 -15q29 -17 29 -35q0 -21 -16 -33t-42 -12q-23 0 -38 11l8 26q16 -8 33 -8
q16 0 16 10q0 9 -16 17q-25 11 -25 32q0 20 14.5 31.5t38.5 11.5t33 -6l-8 -26q-9 6 -25 6zM1047 371l-9 -43q-2 -4 -2 -15q0 -10 11 -10h10l-4 -29q-12 -4 -23 -4q-33 0 -33 27q0 4 1 12t1 13l11 49h-17l6 28h17l4 27l39 8l-8 -35h26l-4 -28h-26zM1190 274h-33l2 21
q-19 -25 -43 -25q-33 0 -33 35q0 15 2 25l15 69h37l-13 -67q-2 -6 -2 -17q0 -14 13 -14q21 0 30 41l11 57h36l-16 -84q-4 -29 -6 -41zM1335 274h-35l3 21q-14 -25 -41 -25q-16 0 -27.5 13t-11.5 34q0 35 22.5 59.5t57.5 24.5q10 0 16 -2l10 56h37l-25 -133q-6 -21 -6 -48z
M1278 301q23 0 29 35l6 33q-3 6 -15 6q-15 0 -25.5 -16t-10.5 -35q0 -23 16 -23zM1432 436q0 -10 -7 -16t-16 -6q-16 0 -16 18q0 21 20 21q8 0 13.5 -5t5.5 -12zM1423 399l-24 -125h-37l24 125h37zM1489 270q-25 0 -39 14.5t-14 39.5q0 33 20 55t53 22q25 0 39.5 -14.5
t14.5 -36.5q0 -34 -21 -57t-53 -23zM1505 375q-15 0 -23.5 -17t-8.5 -34q0 -25 20 -25q14 0 22.5 16t8.5 35q0 25 -19 25zM1591 270q-9 0 -14.5 7t-5.5 16q0 11 7 18.5t17 7.5t16.5 -6.5t6.5 -15.5q0 -11 -7.5 -19t-19.5 -8zM1722 373q-20 0 -31.5 -13.5t-11.5 -33.5
q0 -25 25 -25q13 0 25 4v-26q-18 -9 -35 -9q-23 0 -38.5 14.5t-15.5 37.5q0 34 23.5 56.5t58.5 22.5q17 0 25 -4l-8 -28q-8 4 -17 4zM1802 270q-24 0 -38.5 15t-14.5 39q0 33 21.5 55t54.5 22q24 0 38.5 -14.5t14.5 -36.5q0 -34 -22 -57t-54 -23zM1819 375
q-14 0 -22.5 -17.5t-8.5 -33.5q0 -25 20 -25q14 0 22.5 16t8.5 35q0 25 -20 25zM2036 274l12 68q0 3 1 8t1 8q0 15 -12 15q-21 0 -31 -43l-10 -56h-35l12 68q2 6 2 14q0 17 -12 17q-9 0 -18 -12t-13 -31l-10 -56h-35l17 84q3 20 6 41h31l-3 -20q16 22 43 22t31 -22
q14 22 43 22q14 0 22.5 -8.5t8.5 -23.5q0 -3 -1 -11.5t-1 -11.5l-14 -72h-35zM158 729q-69 3 -109.5 37t-38.5 82q0 37 15.5 52t33.5 15q28 0 37 -21.5t-6 -35.5q0 20 -20 24q-23 5 -33 -18q-4 -9 -4 -20q0 -41 34.5 -65.5t90.5 -24.5q116 0 116 172v6q0 23 -0.5 37t-4 39
t-10 39.5t-20 26t-32.5 11.5q-12 0 -14 -28v-78v-2v-129q0 -15 5 -22.5t10 -7.5l5 -1v-10h-111v10h5.5t9 6t6.5 17v2v221q0 33 -29 33q-9 0 -15.5 -5.5t-6.5 -11.5q0 -8 5 -11.5t10 -3.5l5 1q0 -33 -31 -33q-30 0 -30 31q0 23 20 36t43 13q20 -1 52 -8.5t61 -7.5
q139 0 139 -172q0 -49 -18 -92t-62 -74t-108 -29zM479 817v-10h-110v10q2 0 5 0.5t8.5 6.5t6.5 18v116q-1 11 -6 17.5t-9 6.5l-5 1v8l90 17v-160q0 -15 5 -22.5t10 -7.5zM426 1090q14 0 23.5 -10t9.5 -23t-9.5 -23t-23.5 -10t-23.5 10t-9.5 23t9.5 23t23.5 10zM592 983
q22 27 59 27q25 0 42.5 -16t17.5 -46v-100q0 -31 18 -31v-10h-108v10q2 0 4.5 0.5t7.5 6.5t6 18v112q0 22 -18 23q-20 2 -27 -18q-2 -5 -2 -11v-100q0 -15 5 -22.5t10 -7.5l5 -1v-10h-110v10q2 0 5 0.5t8.5 6.5t6.5 18v116q-1 11 -6 17.5t-10 6.5l-4 1v8l90 17v-25z
M924 1022q0 3 0.5 8t6 18.5t15.5 23.5t32.5 18t53.5 8q20 0 39 -5.5t25 -7.5t22 5q4 4 12 4v-74h-10q0 2 -1.5 6t-7.5 14t-14.5 17.5t-26.5 13.5t-40 6q-23 0 -38 -15.5t-14.5 -33t17.5 -24.5q8 -3 44.5 -13t59.5 -19t43.5 -33.5t18.5 -59.5q-2 -32 -32.5 -52t-88.5 -20
q-24 0 -43.5 2.5t-27.5 5t-14 1t-11 -8.5h-10v78h12q0 -25 29 -40.5t65 -15.5q37 0 52 17.5t4.5 38t-39.5 28.5q-2 1 -19.5 6t-23 7t-21.5 8.5t-22.5 11t-17.5 13t-16 17t-9 20.5t-4 26zM1284 999h-4.5t-7.5 -5.5t-6 -16.5l-2 -135q1 -12 6 -18t10 -6l4 -1v-10h-29
q-13 0 -20.5 1t-18.5 5.5t-16.5 17t-5.5 31.5v113q-1 12 -6 18t-10 6h-4v11q29 0 54.5 11t37.5 11v-22h18v-11zM1303 999v11h106v-11h-4.5t-7 -6t-4.5 -18v-107q0 -22 11.5 -27.5t23.5 4t12 23.5v103q0 14 -4 21t-8 7h-3v11h105v-11h-5t-8.5 -6t-7.5 -18v-133q2 -12 7 -18
t10 -6l4 -1v-10h-49q-16 0 -28.5 11.5t-12.5 21.5q-16 -33 -51 -33q-26 0 -47 16t-21 45v103q0 13 -4 20t-7 7.5t-7 0.5zM1831 762q0 -33 -39 -33q-18 0 -38.5 4.5t-45.5 25t-31 54.5q-15 -6 -32 -6q-41 0 -70 29.5t-29 72.5q0 41 29 71t70 30q14 0 30 -4v92l90 -19v-8
q-2 0 -4.5 -0.5t-7.5 -6.5t-6 -17v-213q3 -86 47 -89q-6 6 -6 17q0 8 6.5 14t15.5 6q8 0 14.5 -6.5t6.5 -13.5zM1645 821q30 0 30 88q0 44 -6 66t-24 22q-31 0 -31 -88t31 -88zM1886 817v-10h-108v10q2 0 5 0.5t8.5 6.5t6.5 18v116q-1 11 -6 17.5t-10 6.5l-4 1v8l90 17v-160
q0 -15 4.5 -22.5t9.5 -7.5zM1802 1057q0 13 10 23t23 10q12 0 22.5 -10t10.5 -23t-10.5 -23t-22.5 -10q-13 0 -23 10t-10 23zM2087 907q0 -41 -28.5 -70.5t-69.5 -29.5t-71 29.5t-30 70.5q0 43 30 73t71 30t69.5 -30t28.5 -73zM1989 823q18 0 24 22t6 64t-6 64t-24 22
q-31 0 -31 -86t31 -86zM25 299v51h376v-51h-376zM1081 1403h-227l174 219h227zM2091 1403h-215l174 219h41v-219zM399 1403h-227l174 219h227zM1421 1403h-227l174 219h227zM233 1622l-174 -219h-34v219h208zM741 1403h-229l174 219h227zM1763 1403h-227l172 219h229z
M1028 209h227l-174 -219h-227zM1876 -10l174 219h41v-219h-215zM346 209h227l-174 -219h-227zM1368 209h227l-174 -219h-227zM25 209h208l-174 -219h-34v219zM686 209h227l-172 -219h-229zM1708 209h229l-174 -219h-227z" />
    <glyph glyph-name="slash" unicode="/" horiz-adv-x="843" 
d="M516 1630q31 0 43.5 -29.5t-0.5 -76.5l-438 -1418q-17 -49 -47.5 -77.5t-61.5 -28.5h256q-31 0 -43 31t2 84l432 1401q17 51 49 82.5t64 31.5h-256z" />
    <glyph glyph-name="zero" unicode="0" horiz-adv-x="2150" 
d="M57 1249l-10 -53h-31l27 143q20 4 39 4q24 0 37 -10q16 -10 16 -30q0 -28 -20 -41q-15 -15 -45 -15q-4 0 -8 1t-5 1zM70 1317l-9 -43h13q13 0 21.5 6.5t8.5 17.5q0 19 -22 19h-12zM246 1315h-56l-6 -31h54l-7 -27h-51l-6 -34h57l-4 -27h-90l29 145h86zM291 1253l-10 -57
h-31l26 143q20 4 39 4q27 0 37 -10q17 -7 17 -26q0 -30 -33 -41v-2q11 -5 14 -27q5 -39 6 -41h-32q0 2 -1 6.5t-2 12.5l-2 16q-2 22 -20 22h-8zM303 1317l-8 -39h12q31 0 31 22q0 19 -23 19q-3 0 -7 -1t-5 -1zM416 1221q22 0 22 16q0 11 -20 20q-29 17 -29 39q0 21 16 34
t41 13q15 0 33 -6l-8 -26q-18 6 -29 6q-20 0 -20 -14q0 -11 20 -21q29 -16 29 -39q0 -24 -16.5 -36.5t-42.5 -12.5t-41 10l10 27q13 -10 35 -10zM569 1343q27 0 42.5 -16t15.5 -43q0 -45 -25 -70q-23 -20 -53 -20q-28 0 -44 17t-16 44q0 41 27 68q20 20 53 20zM578 1231
q16 16 16 51q0 37 -29 37q-15 0 -24 -12q-19 -16 -19 -52q0 -34 31 -34q12 0 25 10zM674 1247l-10 -51h-29l27 145h36l19 -55q7 -21 14 -49q1 4 2.5 21.5t3.5 29.5l11 53h28l-26 -145h-33l-21 57q-10 33 -12 52h-2l-3 -22q-3 -22 -5 -36zM817 1235l-16 -39h-33l70 145h41
l16 -145h-33l-2 39h-43zM842 1288l-15 -31h31l-2 31q0 4 -1 14.5t-1 14.5q-2 -4 -6 -14.5t-6 -14.5zM938 1341h31l-21 -118h56l-7 -27h-86zM1114 1341l-16 -84q-2 -4 -2 -16q0 -20 22 -20q26 0 31 36l16 84h31l-16 -81q-6 -34 -21.5 -50t-44.5 -16q-49 0 -49 47q0 13 2 21
l16 79h31zM1237 1221q23 0 23 16q0 11 -21 20q-29 17 -29 39q0 21 16.5 34t41.5 13q14 0 32 -6l-8 -26q-18 6 -28 6q-21 0 -21 -14q0 -11 21 -21q28 -16 28 -39q0 -24 -16.5 -36.5t-42.5 -12.5t-41 10l10 27q13 -10 35 -10zM1413 1315h-53l-6 -31h51l-4 -27h-53l-7 -34h58
l-4 -27h-88l26 145h86zM1575 1214q-20 -20 -53 -20q-27 0 -43.5 17t-16.5 44q0 41 27 68q23 20 53 20q29 0 44.5 -16t15.5 -43q0 -43 -27 -70zM1495 1255q0 -34 31 -34q14 0 24 10q19 16 19 51q0 37 -31 37q-16 0 -25 -12q-18 -18 -18 -52zM1657 1305q0 -3 -10 -58l-11 -51
h-28l28 145h37l19 -55q9 -28 12 -49h2q0 21 6 51l10 53h29l-29 -145h-30l-21 57q-9 31 -14 52zM1780 1341h30l-22 -118h55l-4 -27h-88zM1907 1255l-13 -59h-30l12 59l-29 86h33l10 -36q4 -24 4 -27h2q6 12 15 27l20 36h37zM1997 1212q0 8 5.5 14.5t14.5 6.5q7 0 13 -5.5
t6 -13.5q0 -20 -21 -20q-7 0 -12.5 5t-5.5 13zM2056 1341l-22 -98h-25l14 98h33zM92 649h-51v-41h47v-14h-47v-55h-14v123h65v-13zM186 584q0 -23 -13 -35t-30 -12q-18 0 -29.5 13t-11.5 34t12 33t31 12t30 -12.5t11 -32.5zM117 584q0 -15 7.5 -25t18.5 -10q12 0 19.5 10
t7.5 25q0 12 -6.5 22t-18.5 10q-28 0 -28 -32zM223 539h-16v61v27h14v-17q6 19 25 19h4v-15h-4q-20 0 -23 -20v-8v-47zM299 600q0 28 17 46t46 18q15 0 29 -7l-4 -12q-9 6 -25 6q-47 0 -47 -51q0 -49 47 -49q16 0 25 6l4 -14q-12 -4 -33 -4q-27 0 -43 15.5t-16 45.5z
M444 537q-19 0 -31 13t-12 34t12.5 33t30.5 12q20 0 31.5 -12.5t11.5 -32.5q0 -23 -13 -35t-30 -12zM444 616q-26 0 -26 -32q0 -15 7 -25t19 -10q11 0 19 10t8 25q0 12 -7 22t-20 10zM633 539h-17v51q0 26 -18 26q-14 0 -18 -14q0 -1 -1 -4t-1 -4v-55h-15v53q0 24 -18 24
q-17 0 -21 -16q0 -1 -1 -3.5t-1 -4.5v-53h-14v65q0 17 -2 23h14l2 -15q8 17 27 17q21 0 24 -17h2q2 4 9 11q9 6 20 6q29 0 29 -37v-53zM784 592v-53h-16v51q0 26 -18 26q-16 0 -19 -14q-2 -2 -2 -8v-55h-16v53q0 24 -19 24q-14 0 -18 -16q-2 -2 -2 -8v-53h-15v65q0 17 -2 23
h15v-15h2q8 17 26 17t25 -17q1 1 4.5 5.5t5.5 5.5q9 6 21 6q28 0 28 -37zM881 588v-8h-62q0 -14 8.5 -21.5t20.5 -7.5t24 4l5 -12q-12 -4 -31 -4q-43 0 -43 43q0 21 11.5 34t29.5 13q19 0 28 -13t9 -28zM819 592h47q0 9 -5.5 17.5t-16.5 8.5t-18 -8.5t-7 -17.5zM901 600
q0 19 -2 27h14v-17h2q6 19 25 19h4v-15h-6q-17 0 -20 -20q0 -1 -1.5 -3.5t-1.5 -4.5v-47h-14v61zM1020 543q-8 -4 -25 -4q-43 0 -43 43q0 22 12.5 34.5t34.5 12.5q13 0 21 -4l-2 -13q-8 4 -19 4q-15 0 -23.5 -9t-8.5 -23q0 -15 9 -24t21 -9q13 0 21 4zM1047 662q10 0 10 -11
q0 -8 -10 -8q-11 0 -11 8q0 11 11 11zM1038 539v88h17v-88h-17zM1102 537q-13 0 -20 8t-7 18q0 33 51 33v2q0 20 -18 20q-11 0 -23 -8l-4 11q8 8 29 8q33 0 33 -35v-33q0 -16 2 -22h-15l-2 12q-14 -14 -26 -14zM1128 584q-38 0 -38 -19q0 -16 16 -16q15 0 20 14q0 1 1 3t1 3
v15zM1169 539v129h15v-129h-15zM1210 561l19 2q-7 -29 -19 -45h-10q6 15 10 43zM1286 539v120q20 5 31 5q22 0 33 -11q12 -9 12 -26t-10 -27q-12 -12 -37 -12h-12v-49h-17zM1303 649v-47q2 -2 12 -2q14 0 22.5 7.5t8.5 19.5q0 22 -29 22h-14zM1380 539v129h17v-129h-17z
M1489 543q-8 -4 -29 -4q-43 0 -43 43q0 21 11.5 34t29.5 13q19 0 28 -13t9 -28v-8h-61q0 -29 28 -29q13 0 25 4zM1458 618q-11 0 -17.5 -8.5t-6.5 -17.5h45q0 26 -21 26zM1577 539h-14v12h-2q-9 -14 -27 -14q-11 0 -19 8t-8 18q0 33 54 33v2q0 20 -21 20q-10 0 -22 -8l-5 11
q11 8 29 8q35 0 35 -35v-33v-22zM1561 569v15q-37 0 -37 -19q0 -16 14 -16t23 14v6zM1653 563q0 -11 -9 -17.5t-24 -6.5q-16 0 -25 6l4 10q12 -6 21 -6q18 0 18 14q0 7 -16 17q-25 6 -25 24q0 11 9 18t22 7q11 0 23 -4l-4 -13q-8 4 -19 4q-14 0 -14 -10q0 -11 16 -16
q23 -10 23 -27zM1745 588v-8h-62q0 -29 29 -29q13 0 25 4l2 -12q-8 -4 -29 -4q-43 0 -43 43q0 21 11.5 34t29.5 13q19 0 28 -13t9 -28zM1683 592h46q0 26 -21 26q-11 0 -18 -8.5t-7 -17.5zM1868 662h16l-43 -123h-18l-39 123h16l21 -60q10 -40 12 -47q12 41 14 47zM1903 662
q10 0 10 -11q0 -8 -10 -8q-11 0 -11 8q0 11 11 11zM1894 539v88h17v-88h-17zM1956 549q16 0 16 14q0 9 -16 17q-23 7 -23 24q0 11 9 18t22 7t21 -4l-5 -13q-4 4 -16 4q-16 0 -16 -10t16 -16q25 -9 25 -27q0 -11 -9 -17.5t-24 -6.5q-16 0 -25 6l4 10q12 -6 21 -6zM2017 662
q8 0 8 -11q0 -8 -10 -8q-8 0 -8 8q0 11 10 11zM2025 627v-88h-16v88h16zM2093 614h-22v-47q0 -16 12 -16h8l2 -10q-4 -2 -14 -2q-13 0 -19 6t-6 22v47h-12v13h12v22l17 4v-26h22v-13zM559 274h-35l2 21q-14 -25 -41 -25q-16 0 -27.5 13t-11.5 34q0 35 22.5 59.5t57.5 24.5
q11 0 17 -2l10 56h37l-25 -133q-6 -21 -6 -48zM502 301q22 0 28 35l7 33q-3 6 -15 6q-15 0 -26 -16t-11 -35q0 -23 17 -23zM655 436q0 -22 -22 -22q-17 0 -17 18q0 9 6 15t15 6q18 0 18 -17zM647 399l-24 -125h-37l24 125h37zM731 274l12 70q2 4 2 12q0 17 -12 17
q-10 0 -19 -12t-12 -31l-10 -56h-37l15 84q4 14 8 41h33l-4 -20h2q14 22 43 22q32 0 32 -32q0 -3 -1 -11.5t-1 -11.5l-14 -72h-37zM801 328l6 26h65l-4 -26h-67zM946 375q-16 0 -16 -10q0 -9 14 -15q29 -17 29 -35q0 -21 -16 -33t-42 -12q-23 0 -38 11l8 26q16 -8 33 -8
q16 0 16 10q0 9 -16 17q-25 11 -25 32q0 20 14.5 31.5t38.5 11.5t33 -6l-8 -26q-9 6 -25 6zM1047 371l-9 -43q-2 -4 -2 -15q0 -10 11 -10h10l-4 -29q-12 -4 -23 -4q-33 0 -33 27q0 4 1 12t1 13l11 49h-17l6 28h17l4 27l39 8l-8 -35h26l-4 -28h-26zM1190 274h-33l2 21
q-19 -25 -43 -25q-33 0 -33 35q0 15 2 25l15 69h37l-13 -67q-2 -6 -2 -17q0 -14 13 -14q21 0 30 41l11 57h36l-16 -84q-4 -29 -6 -41zM1335 274h-35l3 21q-14 -25 -41 -25q-16 0 -27.5 13t-11.5 34q0 35 22.5 59.5t57.5 24.5q10 0 16 -2l10 56h37l-25 -133q-6 -21 -6 -48z
M1278 301q23 0 29 35l6 33q-3 6 -15 6q-15 0 -25.5 -16t-10.5 -35q0 -23 16 -23zM1432 436q0 -10 -7 -16t-16 -6q-16 0 -16 18q0 21 20 21q8 0 13.5 -5t5.5 -12zM1423 399l-24 -125h-37l24 125h37zM1489 270q-25 0 -39 14.5t-14 39.5q0 33 20 55t53 22q25 0 39.5 -14.5
t14.5 -36.5q0 -34 -21 -57t-53 -23zM1505 375q-15 0 -23.5 -17t-8.5 -34q0 -25 20 -25q14 0 22.5 16t8.5 35q0 25 -19 25zM1591 270q-9 0 -14.5 7t-5.5 16q0 11 7 18.5t17 7.5t16.5 -6.5t6.5 -15.5q0 -11 -7.5 -19t-19.5 -8zM1722 373q-20 0 -31.5 -13.5t-11.5 -33.5
q0 -25 25 -25q13 0 25 4v-26q-18 -9 -35 -9q-23 0 -38.5 14.5t-15.5 37.5q0 34 23.5 56.5t58.5 22.5q17 0 25 -4l-8 -28q-8 4 -17 4zM1802 270q-24 0 -38.5 15t-14.5 39q0 33 21.5 55t54.5 22q24 0 38.5 -14.5t14.5 -36.5q0 -34 -22 -57t-54 -23zM1819 375
q-14 0 -22.5 -17.5t-8.5 -33.5q0 -25 20 -25q14 0 22.5 16t8.5 35q0 25 -20 25zM2036 274l12 68q0 3 1 8t1 8q0 15 -12 15q-21 0 -31 -43l-10 -56h-35l12 68q2 6 2 14q0 17 -12 17q-9 0 -18 -12t-13 -31l-10 -56h-35l17 84q3 20 6 41h31l-3 -20q16 22 43 22t31 -22
q14 22 43 22q14 0 22.5 -8.5t8.5 -23.5q0 -3 -1 -11.5t-1 -11.5l-14 -72h-35zM158 729q-69 3 -109.5 37t-38.5 82q0 37 15.5 52t33.5 15q28 0 37 -21.5t-6 -35.5q0 20 -20 24q-23 5 -33 -18q-4 -9 -4 -20q0 -41 34.5 -65.5t90.5 -24.5q116 0 116 172v6q0 23 -0.5 37t-4 39
t-10 39.5t-20 26t-32.5 11.5q-12 0 -14 -28v-78v-2v-129q0 -15 5 -22.5t10 -7.5l5 -1v-10h-111v10h5.5t9 6t6.5 17v2v221q0 33 -29 33q-9 0 -15.5 -5.5t-6.5 -11.5q0 -8 5 -11.5t10 -3.5l5 1q0 -33 -31 -33q-30 0 -30 31q0 23 20 36t43 13q20 -1 52 -8.5t61 -7.5
q139 0 139 -172q0 -49 -18 -92t-62 -74t-108 -29zM479 817v-10h-110v10q2 0 5 0.5t8.5 6.5t6.5 18v116q-1 11 -6 17.5t-9 6.5l-5 1v8l90 17v-160q0 -15 5 -22.5t10 -7.5zM426 1090q14 0 23.5 -10t9.5 -23t-9.5 -23t-23.5 -10t-23.5 10t-9.5 23t9.5 23t23.5 10zM592 983
q22 27 59 27q25 0 42.5 -16t17.5 -46v-100q0 -31 18 -31v-10h-108v10q2 0 4.5 0.5t7.5 6.5t6 18v112q0 22 -18 23q-20 2 -27 -18q-2 -5 -2 -11v-100q0 -15 5 -22.5t10 -7.5l5 -1v-10h-110v10q2 0 5 0.5t8.5 6.5t6.5 18v116q-1 11 -6 17.5t-10 6.5l-4 1v8l90 17v-25z
M924 1022q0 3 0.5 8t6 18.5t15.5 23.5t32.5 18t53.5 8q20 0 39 -5.5t25 -7.5t22 5q4 4 12 4v-74h-10q0 2 -1.5 6t-7.5 14t-14.5 17.5t-26.5 13.5t-40 6q-23 0 -38 -15.5t-14.5 -33t17.5 -24.5q8 -3 44.5 -13t59.5 -19t43.5 -33.5t18.5 -59.5q-2 -32 -32.5 -52t-88.5 -20
q-24 0 -43.5 2.5t-27.5 5t-14 1t-11 -8.5h-10v78h12q0 -25 29 -40.5t65 -15.5q37 0 52 17.5t4.5 38t-39.5 28.5q-2 1 -19.5 6t-23 7t-21.5 8.5t-22.5 11t-17.5 13t-16 17t-9 20.5t-4 26zM1284 999h-4.5t-7.5 -5.5t-6 -16.5l-2 -135q1 -12 6 -18t10 -6l4 -1v-10h-29
q-13 0 -20.5 1t-18.5 5.5t-16.5 17t-5.5 31.5v113q-1 12 -6 18t-10 6h-4v11q29 0 54.5 11t37.5 11v-22h18v-11zM1303 999v11h106v-11h-4.5t-7 -6t-4.5 -18v-107q0 -22 11.5 -27.5t23.5 4t12 23.5v103q0 14 -4 21t-8 7h-3v11h105v-11h-5t-8.5 -6t-7.5 -18v-133q2 -12 7 -18
t10 -6l4 -1v-10h-49q-16 0 -28.5 11.5t-12.5 21.5q-16 -33 -51 -33q-26 0 -47 16t-21 45v103q0 13 -4 20t-7 7.5t-7 0.5zM1831 762q0 -33 -39 -33q-18 0 -38.5 4.5t-45.5 25t-31 54.5q-15 -6 -32 -6q-41 0 -70 29.5t-29 72.5q0 41 29 71t70 30q14 0 30 -4v92l90 -19v-8
q-2 0 -4.5 -0.5t-7.5 -6.5t-6 -17v-213q3 -86 47 -89q-6 6 -6 17q0 8 6.5 14t15.5 6q8 0 14.5 -6.5t6.5 -13.5zM1645 821q30 0 30 88q0 44 -6 66t-24 22q-31 0 -31 -88t31 -88zM1886 817v-10h-108v10q2 0 5 0.5t8.5 6.5t6.5 18v116q-1 11 -6 17.5t-10 6.5l-4 1v8l90 17v-160
q0 -15 4.5 -22.5t9.5 -7.5zM1802 1057q0 13 10 23t23 10q12 0 22.5 -10t10.5 -23t-10.5 -23t-22.5 -10q-13 0 -23 10t-10 23zM2087 907q0 -41 -28.5 -70.5t-69.5 -29.5t-71 29.5t-30 70.5q0 43 30 73t71 30t69.5 -30t28.5 -73zM1989 823q18 0 24 22t6 64t-6 64t-24 22
q-31 0 -31 -86t31 -86zM25 299v51h376v-51h-376zM1081 1403h-227l174 219h227zM2091 1403h-215l174 219h41v-219zM399 1403h-227l174 219h227zM1421 1403h-227l174 219h227zM233 1622l-174 -219h-34v219h208zM741 1403h-229l174 219h227zM1763 1403h-227l172 219h229z
M1028 209h227l-174 -219h-227zM1876 -10l174 219h41v-219h-215zM346 209h227l-174 -219h-227zM1368 209h227l-174 -219h-227zM25 209h208l-174 -219h-34v219zM686 209h227l-172 -219h-229zM1708 209h229l-174 -219h-227z" />
    <glyph glyph-name="one" unicode="1" horiz-adv-x="2150" 
d="M57 1249l-10 -53h-31l27 143q20 4 39 4q24 0 37 -10q16 -10 16 -30q0 -28 -20 -41q-15 -15 -45 -15q-4 0 -8 1t-5 1zM70 1317l-9 -43h13q13 0 21.5 6.5t8.5 17.5q0 19 -22 19h-12zM246 1315h-56l-6 -31h54l-7 -27h-51l-6 -34h57l-4 -27h-90l29 145h86zM291 1253l-10 -57
h-31l26 143q20 4 39 4q27 0 37 -10q17 -7 17 -26q0 -30 -33 -41v-2q11 -5 14 -27q5 -39 6 -41h-32q0 2 -1 6.5t-2 12.5l-2 16q-2 22 -20 22h-8zM303 1317l-8 -39h12q31 0 31 22q0 19 -23 19q-3 0 -7 -1t-5 -1zM416 1221q22 0 22 16q0 11 -20 20q-29 17 -29 39q0 21 16 34
t41 13q15 0 33 -6l-8 -26q-18 6 -29 6q-20 0 -20 -14q0 -11 20 -21q29 -16 29 -39q0 -24 -16.5 -36.5t-42.5 -12.5t-41 10l10 27q13 -10 35 -10zM569 1343q27 0 42.5 -16t15.5 -43q0 -45 -25 -70q-23 -20 -53 -20q-28 0 -44 17t-16 44q0 41 27 68q20 20 53 20zM578 1231
q16 16 16 51q0 37 -29 37q-15 0 -24 -12q-19 -16 -19 -52q0 -34 31 -34q12 0 25 10zM674 1247l-10 -51h-29l27 145h36l19 -55q7 -21 14 -49q1 4 2.5 21.5t3.5 29.5l11 53h28l-26 -145h-33l-21 57q-10 33 -12 52h-2l-3 -22q-3 -22 -5 -36zM817 1235l-16 -39h-33l70 145h41
l16 -145h-33l-2 39h-43zM842 1288l-15 -31h31l-2 31q0 4 -1 14.5t-1 14.5q-2 -4 -6 -14.5t-6 -14.5zM938 1341h31l-21 -118h56l-7 -27h-86zM1114 1341l-16 -84q-2 -4 -2 -16q0 -20 22 -20q26 0 31 36l16 84h31l-16 -81q-6 -34 -21.5 -50t-44.5 -16q-49 0 -49 47q0 13 2 21
l16 79h31zM1237 1221q23 0 23 16q0 11 -21 20q-29 17 -29 39q0 21 16.5 34t41.5 13q14 0 32 -6l-8 -26q-18 6 -28 6q-21 0 -21 -14q0 -11 21 -21q28 -16 28 -39q0 -24 -16.5 -36.5t-42.5 -12.5t-41 10l10 27q13 -10 35 -10zM1413 1315h-53l-6 -31h51l-4 -27h-53l-7 -34h58
l-4 -27h-88l26 145h86zM1575 1214q-20 -20 -53 -20q-27 0 -43.5 17t-16.5 44q0 41 27 68q23 20 53 20q29 0 44.5 -16t15.5 -43q0 -43 -27 -70zM1495 1255q0 -34 31 -34q14 0 24 10q19 16 19 51q0 37 -31 37q-16 0 -25 -12q-18 -18 -18 -52zM1657 1305q0 -3 -10 -58l-11 -51
h-28l28 145h37l19 -55q9 -28 12 -49h2q0 21 6 51l10 53h29l-29 -145h-30l-21 57q-9 31 -14 52zM1780 1341h30l-22 -118h55l-4 -27h-88zM1907 1255l-13 -59h-30l12 59l-29 86h33l10 -36q4 -24 4 -27h2q6 12 15 27l20 36h37zM1997 1212q0 8 5.5 14.5t14.5 6.5q7 0 13 -5.5
t6 -13.5q0 -20 -21 -20q-7 0 -12.5 5t-5.5 13zM2056 1341l-22 -98h-25l14 98h33zM92 649h-51v-41h47v-14h-47v-55h-14v123h65v-13zM186 584q0 -23 -13 -35t-30 -12q-18 0 -29.5 13t-11.5 34t12 33t31 12t30 -12.5t11 -32.5zM117 584q0 -15 7.5 -25t18.5 -10q12 0 19.5 10
t7.5 25q0 12 -6.5 22t-18.5 10q-28 0 -28 -32zM223 539h-16v61v27h14v-17q6 19 25 19h4v-15h-4q-20 0 -23 -20v-8v-47zM299 600q0 28 17 46t46 18q15 0 29 -7l-4 -12q-9 6 -25 6q-47 0 -47 -51q0 -49 47 -49q16 0 25 6l4 -14q-12 -4 -33 -4q-27 0 -43 15.5t-16 45.5z
M444 537q-19 0 -31 13t-12 34t12.5 33t30.5 12q20 0 31.5 -12.5t11.5 -32.5q0 -23 -13 -35t-30 -12zM444 616q-26 0 -26 -32q0 -15 7 -25t19 -10q11 0 19 10t8 25q0 12 -7 22t-20 10zM633 539h-17v51q0 26 -18 26q-14 0 -18 -14q0 -1 -1 -4t-1 -4v-55h-15v53q0 24 -18 24
q-17 0 -21 -16q0 -1 -1 -3.5t-1 -4.5v-53h-14v65q0 17 -2 23h14l2 -15q8 17 27 17q21 0 24 -17h2q2 4 9 11q9 6 20 6q29 0 29 -37v-53zM784 592v-53h-16v51q0 26 -18 26q-16 0 -19 -14q-2 -2 -2 -8v-55h-16v53q0 24 -19 24q-14 0 -18 -16q-2 -2 -2 -8v-53h-15v65q0 17 -2 23
h15v-15h2q8 17 26 17t25 -17q1 1 4.5 5.5t5.5 5.5q9 6 21 6q28 0 28 -37zM881 588v-8h-62q0 -14 8.5 -21.5t20.5 -7.5t24 4l5 -12q-12 -4 -31 -4q-43 0 -43 43q0 21 11.5 34t29.5 13q19 0 28 -13t9 -28zM819 592h47q0 9 -5.5 17.5t-16.5 8.5t-18 -8.5t-7 -17.5zM901 600
q0 19 -2 27h14v-17h2q6 19 25 19h4v-15h-6q-17 0 -20 -20q0 -1 -1.5 -3.5t-1.5 -4.5v-47h-14v61zM1020 543q-8 -4 -25 -4q-43 0 -43 43q0 22 12.5 34.5t34.5 12.5q13 0 21 -4l-2 -13q-8 4 -19 4q-15 0 -23.5 -9t-8.5 -23q0 -15 9 -24t21 -9q13 0 21 4zM1047 662q10 0 10 -11
q0 -8 -10 -8q-11 0 -11 8q0 11 11 11zM1038 539v88h17v-88h-17zM1102 537q-13 0 -20 8t-7 18q0 33 51 33v2q0 20 -18 20q-11 0 -23 -8l-4 11q8 8 29 8q33 0 33 -35v-33q0 -16 2 -22h-15l-2 12q-14 -14 -26 -14zM1128 584q-38 0 -38 -19q0 -16 16 -16q15 0 20 14q0 1 1 3t1 3
v15zM1169 539v129h15v-129h-15zM1210 561l19 2q-7 -29 -19 -45h-10q6 15 10 43zM1286 539v120q20 5 31 5q22 0 33 -11q12 -9 12 -26t-10 -27q-12 -12 -37 -12h-12v-49h-17zM1303 649v-47q2 -2 12 -2q14 0 22.5 7.5t8.5 19.5q0 22 -29 22h-14zM1380 539v129h17v-129h-17z
M1489 543q-8 -4 -29 -4q-43 0 -43 43q0 21 11.5 34t29.5 13q19 0 28 -13t9 -28v-8h-61q0 -29 28 -29q13 0 25 4zM1458 618q-11 0 -17.5 -8.5t-6.5 -17.5h45q0 26 -21 26zM1577 539h-14v12h-2q-9 -14 -27 -14q-11 0 -19 8t-8 18q0 33 54 33v2q0 20 -21 20q-10 0 -22 -8l-5 11
q11 8 29 8q35 0 35 -35v-33v-22zM1561 569v15q-37 0 -37 -19q0 -16 14 -16t23 14v6zM1653 563q0 -11 -9 -17.5t-24 -6.5q-16 0 -25 6l4 10q12 -6 21 -6q18 0 18 14q0 7 -16 17q-25 6 -25 24q0 11 9 18t22 7q11 0 23 -4l-4 -13q-8 4 -19 4q-14 0 -14 -10q0 -11 16 -16
q23 -10 23 -27zM1745 588v-8h-62q0 -29 29 -29q13 0 25 4l2 -12q-8 -4 -29 -4q-43 0 -43 43q0 21 11.5 34t29.5 13q19 0 28 -13t9 -28zM1683 592h46q0 26 -21 26q-11 0 -18 -8.5t-7 -17.5zM1868 662h16l-43 -123h-18l-39 123h16l21 -60q10 -40 12 -47q12 41 14 47zM1903 662
q10 0 10 -11q0 -8 -10 -8q-11 0 -11 8q0 11 11 11zM1894 539v88h17v-88h-17zM1956 549q16 0 16 14q0 9 -16 17q-23 7 -23 24q0 11 9 18t22 7t21 -4l-5 -13q-4 4 -16 4q-16 0 -16 -10t16 -16q25 -9 25 -27q0 -11 -9 -17.5t-24 -6.5q-16 0 -25 6l4 10q12 -6 21 -6zM2017 662
q8 0 8 -11q0 -8 -10 -8q-8 0 -8 8q0 11 10 11zM2025 627v-88h-16v88h16zM2093 614h-22v-47q0 -16 12 -16h8l2 -10q-4 -2 -14 -2q-13 0 -19 6t-6 22v47h-12v13h12v22l17 4v-26h22v-13zM559 274h-35l2 21q-14 -25 -41 -25q-16 0 -27.5 13t-11.5 34q0 35 22.5 59.5t57.5 24.5
q11 0 17 -2l10 56h37l-25 -133q-6 -21 -6 -48zM502 301q22 0 28 35l7 33q-3 6 -15 6q-15 0 -26 -16t-11 -35q0 -23 17 -23zM655 436q0 -22 -22 -22q-17 0 -17 18q0 9 6 15t15 6q18 0 18 -17zM647 399l-24 -125h-37l24 125h37zM731 274l12 70q2 4 2 12q0 17 -12 17
q-10 0 -19 -12t-12 -31l-10 -56h-37l15 84q4 14 8 41h33l-4 -20h2q14 22 43 22q32 0 32 -32q0 -3 -1 -11.5t-1 -11.5l-14 -72h-37zM801 328l6 26h65l-4 -26h-67zM946 375q-16 0 -16 -10q0 -9 14 -15q29 -17 29 -35q0 -21 -16 -33t-42 -12q-23 0 -38 11l8 26q16 -8 33 -8
q16 0 16 10q0 9 -16 17q-25 11 -25 32q0 20 14.5 31.5t38.5 11.5t33 -6l-8 -26q-9 6 -25 6zM1047 371l-9 -43q-2 -4 -2 -15q0 -10 11 -10h10l-4 -29q-12 -4 -23 -4q-33 0 -33 27q0 4 1 12t1 13l11 49h-17l6 28h17l4 27l39 8l-8 -35h26l-4 -28h-26zM1190 274h-33l2 21
q-19 -25 -43 -25q-33 0 -33 35q0 15 2 25l15 69h37l-13 -67q-2 -6 -2 -17q0 -14 13 -14q21 0 30 41l11 57h36l-16 -84q-4 -29 -6 -41zM1335 274h-35l3 21q-14 -25 -41 -25q-16 0 -27.5 13t-11.5 34q0 35 22.5 59.5t57.5 24.5q10 0 16 -2l10 56h37l-25 -133q-6 -21 -6 -48z
M1278 301q23 0 29 35l6 33q-3 6 -15 6q-15 0 -25.5 -16t-10.5 -35q0 -23 16 -23zM1432 436q0 -10 -7 -16t-16 -6q-16 0 -16 18q0 21 20 21q8 0 13.5 -5t5.5 -12zM1423 399l-24 -125h-37l24 125h37zM1489 270q-25 0 -39 14.5t-14 39.5q0 33 20 55t53 22q25 0 39.5 -14.5
t14.5 -36.5q0 -34 -21 -57t-53 -23zM1505 375q-15 0 -23.5 -17t-8.5 -34q0 -25 20 -25q14 0 22.5 16t8.5 35q0 25 -19 25zM1591 270q-9 0 -14.5 7t-5.5 16q0 11 7 18.5t17 7.5t16.5 -6.5t6.5 -15.5q0 -11 -7.5 -19t-19.5 -8zM1722 373q-20 0 -31.5 -13.5t-11.5 -33.5
q0 -25 25 -25q13 0 25 4v-26q-18 -9 -35 -9q-23 0 -38.5 14.5t-15.5 37.5q0 34 23.5 56.5t58.5 22.5q17 0 25 -4l-8 -28q-8 4 -17 4zM1802 270q-24 0 -38.5 15t-14.5 39q0 33 21.5 55t54.5 22q24 0 38.5 -14.5t14.5 -36.5q0 -34 -22 -57t-54 -23zM1819 375
q-14 0 -22.5 -17.5t-8.5 -33.5q0 -25 20 -25q14 0 22.5 16t8.5 35q0 25 -20 25zM2036 274l12 68q0 3 1 8t1 8q0 15 -12 15q-21 0 -31 -43l-10 -56h-35l12 68q2 6 2 14q0 17 -12 17q-9 0 -18 -12t-13 -31l-10 -56h-35l17 84q3 20 6 41h31l-3 -20q16 22 43 22t31 -22
q14 22 43 22q14 0 22.5 -8.5t8.5 -23.5q0 -3 -1 -11.5t-1 -11.5l-14 -72h-35zM158 729q-69 3 -109.5 37t-38.5 82q0 37 15.5 52t33.5 15q28 0 37 -21.5t-6 -35.5q0 20 -20 24q-23 5 -33 -18q-4 -9 -4 -20q0 -41 34.5 -65.5t90.5 -24.5q116 0 116 172v6q0 23 -0.5 37t-4 39
t-10 39.5t-20 26t-32.5 11.5q-12 0 -14 -28v-78v-2v-129q0 -15 5 -22.5t10 -7.5l5 -1v-10h-111v10h5.5t9 6t6.5 17v2v221q0 33 -29 33q-9 0 -15.5 -5.5t-6.5 -11.5q0 -8 5 -11.5t10 -3.5l5 1q0 -33 -31 -33q-30 0 -30 31q0 23 20 36t43 13q20 -1 52 -8.5t61 -7.5
q139 0 139 -172q0 -49 -18 -92t-62 -74t-108 -29zM479 817v-10h-110v10q2 0 5 0.5t8.5 6.5t6.5 18v116q-1 11 -6 17.5t-9 6.5l-5 1v8l90 17v-160q0 -15 5 -22.5t10 -7.5zM426 1090q14 0 23.5 -10t9.5 -23t-9.5 -23t-23.5 -10t-23.5 10t-9.5 23t9.5 23t23.5 10zM592 983
q22 27 59 27q25 0 42.5 -16t17.5 -46v-100q0 -31 18 -31v-10h-108v10q2 0 4.5 0.5t7.5 6.5t6 18v112q0 22 -18 23q-20 2 -27 -18q-2 -5 -2 -11v-100q0 -15 5 -22.5t10 -7.5l5 -1v-10h-110v10q2 0 5 0.5t8.5 6.5t6.5 18v116q-1 11 -6 17.5t-10 6.5l-4 1v8l90 17v-25z
M924 1022q0 3 0.5 8t6 18.5t15.5 23.5t32.5 18t53.5 8q20 0 39 -5.5t25 -7.5t22 5q4 4 12 4v-74h-10q0 2 -1.5 6t-7.5 14t-14.5 17.5t-26.5 13.5t-40 6q-23 0 -38 -15.5t-14.5 -33t17.5 -24.5q8 -3 44.5 -13t59.5 -19t43.5 -33.5t18.5 -59.5q-2 -32 -32.5 -52t-88.5 -20
q-24 0 -43.5 2.5t-27.5 5t-14 1t-11 -8.5h-10v78h12q0 -25 29 -40.5t65 -15.5q37 0 52 17.5t4.5 38t-39.5 28.5q-2 1 -19.5 6t-23 7t-21.5 8.5t-22.5 11t-17.5 13t-16 17t-9 20.5t-4 26zM1284 999h-4.5t-7.5 -5.5t-6 -16.5l-2 -135q1 -12 6 -18t10 -6l4 -1v-10h-29
q-13 0 -20.5 1t-18.5 5.5t-16.5 17t-5.5 31.5v113q-1 12 -6 18t-10 6h-4v11q29 0 54.5 11t37.5 11v-22h18v-11zM1303 999v11h106v-11h-4.5t-7 -6t-4.5 -18v-107q0 -22 11.5 -27.5t23.5 4t12 23.5v103q0 14 -4 21t-8 7h-3v11h105v-11h-5t-8.5 -6t-7.5 -18v-133q2 -12 7 -18
t10 -6l4 -1v-10h-49q-16 0 -28.5 11.5t-12.5 21.5q-16 -33 -51 -33q-26 0 -47 16t-21 45v103q0 13 -4 20t-7 7.5t-7 0.5zM1831 762q0 -33 -39 -33q-18 0 -38.5 4.5t-45.5 25t-31 54.5q-15 -6 -32 -6q-41 0 -70 29.5t-29 72.5q0 41 29 71t70 30q14 0 30 -4v92l90 -19v-8
q-2 0 -4.5 -0.5t-7.5 -6.5t-6 -17v-213q3 -86 47 -89q-6 6 -6 17q0 8 6.5 14t15.5 6q8 0 14.5 -6.5t6.5 -13.5zM1645 821q30 0 30 88q0 44 -6 66t-24 22q-31 0 -31 -88t31 -88zM1886 817v-10h-108v10q2 0 5 0.5t8.5 6.5t6.5 18v116q-1 11 -6 17.5t-10 6.5l-4 1v8l90 17v-160
q0 -15 4.5 -22.5t9.5 -7.5zM1802 1057q0 13 10 23t23 10q12 0 22.5 -10t10.5 -23t-10.5 -23t-22.5 -10q-13 0 -23 10t-10 23zM2087 907q0 -41 -28.5 -70.5t-69.5 -29.5t-71 29.5t-30 70.5q0 43 30 73t71 30t69.5 -30t28.5 -73zM1989 823q18 0 24 22t6 64t-6 64t-24 22
q-31 0 -31 -86t31 -86zM25 299v51h376v-51h-376zM1081 1403h-227l174 219h227zM2091 1403h-215l174 219h41v-219zM399 1403h-227l174 219h227zM1421 1403h-227l174 219h227zM233 1622l-174 -219h-34v219h208zM741 1403h-229l174 219h227zM1763 1403h-227l172 219h229z
M1028 209h227l-174 -219h-227zM1876 -10l174 219h41v-219h-215zM346 209h227l-174 -219h-227zM1368 209h227l-174 -219h-227zM25 209h208l-174 -219h-34v219zM686 209h227l-172 -219h-229zM1708 209h229l-174 -219h-227z" />
    <glyph glyph-name="two" unicode="2" horiz-adv-x="2150" 
d="M57 1249l-10 -53h-31l27 143q20 4 39 4q24 0 37 -10q16 -10 16 -30q0 -28 -20 -41q-15 -15 -45 -15q-4 0 -8 1t-5 1zM70 1317l-9 -43h13q13 0 21.5 6.5t8.5 17.5q0 19 -22 19h-12zM246 1315h-56l-6 -31h54l-7 -27h-51l-6 -34h57l-4 -27h-90l29 145h86zM291 1253l-10 -57
h-31l26 143q20 4 39 4q27 0 37 -10q17 -7 17 -26q0 -30 -33 -41v-2q11 -5 14 -27q5 -39 6 -41h-32q0 2 -1 6.5t-2 12.5l-2 16q-2 22 -20 22h-8zM303 1317l-8 -39h12q31 0 31 22q0 19 -23 19q-3 0 -7 -1t-5 -1zM416 1221q22 0 22 16q0 11 -20 20q-29 17 -29 39q0 21 16 34
t41 13q15 0 33 -6l-8 -26q-18 6 -29 6q-20 0 -20 -14q0 -11 20 -21q29 -16 29 -39q0 -24 -16.5 -36.5t-42.5 -12.5t-41 10l10 27q13 -10 35 -10zM569 1343q27 0 42.5 -16t15.5 -43q0 -45 -25 -70q-23 -20 -53 -20q-28 0 -44 17t-16 44q0 41 27 68q20 20 53 20zM578 1231
q16 16 16 51q0 37 -29 37q-15 0 -24 -12q-19 -16 -19 -52q0 -34 31 -34q12 0 25 10zM674 1247l-10 -51h-29l27 145h36l19 -55q7 -21 14 -49q1 4 2.5 21.5t3.5 29.5l11 53h28l-26 -145h-33l-21 57q-10 33 -12 52h-2l-3 -22q-3 -22 -5 -36zM817 1235l-16 -39h-33l70 145h41
l16 -145h-33l-2 39h-43zM842 1288l-15 -31h31l-2 31q0 4 -1 14.5t-1 14.5q-2 -4 -6 -14.5t-6 -14.5zM938 1341h31l-21 -118h56l-7 -27h-86zM1114 1341l-16 -84q-2 -4 -2 -16q0 -20 22 -20q26 0 31 36l16 84h31l-16 -81q-6 -34 -21.5 -50t-44.5 -16q-49 0 -49 47q0 13 2 21
l16 79h31zM1237 1221q23 0 23 16q0 11 -21 20q-29 17 -29 39q0 21 16.5 34t41.5 13q14 0 32 -6l-8 -26q-18 6 -28 6q-21 0 -21 -14q0 -11 21 -21q28 -16 28 -39q0 -24 -16.5 -36.5t-42.5 -12.5t-41 10l10 27q13 -10 35 -10zM1413 1315h-53l-6 -31h51l-4 -27h-53l-7 -34h58
l-4 -27h-88l26 145h86zM1575 1214q-20 -20 -53 -20q-27 0 -43.5 17t-16.5 44q0 41 27 68q23 20 53 20q29 0 44.5 -16t15.5 -43q0 -43 -27 -70zM1495 1255q0 -34 31 -34q14 0 24 10q19 16 19 51q0 37 -31 37q-16 0 -25 -12q-18 -18 -18 -52zM1657 1305q0 -3 -10 -58l-11 -51
h-28l28 145h37l19 -55q9 -28 12 -49h2q0 21 6 51l10 53h29l-29 -145h-30l-21 57q-9 31 -14 52zM1780 1341h30l-22 -118h55l-4 -27h-88zM1907 1255l-13 -59h-30l12 59l-29 86h33l10 -36q4 -24 4 -27h2q6 12 15 27l20 36h37zM1997 1212q0 8 5.5 14.5t14.5 6.5q7 0 13 -5.5
t6 -13.5q0 -20 -21 -20q-7 0 -12.5 5t-5.5 13zM2056 1341l-22 -98h-25l14 98h33zM92 649h-51v-41h47v-14h-47v-55h-14v123h65v-13zM186 584q0 -23 -13 -35t-30 -12q-18 0 -29.5 13t-11.5 34t12 33t31 12t30 -12.5t11 -32.5zM117 584q0 -15 7.5 -25t18.5 -10q12 0 19.5 10
t7.5 25q0 12 -6.5 22t-18.5 10q-28 0 -28 -32zM223 539h-16v61v27h14v-17q6 19 25 19h4v-15h-4q-20 0 -23 -20v-8v-47zM299 600q0 28 17 46t46 18q15 0 29 -7l-4 -12q-9 6 -25 6q-47 0 -47 -51q0 -49 47 -49q16 0 25 6l4 -14q-12 -4 -33 -4q-27 0 -43 15.5t-16 45.5z
M444 537q-19 0 -31 13t-12 34t12.5 33t30.5 12q20 0 31.5 -12.5t11.5 -32.5q0 -23 -13 -35t-30 -12zM444 616q-26 0 -26 -32q0 -15 7 -25t19 -10q11 0 19 10t8 25q0 12 -7 22t-20 10zM633 539h-17v51q0 26 -18 26q-14 0 -18 -14q0 -1 -1 -4t-1 -4v-55h-15v53q0 24 -18 24
q-17 0 -21 -16q0 -1 -1 -3.5t-1 -4.5v-53h-14v65q0 17 -2 23h14l2 -15q8 17 27 17q21 0 24 -17h2q2 4 9 11q9 6 20 6q29 0 29 -37v-53zM784 592v-53h-16v51q0 26 -18 26q-16 0 -19 -14q-2 -2 -2 -8v-55h-16v53q0 24 -19 24q-14 0 -18 -16q-2 -2 -2 -8v-53h-15v65q0 17 -2 23
h15v-15h2q8 17 26 17t25 -17q1 1 4.5 5.5t5.5 5.5q9 6 21 6q28 0 28 -37zM881 588v-8h-62q0 -14 8.5 -21.5t20.5 -7.5t24 4l5 -12q-12 -4 -31 -4q-43 0 -43 43q0 21 11.5 34t29.5 13q19 0 28 -13t9 -28zM819 592h47q0 9 -5.5 17.5t-16.5 8.5t-18 -8.5t-7 -17.5zM901 600
q0 19 -2 27h14v-17h2q6 19 25 19h4v-15h-6q-17 0 -20 -20q0 -1 -1.5 -3.5t-1.5 -4.5v-47h-14v61zM1020 543q-8 -4 -25 -4q-43 0 -43 43q0 22 12.5 34.5t34.5 12.5q13 0 21 -4l-2 -13q-8 4 -19 4q-15 0 -23.5 -9t-8.5 -23q0 -15 9 -24t21 -9q13 0 21 4zM1047 662q10 0 10 -11
q0 -8 -10 -8q-11 0 -11 8q0 11 11 11zM1038 539v88h17v-88h-17zM1102 537q-13 0 -20 8t-7 18q0 33 51 33v2q0 20 -18 20q-11 0 -23 -8l-4 11q8 8 29 8q33 0 33 -35v-33q0 -16 2 -22h-15l-2 12q-14 -14 -26 -14zM1128 584q-38 0 -38 -19q0 -16 16 -16q15 0 20 14q0 1 1 3t1 3
v15zM1169 539v129h15v-129h-15zM1210 561l19 2q-7 -29 -19 -45h-10q6 15 10 43zM1286 539v120q20 5 31 5q22 0 33 -11q12 -9 12 -26t-10 -27q-12 -12 -37 -12h-12v-49h-17zM1303 649v-47q2 -2 12 -2q14 0 22.5 7.5t8.5 19.5q0 22 -29 22h-14zM1380 539v129h17v-129h-17z
M1489 543q-8 -4 -29 -4q-43 0 -43 43q0 21 11.5 34t29.5 13q19 0 28 -13t9 -28v-8h-61q0 -29 28 -29q13 0 25 4zM1458 618q-11 0 -17.5 -8.5t-6.5 -17.5h45q0 26 -21 26zM1577 539h-14v12h-2q-9 -14 -27 -14q-11 0 -19 8t-8 18q0 33 54 33v2q0 20 -21 20q-10 0 -22 -8l-5 11
q11 8 29 8q35 0 35 -35v-33v-22zM1561 569v15q-37 0 -37 -19q0 -16 14 -16t23 14v6zM1653 563q0 -11 -9 -17.5t-24 -6.5q-16 0 -25 6l4 10q12 -6 21 -6q18 0 18 14q0 7 -16 17q-25 6 -25 24q0 11 9 18t22 7q11 0 23 -4l-4 -13q-8 4 -19 4q-14 0 -14 -10q0 -11 16 -16
q23 -10 23 -27zM1745 588v-8h-62q0 -29 29 -29q13 0 25 4l2 -12q-8 -4 -29 -4q-43 0 -43 43q0 21 11.5 34t29.5 13q19 0 28 -13t9 -28zM1683 592h46q0 26 -21 26q-11 0 -18 -8.5t-7 -17.5zM1868 662h16l-43 -123h-18l-39 123h16l21 -60q10 -40 12 -47q12 41 14 47zM1903 662
q10 0 10 -11q0 -8 -10 -8q-11 0 -11 8q0 11 11 11zM1894 539v88h17v-88h-17zM1956 549q16 0 16 14q0 9 -16 17q-23 7 -23 24q0 11 9 18t22 7t21 -4l-5 -13q-4 4 -16 4q-16 0 -16 -10t16 -16q25 -9 25 -27q0 -11 -9 -17.5t-24 -6.5q-16 0 -25 6l4 10q12 -6 21 -6zM2017 662
q8 0 8 -11q0 -8 -10 -8q-8 0 -8 8q0 11 10 11zM2025 627v-88h-16v88h16zM2093 614h-22v-47q0 -16 12 -16h8l2 -10q-4 -2 -14 -2q-13 0 -19 6t-6 22v47h-12v13h12v22l17 4v-26h22v-13zM559 274h-35l2 21q-14 -25 -41 -25q-16 0 -27.5 13t-11.5 34q0 35 22.5 59.5t57.5 24.5
q11 0 17 -2l10 56h37l-25 -133q-6 -21 -6 -48zM502 301q22 0 28 35l7 33q-3 6 -15 6q-15 0 -26 -16t-11 -35q0 -23 17 -23zM655 436q0 -22 -22 -22q-17 0 -17 18q0 9 6 15t15 6q18 0 18 -17zM647 399l-24 -125h-37l24 125h37zM731 274l12 70q2 4 2 12q0 17 -12 17
q-10 0 -19 -12t-12 -31l-10 -56h-37l15 84q4 14 8 41h33l-4 -20h2q14 22 43 22q32 0 32 -32q0 -3 -1 -11.5t-1 -11.5l-14 -72h-37zM801 328l6 26h65l-4 -26h-67zM946 375q-16 0 -16 -10q0 -9 14 -15q29 -17 29 -35q0 -21 -16 -33t-42 -12q-23 0 -38 11l8 26q16 -8 33 -8
q16 0 16 10q0 9 -16 17q-25 11 -25 32q0 20 14.5 31.5t38.5 11.5t33 -6l-8 -26q-9 6 -25 6zM1047 371l-9 -43q-2 -4 -2 -15q0 -10 11 -10h10l-4 -29q-12 -4 -23 -4q-33 0 -33 27q0 4 1 12t1 13l11 49h-17l6 28h17l4 27l39 8l-8 -35h26l-4 -28h-26zM1190 274h-33l2 21
q-19 -25 -43 -25q-33 0 -33 35q0 15 2 25l15 69h37l-13 -67q-2 -6 -2 -17q0 -14 13 -14q21 0 30 41l11 57h36l-16 -84q-4 -29 -6 -41zM1335 274h-35l3 21q-14 -25 -41 -25q-16 0 -27.5 13t-11.5 34q0 35 22.5 59.5t57.5 24.5q10 0 16 -2l10 56h37l-25 -133q-6 -21 -6 -48z
M1278 301q23 0 29 35l6 33q-3 6 -15 6q-15 0 -25.5 -16t-10.5 -35q0 -23 16 -23zM1432 436q0 -10 -7 -16t-16 -6q-16 0 -16 18q0 21 20 21q8 0 13.5 -5t5.5 -12zM1423 399l-24 -125h-37l24 125h37zM1489 270q-25 0 -39 14.5t-14 39.5q0 33 20 55t53 22q25 0 39.5 -14.5
t14.5 -36.5q0 -34 -21 -57t-53 -23zM1505 375q-15 0 -23.5 -17t-8.5 -34q0 -25 20 -25q14 0 22.5 16t8.5 35q0 25 -19 25zM1591 270q-9 0 -14.5 7t-5.5 16q0 11 7 18.5t17 7.5t16.5 -6.5t6.5 -15.5q0 -11 -7.5 -19t-19.5 -8zM1722 373q-20 0 -31.5 -13.5t-11.5 -33.5
q0 -25 25 -25q13 0 25 4v-26q-18 -9 -35 -9q-23 0 -38.5 14.5t-15.5 37.5q0 34 23.5 56.5t58.5 22.5q17 0 25 -4l-8 -28q-8 4 -17 4zM1802 270q-24 0 -38.5 15t-14.5 39q0 33 21.5 55t54.5 22q24 0 38.5 -14.5t14.5 -36.5q0 -34 -22 -57t-54 -23zM1819 375
q-14 0 -22.5 -17.5t-8.5 -33.5q0 -25 20 -25q14 0 22.5 16t8.5 35q0 25 -20 25zM2036 274l12 68q0 3 1 8t1 8q0 15 -12 15q-21 0 -31 -43l-10 -56h-35l12 68q2 6 2 14q0 17 -12 17q-9 0 -18 -12t-13 -31l-10 -56h-35l17 84q3 20 6 41h31l-3 -20q16 22 43 22t31 -22
q14 22 43 22q14 0 22.5 -8.5t8.5 -23.5q0 -3 -1 -11.5t-1 -11.5l-14 -72h-35zM158 729q-69 3 -109.5 37t-38.5 82q0 37 15.5 52t33.5 15q28 0 37 -21.5t-6 -35.5q0 20 -20 24q-23 5 -33 -18q-4 -9 -4 -20q0 -41 34.5 -65.5t90.5 -24.5q116 0 116 172v6q0 23 -0.5 37t-4 39
t-10 39.5t-20 26t-32.5 11.5q-12 0 -14 -28v-78v-2v-129q0 -15 5 -22.5t10 -7.5l5 -1v-10h-111v10h5.5t9 6t6.5 17v2v221q0 33 -29 33q-9 0 -15.5 -5.5t-6.5 -11.5q0 -8 5 -11.5t10 -3.5l5 1q0 -33 -31 -33q-30 0 -30 31q0 23 20 36t43 13q20 -1 52 -8.5t61 -7.5
q139 0 139 -172q0 -49 -18 -92t-62 -74t-108 -29zM479 817v-10h-110v10q2 0 5 0.5t8.5 6.5t6.5 18v116q-1 11 -6 17.5t-9 6.5l-5 1v8l90 17v-160q0 -15 5 -22.5t10 -7.5zM426 1090q14 0 23.5 -10t9.5 -23t-9.5 -23t-23.5 -10t-23.5 10t-9.5 23t9.5 23t23.5 10zM592 983
q22 27 59 27q25 0 42.5 -16t17.5 -46v-100q0 -31 18 -31v-10h-108v10q2 0 4.5 0.5t7.5 6.5t6 18v112q0 22 -18 23q-20 2 -27 -18q-2 -5 -2 -11v-100q0 -15 5 -22.5t10 -7.5l5 -1v-10h-110v10q2 0 5 0.5t8.5 6.5t6.5 18v116q-1 11 -6 17.5t-10 6.5l-4 1v8l90 17v-25z
M924 1022q0 3 0.5 8t6 18.5t15.5 23.5t32.5 18t53.5 8q20 0 39 -5.5t25 -7.5t22 5q4 4 12 4v-74h-10q0 2 -1.5 6t-7.5 14t-14.5 17.5t-26.5 13.5t-40 6q-23 0 -38 -15.5t-14.5 -33t17.5 -24.5q8 -3 44.5 -13t59.5 -19t43.5 -33.5t18.5 -59.5q-2 -32 -32.5 -52t-88.5 -20
q-24 0 -43.5 2.5t-27.5 5t-14 1t-11 -8.5h-10v78h12q0 -25 29 -40.5t65 -15.5q37 0 52 17.5t4.5 38t-39.5 28.5q-2 1 -19.5 6t-23 7t-21.5 8.5t-22.5 11t-17.5 13t-16 17t-9 20.5t-4 26zM1284 999h-4.5t-7.5 -5.5t-6 -16.5l-2 -135q1 -12 6 -18t10 -6l4 -1v-10h-29
q-13 0 -20.5 1t-18.5 5.5t-16.5 17t-5.5 31.5v113q-1 12 -6 18t-10 6h-4v11q29 0 54.5 11t37.5 11v-22h18v-11zM1303 999v11h106v-11h-4.5t-7 -6t-4.5 -18v-107q0 -22 11.5 -27.5t23.5 4t12 23.5v103q0 14 -4 21t-8 7h-3v11h105v-11h-5t-8.5 -6t-7.5 -18v-133q2 -12 7 -18
t10 -6l4 -1v-10h-49q-16 0 -28.5 11.5t-12.5 21.5q-16 -33 -51 -33q-26 0 -47 16t-21 45v103q0 13 -4 20t-7 7.5t-7 0.5zM1831 762q0 -33 -39 -33q-18 0 -38.5 4.5t-45.5 25t-31 54.5q-15 -6 -32 -6q-41 0 -70 29.5t-29 72.5q0 41 29 71t70 30q14 0 30 -4v92l90 -19v-8
q-2 0 -4.5 -0.5t-7.5 -6.5t-6 -17v-213q3 -86 47 -89q-6 6 -6 17q0 8 6.5 14t15.5 6q8 0 14.5 -6.5t6.5 -13.5zM1645 821q30 0 30 88q0 44 -6 66t-24 22q-31 0 -31 -88t31 -88zM1886 817v-10h-108v10q2 0 5 0.5t8.5 6.5t6.5 18v116q-1 11 -6 17.5t-10 6.5l-4 1v8l90 17v-160
q0 -15 4.5 -22.5t9.5 -7.5zM1802 1057q0 13 10 23t23 10q12 0 22.5 -10t10.5 -23t-10.5 -23t-22.5 -10q-13 0 -23 10t-10 23zM2087 907q0 -41 -28.5 -70.5t-69.5 -29.5t-71 29.5t-30 70.5q0 43 30 73t71 30t69.5 -30t28.5 -73zM1989 823q18 0 24 22t6 64t-6 64t-24 22
q-31 0 -31 -86t31 -86zM25 299v51h376v-51h-376zM1081 1403h-227l174 219h227zM2091 1403h-215l174 219h41v-219zM399 1403h-227l174 219h227zM1421 1403h-227l174 219h227zM233 1622l-174 -219h-34v219h208zM741 1403h-229l174 219h227zM1763 1403h-227l172 219h229z
M1028 209h227l-174 -219h-227zM1876 -10l174 219h41v-219h-215zM346 209h227l-174 -219h-227zM1368 209h227l-174 -219h-227zM25 209h208l-174 -219h-34v219zM686 209h227l-172 -219h-229zM1708 209h229l-174 -219h-227z" />
    <glyph glyph-name="three" unicode="3" horiz-adv-x="2150" 
d="M57 1249l-10 -53h-31l27 143q20 4 39 4q24 0 37 -10q16 -10 16 -30q0 -28 -20 -41q-15 -15 -45 -15q-4 0 -8 1t-5 1zM70 1317l-9 -43h13q13 0 21.5 6.5t8.5 17.5q0 19 -22 19h-12zM246 1315h-56l-6 -31h54l-7 -27h-51l-6 -34h57l-4 -27h-90l29 145h86zM291 1253l-10 -57
h-31l26 143q20 4 39 4q27 0 37 -10q17 -7 17 -26q0 -30 -33 -41v-2q11 -5 14 -27q5 -39 6 -41h-32q0 2 -1 6.5t-2 12.5l-2 16q-2 22 -20 22h-8zM303 1317l-8 -39h12q31 0 31 22q0 19 -23 19q-3 0 -7 -1t-5 -1zM416 1221q22 0 22 16q0 11 -20 20q-29 17 -29 39q0 21 16 34
t41 13q15 0 33 -6l-8 -26q-18 6 -29 6q-20 0 -20 -14q0 -11 20 -21q29 -16 29 -39q0 -24 -16.5 -36.5t-42.5 -12.5t-41 10l10 27q13 -10 35 -10zM569 1343q27 0 42.5 -16t15.5 -43q0 -45 -25 -70q-23 -20 -53 -20q-28 0 -44 17t-16 44q0 41 27 68q20 20 53 20zM578 1231
q16 16 16 51q0 37 -29 37q-15 0 -24 -12q-19 -16 -19 -52q0 -34 31 -34q12 0 25 10zM674 1247l-10 -51h-29l27 145h36l19 -55q7 -21 14 -49q1 4 2.5 21.5t3.5 29.5l11 53h28l-26 -145h-33l-21 57q-10 33 -12 52h-2l-3 -22q-3 -22 -5 -36zM817 1235l-16 -39h-33l70 145h41
l16 -145h-33l-2 39h-43zM842 1288l-15 -31h31l-2 31q0 4 -1 14.5t-1 14.5q-2 -4 -6 -14.5t-6 -14.5zM938 1341h31l-21 -118h56l-7 -27h-86zM1114 1341l-16 -84q-2 -4 -2 -16q0 -20 22 -20q26 0 31 36l16 84h31l-16 -81q-6 -34 -21.5 -50t-44.5 -16q-49 0 -49 47q0 13 2 21
l16 79h31zM1237 1221q23 0 23 16q0 11 -21 20q-29 17 -29 39q0 21 16.5 34t41.5 13q14 0 32 -6l-8 -26q-18 6 -28 6q-21 0 -21 -14q0 -11 21 -21q28 -16 28 -39q0 -24 -16.5 -36.5t-42.5 -12.5t-41 10l10 27q13 -10 35 -10zM1413 1315h-53l-6 -31h51l-4 -27h-53l-7 -34h58
l-4 -27h-88l26 145h86zM1575 1214q-20 -20 -53 -20q-27 0 -43.5 17t-16.5 44q0 41 27 68q23 20 53 20q29 0 44.5 -16t15.5 -43q0 -43 -27 -70zM1495 1255q0 -34 31 -34q14 0 24 10q19 16 19 51q0 37 -31 37q-16 0 -25 -12q-18 -18 -18 -52zM1657 1305q0 -3 -10 -58l-11 -51
h-28l28 145h37l19 -55q9 -28 12 -49h2q0 21 6 51l10 53h29l-29 -145h-30l-21 57q-9 31 -14 52zM1780 1341h30l-22 -118h55l-4 -27h-88zM1907 1255l-13 -59h-30l12 59l-29 86h33l10 -36q4 -24 4 -27h2q6 12 15 27l20 36h37zM1997 1212q0 8 5.5 14.5t14.5 6.5q7 0 13 -5.5
t6 -13.5q0 -20 -21 -20q-7 0 -12.5 5t-5.5 13zM2056 1341l-22 -98h-25l14 98h33zM92 649h-51v-41h47v-14h-47v-55h-14v123h65v-13zM186 584q0 -23 -13 -35t-30 -12q-18 0 -29.5 13t-11.5 34t12 33t31 12t30 -12.5t11 -32.5zM117 584q0 -15 7.5 -25t18.5 -10q12 0 19.5 10
t7.5 25q0 12 -6.5 22t-18.5 10q-28 0 -28 -32zM223 539h-16v61v27h14v-17q6 19 25 19h4v-15h-4q-20 0 -23 -20v-8v-47zM299 600q0 28 17 46t46 18q15 0 29 -7l-4 -12q-9 6 -25 6q-47 0 -47 -51q0 -49 47 -49q16 0 25 6l4 -14q-12 -4 -33 -4q-27 0 -43 15.5t-16 45.5z
M444 537q-19 0 -31 13t-12 34t12.5 33t30.5 12q20 0 31.5 -12.5t11.5 -32.5q0 -23 -13 -35t-30 -12zM444 616q-26 0 -26 -32q0 -15 7 -25t19 -10q11 0 19 10t8 25q0 12 -7 22t-20 10zM633 539h-17v51q0 26 -18 26q-14 0 -18 -14q0 -1 -1 -4t-1 -4v-55h-15v53q0 24 -18 24
q-17 0 -21 -16q0 -1 -1 -3.5t-1 -4.5v-53h-14v65q0 17 -2 23h14l2 -15q8 17 27 17q21 0 24 -17h2q2 4 9 11q9 6 20 6q29 0 29 -37v-53zM784 592v-53h-16v51q0 26 -18 26q-16 0 -19 -14q-2 -2 -2 -8v-55h-16v53q0 24 -19 24q-14 0 -18 -16q-2 -2 -2 -8v-53h-15v65q0 17 -2 23
h15v-15h2q8 17 26 17t25 -17q1 1 4.5 5.5t5.5 5.5q9 6 21 6q28 0 28 -37zM881 588v-8h-62q0 -14 8.5 -21.5t20.5 -7.5t24 4l5 -12q-12 -4 -31 -4q-43 0 -43 43q0 21 11.5 34t29.5 13q19 0 28 -13t9 -28zM819 592h47q0 9 -5.5 17.5t-16.5 8.5t-18 -8.5t-7 -17.5zM901 600
q0 19 -2 27h14v-17h2q6 19 25 19h4v-15h-6q-17 0 -20 -20q0 -1 -1.5 -3.5t-1.5 -4.5v-47h-14v61zM1020 543q-8 -4 -25 -4q-43 0 -43 43q0 22 12.5 34.5t34.5 12.5q13 0 21 -4l-2 -13q-8 4 -19 4q-15 0 -23.5 -9t-8.5 -23q0 -15 9 -24t21 -9q13 0 21 4zM1047 662q10 0 10 -11
q0 -8 -10 -8q-11 0 -11 8q0 11 11 11zM1038 539v88h17v-88h-17zM1102 537q-13 0 -20 8t-7 18q0 33 51 33v2q0 20 -18 20q-11 0 -23 -8l-4 11q8 8 29 8q33 0 33 -35v-33q0 -16 2 -22h-15l-2 12q-14 -14 -26 -14zM1128 584q-38 0 -38 -19q0 -16 16 -16q15 0 20 14q0 1 1 3t1 3
v15zM1169 539v129h15v-129h-15zM1210 561l19 2q-7 -29 -19 -45h-10q6 15 10 43zM1286 539v120q20 5 31 5q22 0 33 -11q12 -9 12 -26t-10 -27q-12 -12 -37 -12h-12v-49h-17zM1303 649v-47q2 -2 12 -2q14 0 22.5 7.5t8.5 19.5q0 22 -29 22h-14zM1380 539v129h17v-129h-17z
M1489 543q-8 -4 -29 -4q-43 0 -43 43q0 21 11.5 34t29.5 13q19 0 28 -13t9 -28v-8h-61q0 -29 28 -29q13 0 25 4zM1458 618q-11 0 -17.5 -8.5t-6.5 -17.5h45q0 26 -21 26zM1577 539h-14v12h-2q-9 -14 -27 -14q-11 0 -19 8t-8 18q0 33 54 33v2q0 20 -21 20q-10 0 -22 -8l-5 11
q11 8 29 8q35 0 35 -35v-33v-22zM1561 569v15q-37 0 -37 -19q0 -16 14 -16t23 14v6zM1653 563q0 -11 -9 -17.5t-24 -6.5q-16 0 -25 6l4 10q12 -6 21 -6q18 0 18 14q0 7 -16 17q-25 6 -25 24q0 11 9 18t22 7q11 0 23 -4l-4 -13q-8 4 -19 4q-14 0 -14 -10q0 -11 16 -16
q23 -10 23 -27zM1745 588v-8h-62q0 -29 29 -29q13 0 25 4l2 -12q-8 -4 -29 -4q-43 0 -43 43q0 21 11.5 34t29.5 13q19 0 28 -13t9 -28zM1683 592h46q0 26 -21 26q-11 0 -18 -8.5t-7 -17.5zM1868 662h16l-43 -123h-18l-39 123h16l21 -60q10 -40 12 -47q12 41 14 47zM1903 662
q10 0 10 -11q0 -8 -10 -8q-11 0 -11 8q0 11 11 11zM1894 539v88h17v-88h-17zM1956 549q16 0 16 14q0 9 -16 17q-23 7 -23 24q0 11 9 18t22 7t21 -4l-5 -13q-4 4 -16 4q-16 0 -16 -10t16 -16q25 -9 25 -27q0 -11 -9 -17.5t-24 -6.5q-16 0 -25 6l4 10q12 -6 21 -6zM2017 662
q8 0 8 -11q0 -8 -10 -8q-8 0 -8 8q0 11 10 11zM2025 627v-88h-16v88h16zM2093 614h-22v-47q0 -16 12 -16h8l2 -10q-4 -2 -14 -2q-13 0 -19 6t-6 22v47h-12v13h12v22l17 4v-26h22v-13zM559 274h-35l2 21q-14 -25 -41 -25q-16 0 -27.5 13t-11.5 34q0 35 22.5 59.5t57.5 24.5
q11 0 17 -2l10 56h37l-25 -133q-6 -21 -6 -48zM502 301q22 0 28 35l7 33q-3 6 -15 6q-15 0 -26 -16t-11 -35q0 -23 17 -23zM655 436q0 -22 -22 -22q-17 0 -17 18q0 9 6 15t15 6q18 0 18 -17zM647 399l-24 -125h-37l24 125h37zM731 274l12 70q2 4 2 12q0 17 -12 17
q-10 0 -19 -12t-12 -31l-10 -56h-37l15 84q4 14 8 41h33l-4 -20h2q14 22 43 22q32 0 32 -32q0 -3 -1 -11.5t-1 -11.5l-14 -72h-37zM801 328l6 26h65l-4 -26h-67zM946 375q-16 0 -16 -10q0 -9 14 -15q29 -17 29 -35q0 -21 -16 -33t-42 -12q-23 0 -38 11l8 26q16 -8 33 -8
q16 0 16 10q0 9 -16 17q-25 11 -25 32q0 20 14.5 31.5t38.5 11.5t33 -6l-8 -26q-9 6 -25 6zM1047 371l-9 -43q-2 -4 -2 -15q0 -10 11 -10h10l-4 -29q-12 -4 -23 -4q-33 0 -33 27q0 4 1 12t1 13l11 49h-17l6 28h17l4 27l39 8l-8 -35h26l-4 -28h-26zM1190 274h-33l2 21
q-19 -25 -43 -25q-33 0 -33 35q0 15 2 25l15 69h37l-13 -67q-2 -6 -2 -17q0 -14 13 -14q21 0 30 41l11 57h36l-16 -84q-4 -29 -6 -41zM1335 274h-35l3 21q-14 -25 -41 -25q-16 0 -27.5 13t-11.5 34q0 35 22.5 59.5t57.5 24.5q10 0 16 -2l10 56h37l-25 -133q-6 -21 -6 -48z
M1278 301q23 0 29 35l6 33q-3 6 -15 6q-15 0 -25.5 -16t-10.5 -35q0 -23 16 -23zM1432 436q0 -10 -7 -16t-16 -6q-16 0 -16 18q0 21 20 21q8 0 13.5 -5t5.5 -12zM1423 399l-24 -125h-37l24 125h37zM1489 270q-25 0 -39 14.5t-14 39.5q0 33 20 55t53 22q25 0 39.5 -14.5
t14.5 -36.5q0 -34 -21 -57t-53 -23zM1505 375q-15 0 -23.5 -17t-8.5 -34q0 -25 20 -25q14 0 22.5 16t8.5 35q0 25 -19 25zM1591 270q-9 0 -14.5 7t-5.5 16q0 11 7 18.5t17 7.5t16.5 -6.5t6.5 -15.5q0 -11 -7.5 -19t-19.5 -8zM1722 373q-20 0 -31.5 -13.5t-11.5 -33.5
q0 -25 25 -25q13 0 25 4v-26q-18 -9 -35 -9q-23 0 -38.5 14.5t-15.5 37.5q0 34 23.5 56.5t58.5 22.5q17 0 25 -4l-8 -28q-8 4 -17 4zM1802 270q-24 0 -38.5 15t-14.5 39q0 33 21.5 55t54.5 22q24 0 38.5 -14.5t14.5 -36.5q0 -34 -22 -57t-54 -23zM1819 375
q-14 0 -22.5 -17.5t-8.5 -33.5q0 -25 20 -25q14 0 22.5 16t8.5 35q0 25 -20 25zM2036 274l12 68q0 3 1 8t1 8q0 15 -12 15q-21 0 -31 -43l-10 -56h-35l12 68q2 6 2 14q0 17 -12 17q-9 0 -18 -12t-13 -31l-10 -56h-35l17 84q3 20 6 41h31l-3 -20q16 22 43 22t31 -22
q14 22 43 22q14 0 22.5 -8.5t8.5 -23.5q0 -3 -1 -11.5t-1 -11.5l-14 -72h-35zM158 729q-69 3 -109.5 37t-38.5 82q0 37 15.5 52t33.5 15q28 0 37 -21.5t-6 -35.5q0 20 -20 24q-23 5 -33 -18q-4 -9 -4 -20q0 -41 34.5 -65.5t90.5 -24.5q116 0 116 172v6q0 23 -0.5 37t-4 39
t-10 39.5t-20 26t-32.5 11.5q-12 0 -14 -28v-78v-2v-129q0 -15 5 -22.5t10 -7.5l5 -1v-10h-111v10h5.5t9 6t6.5 17v2v221q0 33 -29 33q-9 0 -15.5 -5.5t-6.5 -11.5q0 -8 5 -11.5t10 -3.5l5 1q0 -33 -31 -33q-30 0 -30 31q0 23 20 36t43 13q20 -1 52 -8.5t61 -7.5
q139 0 139 -172q0 -49 -18 -92t-62 -74t-108 -29zM479 817v-10h-110v10q2 0 5 0.5t8.5 6.5t6.5 18v116q-1 11 -6 17.5t-9 6.5l-5 1v8l90 17v-160q0 -15 5 -22.5t10 -7.5zM426 1090q14 0 23.5 -10t9.5 -23t-9.5 -23t-23.5 -10t-23.5 10t-9.5 23t9.5 23t23.5 10zM592 983
q22 27 59 27q25 0 42.5 -16t17.5 -46v-100q0 -31 18 -31v-10h-108v10q2 0 4.5 0.5t7.5 6.5t6 18v112q0 22 -18 23q-20 2 -27 -18q-2 -5 -2 -11v-100q0 -15 5 -22.5t10 -7.5l5 -1v-10h-110v10q2 0 5 0.5t8.5 6.5t6.5 18v116q-1 11 -6 17.5t-10 6.5l-4 1v8l90 17v-25z
M924 1022q0 3 0.5 8t6 18.5t15.5 23.5t32.5 18t53.5 8q20 0 39 -5.5t25 -7.5t22 5q4 4 12 4v-74h-10q0 2 -1.5 6t-7.5 14t-14.5 17.5t-26.5 13.5t-40 6q-23 0 -38 -15.5t-14.5 -33t17.5 -24.5q8 -3 44.5 -13t59.5 -19t43.5 -33.5t18.5 -59.5q-2 -32 -32.5 -52t-88.5 -20
q-24 0 -43.5 2.5t-27.5 5t-14 1t-11 -8.5h-10v78h12q0 -25 29 -40.5t65 -15.5q37 0 52 17.5t4.5 38t-39.5 28.5q-2 1 -19.5 6t-23 7t-21.5 8.5t-22.5 11t-17.5 13t-16 17t-9 20.5t-4 26zM1284 999h-4.5t-7.5 -5.5t-6 -16.5l-2 -135q1 -12 6 -18t10 -6l4 -1v-10h-29
q-13 0 -20.5 1t-18.5 5.5t-16.5 17t-5.5 31.5v113q-1 12 -6 18t-10 6h-4v11q29 0 54.5 11t37.5 11v-22h18v-11zM1303 999v11h106v-11h-4.5t-7 -6t-4.5 -18v-107q0 -22 11.5 -27.5t23.5 4t12 23.5v103q0 14 -4 21t-8 7h-3v11h105v-11h-5t-8.5 -6t-7.5 -18v-133q2 -12 7 -18
t10 -6l4 -1v-10h-49q-16 0 -28.5 11.5t-12.5 21.5q-16 -33 -51 -33q-26 0 -47 16t-21 45v103q0 13 -4 20t-7 7.5t-7 0.5zM1831 762q0 -33 -39 -33q-18 0 -38.5 4.5t-45.5 25t-31 54.5q-15 -6 -32 -6q-41 0 -70 29.5t-29 72.5q0 41 29 71t70 30q14 0 30 -4v92l90 -19v-8
q-2 0 -4.5 -0.5t-7.5 -6.5t-6 -17v-213q3 -86 47 -89q-6 6 -6 17q0 8 6.5 14t15.5 6q8 0 14.5 -6.5t6.5 -13.5zM1645 821q30 0 30 88q0 44 -6 66t-24 22q-31 0 -31 -88t31 -88zM1886 817v-10h-108v10q2 0 5 0.5t8.5 6.5t6.5 18v116q-1 11 -6 17.5t-10 6.5l-4 1v8l90 17v-160
q0 -15 4.5 -22.5t9.5 -7.5zM1802 1057q0 13 10 23t23 10q12 0 22.5 -10t10.5 -23t-10.5 -23t-22.5 -10q-13 0 -23 10t-10 23zM2087 907q0 -41 -28.5 -70.5t-69.5 -29.5t-71 29.5t-30 70.5q0 43 30 73t71 30t69.5 -30t28.5 -73zM1989 823q18 0 24 22t6 64t-6 64t-24 22
q-31 0 -31 -86t31 -86zM25 299v51h376v-51h-376zM1081 1403h-227l174 219h227zM2091 1403h-215l174 219h41v-219zM399 1403h-227l174 219h227zM1421 1403h-227l174 219h227zM233 1622l-174 -219h-34v219h208zM741 1403h-229l174 219h227zM1763 1403h-227l172 219h229z
M1028 209h227l-174 -219h-227zM1876 -10l174 219h41v-219h-215zM346 209h227l-174 -219h-227zM1368 209h227l-174 -219h-227zM25 209h208l-174 -219h-34v219zM686 209h227l-172 -219h-229zM1708 209h229l-174 -219h-227z" />
    <glyph glyph-name="four" unicode="4" horiz-adv-x="2150" 
d="M57 1249l-10 -53h-31l27 143q20 4 39 4q24 0 37 -10q16 -10 16 -30q0 -28 -20 -41q-15 -15 -45 -15q-4 0 -8 1t-5 1zM70 1317l-9 -43h13q13 0 21.5 6.5t8.5 17.5q0 19 -22 19h-12zM246 1315h-56l-6 -31h54l-7 -27h-51l-6 -34h57l-4 -27h-90l29 145h86zM291 1253l-10 -57
h-31l26 143q20 4 39 4q27 0 37 -10q17 -7 17 -26q0 -30 -33 -41v-2q11 -5 14 -27q5 -39 6 -41h-32q0 2 -1 6.5t-2 12.5l-2 16q-2 22 -20 22h-8zM303 1317l-8 -39h12q31 0 31 22q0 19 -23 19q-3 0 -7 -1t-5 -1zM416 1221q22 0 22 16q0 11 -20 20q-29 17 -29 39q0 21 16 34
t41 13q15 0 33 -6l-8 -26q-18 6 -29 6q-20 0 -20 -14q0 -11 20 -21q29 -16 29 -39q0 -24 -16.5 -36.5t-42.5 -12.5t-41 10l10 27q13 -10 35 -10zM569 1343q27 0 42.5 -16t15.5 -43q0 -45 -25 -70q-23 -20 -53 -20q-28 0 -44 17t-16 44q0 41 27 68q20 20 53 20zM578 1231
q16 16 16 51q0 37 -29 37q-15 0 -24 -12q-19 -16 -19 -52q0 -34 31 -34q12 0 25 10zM674 1247l-10 -51h-29l27 145h36l19 -55q7 -21 14 -49q1 4 2.5 21.5t3.5 29.5l11 53h28l-26 -145h-33l-21 57q-10 33 -12 52h-2l-3 -22q-3 -22 -5 -36zM817 1235l-16 -39h-33l70 145h41
l16 -145h-33l-2 39h-43zM842 1288l-15 -31h31l-2 31q0 4 -1 14.5t-1 14.5q-2 -4 -6 -14.5t-6 -14.5zM938 1341h31l-21 -118h56l-7 -27h-86zM1114 1341l-16 -84q-2 -4 -2 -16q0 -20 22 -20q26 0 31 36l16 84h31l-16 -81q-6 -34 -21.5 -50t-44.5 -16q-49 0 -49 47q0 13 2 21
l16 79h31zM1237 1221q23 0 23 16q0 11 -21 20q-29 17 -29 39q0 21 16.5 34t41.5 13q14 0 32 -6l-8 -26q-18 6 -28 6q-21 0 -21 -14q0 -11 21 -21q28 -16 28 -39q0 -24 -16.5 -36.5t-42.5 -12.5t-41 10l10 27q13 -10 35 -10zM1413 1315h-53l-6 -31h51l-4 -27h-53l-7 -34h58
l-4 -27h-88l26 145h86zM1575 1214q-20 -20 -53 -20q-27 0 -43.5 17t-16.5 44q0 41 27 68q23 20 53 20q29 0 44.5 -16t15.5 -43q0 -43 -27 -70zM1495 1255q0 -34 31 -34q14 0 24 10q19 16 19 51q0 37 -31 37q-16 0 -25 -12q-18 -18 -18 -52zM1657 1305q0 -3 -10 -58l-11 -51
h-28l28 145h37l19 -55q9 -28 12 -49h2q0 21 6 51l10 53h29l-29 -145h-30l-21 57q-9 31 -14 52zM1780 1341h30l-22 -118h55l-4 -27h-88zM1907 1255l-13 -59h-30l12 59l-29 86h33l10 -36q4 -24 4 -27h2q6 12 15 27l20 36h37zM1997 1212q0 8 5.5 14.5t14.5 6.5q7 0 13 -5.5
t6 -13.5q0 -20 -21 -20q-7 0 -12.5 5t-5.5 13zM2056 1341l-22 -98h-25l14 98h33zM92 649h-51v-41h47v-14h-47v-55h-14v123h65v-13zM186 584q0 -23 -13 -35t-30 -12q-18 0 -29.5 13t-11.5 34t12 33t31 12t30 -12.5t11 -32.5zM117 584q0 -15 7.5 -25t18.5 -10q12 0 19.5 10
t7.5 25q0 12 -6.5 22t-18.5 10q-28 0 -28 -32zM223 539h-16v61v27h14v-17q6 19 25 19h4v-15h-4q-20 0 -23 -20v-8v-47zM299 600q0 28 17 46t46 18q15 0 29 -7l-4 -12q-9 6 -25 6q-47 0 -47 -51q0 -49 47 -49q16 0 25 6l4 -14q-12 -4 -33 -4q-27 0 -43 15.5t-16 45.5z
M444 537q-19 0 -31 13t-12 34t12.5 33t30.5 12q20 0 31.5 -12.5t11.5 -32.5q0 -23 -13 -35t-30 -12zM444 616q-26 0 -26 -32q0 -15 7 -25t19 -10q11 0 19 10t8 25q0 12 -7 22t-20 10zM633 539h-17v51q0 26 -18 26q-14 0 -18 -14q0 -1 -1 -4t-1 -4v-55h-15v53q0 24 -18 24
q-17 0 -21 -16q0 -1 -1 -3.5t-1 -4.5v-53h-14v65q0 17 -2 23h14l2 -15q8 17 27 17q21 0 24 -17h2q2 4 9 11q9 6 20 6q29 0 29 -37v-53zM784 592v-53h-16v51q0 26 -18 26q-16 0 -19 -14q-2 -2 -2 -8v-55h-16v53q0 24 -19 24q-14 0 -18 -16q-2 -2 -2 -8v-53h-15v65q0 17 -2 23
h15v-15h2q8 17 26 17t25 -17q1 1 4.5 5.5t5.5 5.5q9 6 21 6q28 0 28 -37zM881 588v-8h-62q0 -14 8.5 -21.5t20.5 -7.5t24 4l5 -12q-12 -4 -31 -4q-43 0 -43 43q0 21 11.5 34t29.5 13q19 0 28 -13t9 -28zM819 592h47q0 9 -5.5 17.5t-16.5 8.5t-18 -8.5t-7 -17.5zM901 600
q0 19 -2 27h14v-17h2q6 19 25 19h4v-15h-6q-17 0 -20 -20q0 -1 -1.5 -3.5t-1.5 -4.5v-47h-14v61zM1020 543q-8 -4 -25 -4q-43 0 -43 43q0 22 12.5 34.5t34.5 12.5q13 0 21 -4l-2 -13q-8 4 -19 4q-15 0 -23.5 -9t-8.5 -23q0 -15 9 -24t21 -9q13 0 21 4zM1047 662q10 0 10 -11
q0 -8 -10 -8q-11 0 -11 8q0 11 11 11zM1038 539v88h17v-88h-17zM1102 537q-13 0 -20 8t-7 18q0 33 51 33v2q0 20 -18 20q-11 0 -23 -8l-4 11q8 8 29 8q33 0 33 -35v-33q0 -16 2 -22h-15l-2 12q-14 -14 -26 -14zM1128 584q-38 0 -38 -19q0 -16 16 -16q15 0 20 14q0 1 1 3t1 3
v15zM1169 539v129h15v-129h-15zM1210 561l19 2q-7 -29 -19 -45h-10q6 15 10 43zM1286 539v120q20 5 31 5q22 0 33 -11q12 -9 12 -26t-10 -27q-12 -12 -37 -12h-12v-49h-17zM1303 649v-47q2 -2 12 -2q14 0 22.5 7.5t8.5 19.5q0 22 -29 22h-14zM1380 539v129h17v-129h-17z
M1489 543q-8 -4 -29 -4q-43 0 -43 43q0 21 11.5 34t29.5 13q19 0 28 -13t9 -28v-8h-61q0 -29 28 -29q13 0 25 4zM1458 618q-11 0 -17.5 -8.5t-6.5 -17.5h45q0 26 -21 26zM1577 539h-14v12h-2q-9 -14 -27 -14q-11 0 -19 8t-8 18q0 33 54 33v2q0 20 -21 20q-10 0 -22 -8l-5 11
q11 8 29 8q35 0 35 -35v-33v-22zM1561 569v15q-37 0 -37 -19q0 -16 14 -16t23 14v6zM1653 563q0 -11 -9 -17.5t-24 -6.5q-16 0 -25 6l4 10q12 -6 21 -6q18 0 18 14q0 7 -16 17q-25 6 -25 24q0 11 9 18t22 7q11 0 23 -4l-4 -13q-8 4 -19 4q-14 0 -14 -10q0 -11 16 -16
q23 -10 23 -27zM1745 588v-8h-62q0 -29 29 -29q13 0 25 4l2 -12q-8 -4 -29 -4q-43 0 -43 43q0 21 11.5 34t29.5 13q19 0 28 -13t9 -28zM1683 592h46q0 26 -21 26q-11 0 -18 -8.5t-7 -17.5zM1868 662h16l-43 -123h-18l-39 123h16l21 -60q10 -40 12 -47q12 41 14 47zM1903 662
q10 0 10 -11q0 -8 -10 -8q-11 0 -11 8q0 11 11 11zM1894 539v88h17v-88h-17zM1956 549q16 0 16 14q0 9 -16 17q-23 7 -23 24q0 11 9 18t22 7t21 -4l-5 -13q-4 4 -16 4q-16 0 -16 -10t16 -16q25 -9 25 -27q0 -11 -9 -17.5t-24 -6.5q-16 0 -25 6l4 10q12 -6 21 -6zM2017 662
q8 0 8 -11q0 -8 -10 -8q-8 0 -8 8q0 11 10 11zM2025 627v-88h-16v88h16zM2093 614h-22v-47q0 -16 12 -16h8l2 -10q-4 -2 -14 -2q-13 0 -19 6t-6 22v47h-12v13h12v22l17 4v-26h22v-13zM559 274h-35l2 21q-14 -25 -41 -25q-16 0 -27.5 13t-11.5 34q0 35 22.5 59.5t57.5 24.5
q11 0 17 -2l10 56h37l-25 -133q-6 -21 -6 -48zM502 301q22 0 28 35l7 33q-3 6 -15 6q-15 0 -26 -16t-11 -35q0 -23 17 -23zM655 436q0 -22 -22 -22q-17 0 -17 18q0 9 6 15t15 6q18 0 18 -17zM647 399l-24 -125h-37l24 125h37zM731 274l12 70q2 4 2 12q0 17 -12 17
q-10 0 -19 -12t-12 -31l-10 -56h-37l15 84q4 14 8 41h33l-4 -20h2q14 22 43 22q32 0 32 -32q0 -3 -1 -11.5t-1 -11.5l-14 -72h-37zM801 328l6 26h65l-4 -26h-67zM946 375q-16 0 -16 -10q0 -9 14 -15q29 -17 29 -35q0 -21 -16 -33t-42 -12q-23 0 -38 11l8 26q16 -8 33 -8
q16 0 16 10q0 9 -16 17q-25 11 -25 32q0 20 14.5 31.5t38.5 11.5t33 -6l-8 -26q-9 6 -25 6zM1047 371l-9 -43q-2 -4 -2 -15q0 -10 11 -10h10l-4 -29q-12 -4 -23 -4q-33 0 -33 27q0 4 1 12t1 13l11 49h-17l6 28h17l4 27l39 8l-8 -35h26l-4 -28h-26zM1190 274h-33l2 21
q-19 -25 -43 -25q-33 0 -33 35q0 15 2 25l15 69h37l-13 -67q-2 -6 -2 -17q0 -14 13 -14q21 0 30 41l11 57h36l-16 -84q-4 -29 -6 -41zM1335 274h-35l3 21q-14 -25 -41 -25q-16 0 -27.5 13t-11.5 34q0 35 22.5 59.5t57.5 24.5q10 0 16 -2l10 56h37l-25 -133q-6 -21 -6 -48z
M1278 301q23 0 29 35l6 33q-3 6 -15 6q-15 0 -25.5 -16t-10.5 -35q0 -23 16 -23zM1432 436q0 -10 -7 -16t-16 -6q-16 0 -16 18q0 21 20 21q8 0 13.5 -5t5.5 -12zM1423 399l-24 -125h-37l24 125h37zM1489 270q-25 0 -39 14.5t-14 39.5q0 33 20 55t53 22q25 0 39.5 -14.5
t14.5 -36.5q0 -34 -21 -57t-53 -23zM1505 375q-15 0 -23.5 -17t-8.5 -34q0 -25 20 -25q14 0 22.5 16t8.5 35q0 25 -19 25zM1591 270q-9 0 -14.5 7t-5.5 16q0 11 7 18.5t17 7.5t16.5 -6.5t6.5 -15.5q0 -11 -7.5 -19t-19.5 -8zM1722 373q-20 0 -31.5 -13.5t-11.5 -33.5
q0 -25 25 -25q13 0 25 4v-26q-18 -9 -35 -9q-23 0 -38.5 14.5t-15.5 37.5q0 34 23.5 56.5t58.5 22.5q17 0 25 -4l-8 -28q-8 4 -17 4zM1802 270q-24 0 -38.5 15t-14.5 39q0 33 21.5 55t54.5 22q24 0 38.5 -14.5t14.5 -36.5q0 -34 -22 -57t-54 -23zM1819 375
q-14 0 -22.5 -17.5t-8.5 -33.5q0 -25 20 -25q14 0 22.5 16t8.5 35q0 25 -20 25zM2036 274l12 68q0 3 1 8t1 8q0 15 -12 15q-21 0 -31 -43l-10 -56h-35l12 68q2 6 2 14q0 17 -12 17q-9 0 -18 -12t-13 -31l-10 -56h-35l17 84q3 20 6 41h31l-3 -20q16 22 43 22t31 -22
q14 22 43 22q14 0 22.5 -8.5t8.5 -23.5q0 -3 -1 -11.5t-1 -11.5l-14 -72h-35zM158 729q-69 3 -109.5 37t-38.5 82q0 37 15.5 52t33.5 15q28 0 37 -21.5t-6 -35.5q0 20 -20 24q-23 5 -33 -18q-4 -9 -4 -20q0 -41 34.5 -65.5t90.5 -24.5q116 0 116 172v6q0 23 -0.5 37t-4 39
t-10 39.5t-20 26t-32.5 11.5q-12 0 -14 -28v-78v-2v-129q0 -15 5 -22.5t10 -7.5l5 -1v-10h-111v10h5.5t9 6t6.5 17v2v221q0 33 -29 33q-9 0 -15.5 -5.5t-6.5 -11.5q0 -8 5 -11.5t10 -3.5l5 1q0 -33 -31 -33q-30 0 -30 31q0 23 20 36t43 13q20 -1 52 -8.5t61 -7.5
q139 0 139 -172q0 -49 -18 -92t-62 -74t-108 -29zM479 817v-10h-110v10q2 0 5 0.5t8.5 6.5t6.5 18v116q-1 11 -6 17.5t-9 6.5l-5 1v8l90 17v-160q0 -15 5 -22.5t10 -7.5zM426 1090q14 0 23.5 -10t9.5 -23t-9.5 -23t-23.5 -10t-23.5 10t-9.5 23t9.5 23t23.5 10zM592 983
q22 27 59 27q25 0 42.5 -16t17.5 -46v-100q0 -31 18 -31v-10h-108v10q2 0 4.5 0.5t7.5 6.5t6 18v112q0 22 -18 23q-20 2 -27 -18q-2 -5 -2 -11v-100q0 -15 5 -22.5t10 -7.5l5 -1v-10h-110v10q2 0 5 0.5t8.5 6.5t6.5 18v116q-1 11 -6 17.5t-10 6.5l-4 1v8l90 17v-25z
M924 1022q0 3 0.5 8t6 18.5t15.5 23.5t32.5 18t53.5 8q20 0 39 -5.5t25 -7.5t22 5q4 4 12 4v-74h-10q0 2 -1.5 6t-7.5 14t-14.5 17.5t-26.5 13.5t-40 6q-23 0 -38 -15.5t-14.5 -33t17.5 -24.5q8 -3 44.5 -13t59.5 -19t43.5 -33.5t18.5 -59.5q-2 -32 -32.5 -52t-88.5 -20
q-24 0 -43.5 2.5t-27.5 5t-14 1t-11 -8.5h-10v78h12q0 -25 29 -40.5t65 -15.5q37 0 52 17.5t4.5 38t-39.5 28.5q-2 1 -19.5 6t-23 7t-21.5 8.5t-22.5 11t-17.5 13t-16 17t-9 20.5t-4 26zM1284 999h-4.5t-7.5 -5.5t-6 -16.5l-2 -135q1 -12 6 -18t10 -6l4 -1v-10h-29
q-13 0 -20.5 1t-18.5 5.5t-16.5 17t-5.5 31.5v113q-1 12 -6 18t-10 6h-4v11q29 0 54.5 11t37.5 11v-22h18v-11zM1303 999v11h106v-11h-4.5t-7 -6t-4.5 -18v-107q0 -22 11.5 -27.5t23.5 4t12 23.5v103q0 14 -4 21t-8 7h-3v11h105v-11h-5t-8.5 -6t-7.5 -18v-133q2 -12 7 -18
t10 -6l4 -1v-10h-49q-16 0 -28.5 11.5t-12.5 21.5q-16 -33 -51 -33q-26 0 -47 16t-21 45v103q0 13 -4 20t-7 7.5t-7 0.5zM1831 762q0 -33 -39 -33q-18 0 -38.5 4.5t-45.5 25t-31 54.5q-15 -6 -32 -6q-41 0 -70 29.5t-29 72.5q0 41 29 71t70 30q14 0 30 -4v92l90 -19v-8
q-2 0 -4.5 -0.5t-7.5 -6.5t-6 -17v-213q3 -86 47 -89q-6 6 -6 17q0 8 6.5 14t15.5 6q8 0 14.5 -6.5t6.5 -13.5zM1645 821q30 0 30 88q0 44 -6 66t-24 22q-31 0 -31 -88t31 -88zM1886 817v-10h-108v10q2 0 5 0.5t8.5 6.5t6.5 18v116q-1 11 -6 17.5t-10 6.5l-4 1v8l90 17v-160
q0 -15 4.5 -22.5t9.5 -7.5zM1802 1057q0 13 10 23t23 10q12 0 22.5 -10t10.5 -23t-10.5 -23t-22.5 -10q-13 0 -23 10t-10 23zM2087 907q0 -41 -28.5 -70.5t-69.5 -29.5t-71 29.5t-30 70.5q0 43 30 73t71 30t69.5 -30t28.5 -73zM1989 823q18 0 24 22t6 64t-6 64t-24 22
q-31 0 -31 -86t31 -86zM25 299v51h376v-51h-376zM1081 1403h-227l174 219h227zM2091 1403h-215l174 219h41v-219zM399 1403h-227l174 219h227zM1421 1403h-227l174 219h227zM233 1622l-174 -219h-34v219h208zM741 1403h-229l174 219h227zM1763 1403h-227l172 219h229z
M1028 209h227l-174 -219h-227zM1876 -10l174 219h41v-219h-215zM346 209h227l-174 -219h-227zM1368 209h227l-174 -219h-227zM25 209h208l-174 -219h-34v219zM686 209h227l-172 -219h-229zM1708 209h229l-174 -219h-227z" />
    <glyph glyph-name="five" unicode="5" horiz-adv-x="2150" 
d="M57 1249l-10 -53h-31l27 143q20 4 39 4q24 0 37 -10q16 -10 16 -30q0 -28 -20 -41q-15 -15 -45 -15q-4 0 -8 1t-5 1zM70 1317l-9 -43h13q13 0 21.5 6.5t8.5 17.5q0 19 -22 19h-12zM246 1315h-56l-6 -31h54l-7 -27h-51l-6 -34h57l-4 -27h-90l29 145h86zM291 1253l-10 -57
h-31l26 143q20 4 39 4q27 0 37 -10q17 -7 17 -26q0 -30 -33 -41v-2q11 -5 14 -27q5 -39 6 -41h-32q0 2 -1 6.5t-2 12.5l-2 16q-2 22 -20 22h-8zM303 1317l-8 -39h12q31 0 31 22q0 19 -23 19q-3 0 -7 -1t-5 -1zM416 1221q22 0 22 16q0 11 -20 20q-29 17 -29 39q0 21 16 34
t41 13q15 0 33 -6l-8 -26q-18 6 -29 6q-20 0 -20 -14q0 -11 20 -21q29 -16 29 -39q0 -24 -16.5 -36.5t-42.5 -12.5t-41 10l10 27q13 -10 35 -10zM569 1343q27 0 42.5 -16t15.5 -43q0 -45 -25 -70q-23 -20 -53 -20q-28 0 -44 17t-16 44q0 41 27 68q20 20 53 20zM578 1231
q16 16 16 51q0 37 -29 37q-15 0 -24 -12q-19 -16 -19 -52q0 -34 31 -34q12 0 25 10zM674 1247l-10 -51h-29l27 145h36l19 -55q7 -21 14 -49q1 4 2.5 21.5t3.5 29.5l11 53h28l-26 -145h-33l-21 57q-10 33 -12 52h-2l-3 -22q-3 -22 -5 -36zM817 1235l-16 -39h-33l70 145h41
l16 -145h-33l-2 39h-43zM842 1288l-15 -31h31l-2 31q0 4 -1 14.5t-1 14.5q-2 -4 -6 -14.5t-6 -14.5zM938 1341h31l-21 -118h56l-7 -27h-86zM1114 1341l-16 -84q-2 -4 -2 -16q0 -20 22 -20q26 0 31 36l16 84h31l-16 -81q-6 -34 -21.5 -50t-44.5 -16q-49 0 -49 47q0 13 2 21
l16 79h31zM1237 1221q23 0 23 16q0 11 -21 20q-29 17 -29 39q0 21 16.5 34t41.5 13q14 0 32 -6l-8 -26q-18 6 -28 6q-21 0 -21 -14q0 -11 21 -21q28 -16 28 -39q0 -24 -16.5 -36.5t-42.5 -12.5t-41 10l10 27q13 -10 35 -10zM1413 1315h-53l-6 -31h51l-4 -27h-53l-7 -34h58
l-4 -27h-88l26 145h86zM1575 1214q-20 -20 -53 -20q-27 0 -43.5 17t-16.5 44q0 41 27 68q23 20 53 20q29 0 44.5 -16t15.5 -43q0 -43 -27 -70zM1495 1255q0 -34 31 -34q14 0 24 10q19 16 19 51q0 37 -31 37q-16 0 -25 -12q-18 -18 -18 -52zM1657 1305q0 -3 -10 -58l-11 -51
h-28l28 145h37l19 -55q9 -28 12 -49h2q0 21 6 51l10 53h29l-29 -145h-30l-21 57q-9 31 -14 52zM1780 1341h30l-22 -118h55l-4 -27h-88zM1907 1255l-13 -59h-30l12 59l-29 86h33l10 -36q4 -24 4 -27h2q6 12 15 27l20 36h37zM1997 1212q0 8 5.5 14.5t14.5 6.5q7 0 13 -5.5
t6 -13.5q0 -20 -21 -20q-7 0 -12.5 5t-5.5 13zM2056 1341l-22 -98h-25l14 98h33zM92 649h-51v-41h47v-14h-47v-55h-14v123h65v-13zM186 584q0 -23 -13 -35t-30 -12q-18 0 -29.5 13t-11.5 34t12 33t31 12t30 -12.5t11 -32.5zM117 584q0 -15 7.5 -25t18.5 -10q12 0 19.5 10
t7.5 25q0 12 -6.5 22t-18.5 10q-28 0 -28 -32zM223 539h-16v61v27h14v-17q6 19 25 19h4v-15h-4q-20 0 -23 -20v-8v-47zM299 600q0 28 17 46t46 18q15 0 29 -7l-4 -12q-9 6 -25 6q-47 0 -47 -51q0 -49 47 -49q16 0 25 6l4 -14q-12 -4 -33 -4q-27 0 -43 15.5t-16 45.5z
M444 537q-19 0 -31 13t-12 34t12.5 33t30.5 12q20 0 31.5 -12.5t11.5 -32.5q0 -23 -13 -35t-30 -12zM444 616q-26 0 -26 -32q0 -15 7 -25t19 -10q11 0 19 10t8 25q0 12 -7 22t-20 10zM633 539h-17v51q0 26 -18 26q-14 0 -18 -14q0 -1 -1 -4t-1 -4v-55h-15v53q0 24 -18 24
q-17 0 -21 -16q0 -1 -1 -3.5t-1 -4.5v-53h-14v65q0 17 -2 23h14l2 -15q8 17 27 17q21 0 24 -17h2q2 4 9 11q9 6 20 6q29 0 29 -37v-53zM784 592v-53h-16v51q0 26 -18 26q-16 0 -19 -14q-2 -2 -2 -8v-55h-16v53q0 24 -19 24q-14 0 -18 -16q-2 -2 -2 -8v-53h-15v65q0 17 -2 23
h15v-15h2q8 17 26 17t25 -17q1 1 4.5 5.5t5.5 5.5q9 6 21 6q28 0 28 -37zM881 588v-8h-62q0 -14 8.5 -21.5t20.5 -7.5t24 4l5 -12q-12 -4 -31 -4q-43 0 -43 43q0 21 11.5 34t29.5 13q19 0 28 -13t9 -28zM819 592h47q0 9 -5.5 17.5t-16.5 8.5t-18 -8.5t-7 -17.5zM901 600
q0 19 -2 27h14v-17h2q6 19 25 19h4v-15h-6q-17 0 -20 -20q0 -1 -1.5 -3.5t-1.5 -4.5v-47h-14v61zM1020 543q-8 -4 -25 -4q-43 0 -43 43q0 22 12.5 34.5t34.5 12.5q13 0 21 -4l-2 -13q-8 4 -19 4q-15 0 -23.5 -9t-8.5 -23q0 -15 9 -24t21 -9q13 0 21 4zM1047 662q10 0 10 -11
q0 -8 -10 -8q-11 0 -11 8q0 11 11 11zM1038 539v88h17v-88h-17zM1102 537q-13 0 -20 8t-7 18q0 33 51 33v2q0 20 -18 20q-11 0 -23 -8l-4 11q8 8 29 8q33 0 33 -35v-33q0 -16 2 -22h-15l-2 12q-14 -14 -26 -14zM1128 584q-38 0 -38 -19q0 -16 16 -16q15 0 20 14q0 1 1 3t1 3
v15zM1169 539v129h15v-129h-15zM1210 561l19 2q-7 -29 -19 -45h-10q6 15 10 43zM1286 539v120q20 5 31 5q22 0 33 -11q12 -9 12 -26t-10 -27q-12 -12 -37 -12h-12v-49h-17zM1303 649v-47q2 -2 12 -2q14 0 22.5 7.5t8.5 19.5q0 22 -29 22h-14zM1380 539v129h17v-129h-17z
M1489 543q-8 -4 -29 -4q-43 0 -43 43q0 21 11.5 34t29.5 13q19 0 28 -13t9 -28v-8h-61q0 -29 28 -29q13 0 25 4zM1458 618q-11 0 -17.5 -8.5t-6.5 -17.5h45q0 26 -21 26zM1577 539h-14v12h-2q-9 -14 -27 -14q-11 0 -19 8t-8 18q0 33 54 33v2q0 20 -21 20q-10 0 -22 -8l-5 11
q11 8 29 8q35 0 35 -35v-33v-22zM1561 569v15q-37 0 -37 -19q0 -16 14 -16t23 14v6zM1653 563q0 -11 -9 -17.5t-24 -6.5q-16 0 -25 6l4 10q12 -6 21 -6q18 0 18 14q0 7 -16 17q-25 6 -25 24q0 11 9 18t22 7q11 0 23 -4l-4 -13q-8 4 -19 4q-14 0 -14 -10q0 -11 16 -16
q23 -10 23 -27zM1745 588v-8h-62q0 -29 29 -29q13 0 25 4l2 -12q-8 -4 -29 -4q-43 0 -43 43q0 21 11.5 34t29.5 13q19 0 28 -13t9 -28zM1683 592h46q0 26 -21 26q-11 0 -18 -8.5t-7 -17.5zM1868 662h16l-43 -123h-18l-39 123h16l21 -60q10 -40 12 -47q12 41 14 47zM1903 662
q10 0 10 -11q0 -8 -10 -8q-11 0 -11 8q0 11 11 11zM1894 539v88h17v-88h-17zM1956 549q16 0 16 14q0 9 -16 17q-23 7 -23 24q0 11 9 18t22 7t21 -4l-5 -13q-4 4 -16 4q-16 0 -16 -10t16 -16q25 -9 25 -27q0 -11 -9 -17.5t-24 -6.5q-16 0 -25 6l4 10q12 -6 21 -6zM2017 662
q8 0 8 -11q0 -8 -10 -8q-8 0 -8 8q0 11 10 11zM2025 627v-88h-16v88h16zM2093 614h-22v-47q0 -16 12 -16h8l2 -10q-4 -2 -14 -2q-13 0 -19 6t-6 22v47h-12v13h12v22l17 4v-26h22v-13zM559 274h-35l2 21q-14 -25 -41 -25q-16 0 -27.5 13t-11.5 34q0 35 22.5 59.5t57.5 24.5
q11 0 17 -2l10 56h37l-25 -133q-6 -21 -6 -48zM502 301q22 0 28 35l7 33q-3 6 -15 6q-15 0 -26 -16t-11 -35q0 -23 17 -23zM655 436q0 -22 -22 -22q-17 0 -17 18q0 9 6 15t15 6q18 0 18 -17zM647 399l-24 -125h-37l24 125h37zM731 274l12 70q2 4 2 12q0 17 -12 17
q-10 0 -19 -12t-12 -31l-10 -56h-37l15 84q4 14 8 41h33l-4 -20h2q14 22 43 22q32 0 32 -32q0 -3 -1 -11.5t-1 -11.5l-14 -72h-37zM801 328l6 26h65l-4 -26h-67zM946 375q-16 0 -16 -10q0 -9 14 -15q29 -17 29 -35q0 -21 -16 -33t-42 -12q-23 0 -38 11l8 26q16 -8 33 -8
q16 0 16 10q0 9 -16 17q-25 11 -25 32q0 20 14.5 31.5t38.5 11.5t33 -6l-8 -26q-9 6 -25 6zM1047 371l-9 -43q-2 -4 -2 -15q0 -10 11 -10h10l-4 -29q-12 -4 -23 -4q-33 0 -33 27q0 4 1 12t1 13l11 49h-17l6 28h17l4 27l39 8l-8 -35h26l-4 -28h-26zM1190 274h-33l2 21
q-19 -25 -43 -25q-33 0 -33 35q0 15 2 25l15 69h37l-13 -67q-2 -6 -2 -17q0 -14 13 -14q21 0 30 41l11 57h36l-16 -84q-4 -29 -6 -41zM1335 274h-35l3 21q-14 -25 -41 -25q-16 0 -27.5 13t-11.5 34q0 35 22.5 59.5t57.5 24.5q10 0 16 -2l10 56h37l-25 -133q-6 -21 -6 -48z
M1278 301q23 0 29 35l6 33q-3 6 -15 6q-15 0 -25.5 -16t-10.5 -35q0 -23 16 -23zM1432 436q0 -10 -7 -16t-16 -6q-16 0 -16 18q0 21 20 21q8 0 13.5 -5t5.5 -12zM1423 399l-24 -125h-37l24 125h37zM1489 270q-25 0 -39 14.5t-14 39.5q0 33 20 55t53 22q25 0 39.5 -14.5
t14.5 -36.5q0 -34 -21 -57t-53 -23zM1505 375q-15 0 -23.5 -17t-8.5 -34q0 -25 20 -25q14 0 22.5 16t8.5 35q0 25 -19 25zM1591 270q-9 0 -14.5 7t-5.5 16q0 11 7 18.5t17 7.5t16.5 -6.5t6.5 -15.5q0 -11 -7.5 -19t-19.5 -8zM1722 373q-20 0 -31.5 -13.5t-11.5 -33.5
q0 -25 25 -25q13 0 25 4v-26q-18 -9 -35 -9q-23 0 -38.5 14.5t-15.5 37.5q0 34 23.5 56.5t58.5 22.5q17 0 25 -4l-8 -28q-8 4 -17 4zM1802 270q-24 0 -38.5 15t-14.5 39q0 33 21.5 55t54.5 22q24 0 38.5 -14.5t14.5 -36.5q0 -34 -22 -57t-54 -23zM1819 375
q-14 0 -22.5 -17.5t-8.5 -33.5q0 -25 20 -25q14 0 22.5 16t8.5 35q0 25 -20 25zM2036 274l12 68q0 3 1 8t1 8q0 15 -12 15q-21 0 -31 -43l-10 -56h-35l12 68q2 6 2 14q0 17 -12 17q-9 0 -18 -12t-13 -31l-10 -56h-35l17 84q3 20 6 41h31l-3 -20q16 22 43 22t31 -22
q14 22 43 22q14 0 22.5 -8.5t8.5 -23.5q0 -3 -1 -11.5t-1 -11.5l-14 -72h-35zM158 729q-69 3 -109.5 37t-38.5 82q0 37 15.5 52t33.5 15q28 0 37 -21.5t-6 -35.5q0 20 -20 24q-23 5 -33 -18q-4 -9 -4 -20q0 -41 34.5 -65.5t90.5 -24.5q116 0 116 172v6q0 23 -0.5 37t-4 39
t-10 39.5t-20 26t-32.5 11.5q-12 0 -14 -28v-78v-2v-129q0 -15 5 -22.5t10 -7.5l5 -1v-10h-111v10h5.5t9 6t6.5 17v2v221q0 33 -29 33q-9 0 -15.5 -5.5t-6.5 -11.5q0 -8 5 -11.5t10 -3.5l5 1q0 -33 -31 -33q-30 0 -30 31q0 23 20 36t43 13q20 -1 52 -8.5t61 -7.5
q139 0 139 -172q0 -49 -18 -92t-62 -74t-108 -29zM479 817v-10h-110v10q2 0 5 0.5t8.5 6.5t6.5 18v116q-1 11 -6 17.5t-9 6.5l-5 1v8l90 17v-160q0 -15 5 -22.5t10 -7.5zM426 1090q14 0 23.5 -10t9.5 -23t-9.5 -23t-23.5 -10t-23.5 10t-9.5 23t9.5 23t23.5 10zM592 983
q22 27 59 27q25 0 42.5 -16t17.5 -46v-100q0 -31 18 -31v-10h-108v10q2 0 4.5 0.5t7.5 6.5t6 18v112q0 22 -18 23q-20 2 -27 -18q-2 -5 -2 -11v-100q0 -15 5 -22.5t10 -7.5l5 -1v-10h-110v10q2 0 5 0.5t8.5 6.5t6.5 18v116q-1 11 -6 17.5t-10 6.5l-4 1v8l90 17v-25z
M924 1022q0 3 0.5 8t6 18.5t15.5 23.5t32.5 18t53.5 8q20 0 39 -5.5t25 -7.5t22 5q4 4 12 4v-74h-10q0 2 -1.5 6t-7.5 14t-14.5 17.5t-26.5 13.5t-40 6q-23 0 -38 -15.5t-14.5 -33t17.5 -24.5q8 -3 44.5 -13t59.5 -19t43.5 -33.5t18.5 -59.5q-2 -32 -32.5 -52t-88.5 -20
q-24 0 -43.5 2.5t-27.5 5t-14 1t-11 -8.5h-10v78h12q0 -25 29 -40.5t65 -15.5q37 0 52 17.5t4.5 38t-39.5 28.5q-2 1 -19.5 6t-23 7t-21.5 8.5t-22.5 11t-17.5 13t-16 17t-9 20.5t-4 26zM1284 999h-4.5t-7.5 -5.5t-6 -16.5l-2 -135q1 -12 6 -18t10 -6l4 -1v-10h-29
q-13 0 -20.5 1t-18.5 5.5t-16.5 17t-5.5 31.5v113q-1 12 -6 18t-10 6h-4v11q29 0 54.5 11t37.5 11v-22h18v-11zM1303 999v11h106v-11h-4.5t-7 -6t-4.5 -18v-107q0 -22 11.5 -27.5t23.5 4t12 23.5v103q0 14 -4 21t-8 7h-3v11h105v-11h-5t-8.5 -6t-7.5 -18v-133q2 -12 7 -18
t10 -6l4 -1v-10h-49q-16 0 -28.5 11.5t-12.5 21.5q-16 -33 -51 -33q-26 0 -47 16t-21 45v103q0 13 -4 20t-7 7.5t-7 0.5zM1831 762q0 -33 -39 -33q-18 0 -38.5 4.5t-45.5 25t-31 54.5q-15 -6 -32 -6q-41 0 -70 29.5t-29 72.5q0 41 29 71t70 30q14 0 30 -4v92l90 -19v-8
q-2 0 -4.5 -0.5t-7.5 -6.5t-6 -17v-213q3 -86 47 -89q-6 6 -6 17q0 8 6.5 14t15.5 6q8 0 14.5 -6.5t6.5 -13.5zM1645 821q30 0 30 88q0 44 -6 66t-24 22q-31 0 -31 -88t31 -88zM1886 817v-10h-108v10q2 0 5 0.5t8.5 6.5t6.5 18v116q-1 11 -6 17.5t-10 6.5l-4 1v8l90 17v-160
q0 -15 4.5 -22.5t9.5 -7.5zM1802 1057q0 13 10 23t23 10q12 0 22.5 -10t10.5 -23t-10.5 -23t-22.5 -10q-13 0 -23 10t-10 23zM2087 907q0 -41 -28.5 -70.5t-69.5 -29.5t-71 29.5t-30 70.5q0 43 30 73t71 30t69.5 -30t28.5 -73zM1989 823q18 0 24 22t6 64t-6 64t-24 22
q-31 0 -31 -86t31 -86zM25 299v51h376v-51h-376zM1081 1403h-227l174 219h227zM2091 1403h-215l174 219h41v-219zM399 1403h-227l174 219h227zM1421 1403h-227l174 219h227zM233 1622l-174 -219h-34v219h208zM741 1403h-229l174 219h227zM1763 1403h-227l172 219h229z
M1028 209h227l-174 -219h-227zM1876 -10l174 219h41v-219h-215zM346 209h227l-174 -219h-227zM1368 209h227l-174 -219h-227zM25 209h208l-174 -219h-34v219zM686 209h227l-172 -219h-229zM1708 209h229l-174 -219h-227z" />
    <glyph glyph-name="six" unicode="6" horiz-adv-x="2150" 
d="M57 1249l-10 -53h-31l27 143q20 4 39 4q24 0 37 -10q16 -10 16 -30q0 -28 -20 -41q-15 -15 -45 -15q-4 0 -8 1t-5 1zM70 1317l-9 -43h13q13 0 21.5 6.5t8.5 17.5q0 19 -22 19h-12zM246 1315h-56l-6 -31h54l-7 -27h-51l-6 -34h57l-4 -27h-90l29 145h86zM291 1253l-10 -57
h-31l26 143q20 4 39 4q27 0 37 -10q17 -7 17 -26q0 -30 -33 -41v-2q11 -5 14 -27q5 -39 6 -41h-32q0 2 -1 6.5t-2 12.5l-2 16q-2 22 -20 22h-8zM303 1317l-8 -39h12q31 0 31 22q0 19 -23 19q-3 0 -7 -1t-5 -1zM416 1221q22 0 22 16q0 11 -20 20q-29 17 -29 39q0 21 16 34
t41 13q15 0 33 -6l-8 -26q-18 6 -29 6q-20 0 -20 -14q0 -11 20 -21q29 -16 29 -39q0 -24 -16.5 -36.5t-42.5 -12.5t-41 10l10 27q13 -10 35 -10zM569 1343q27 0 42.5 -16t15.5 -43q0 -45 -25 -70q-23 -20 -53 -20q-28 0 -44 17t-16 44q0 41 27 68q20 20 53 20zM578 1231
q16 16 16 51q0 37 -29 37q-15 0 -24 -12q-19 -16 -19 -52q0 -34 31 -34q12 0 25 10zM674 1247l-10 -51h-29l27 145h36l19 -55q7 -21 14 -49q1 4 2.5 21.5t3.5 29.5l11 53h28l-26 -145h-33l-21 57q-10 33 -12 52h-2l-3 -22q-3 -22 -5 -36zM817 1235l-16 -39h-33l70 145h41
l16 -145h-33l-2 39h-43zM842 1288l-15 -31h31l-2 31q0 4 -1 14.5t-1 14.5q-2 -4 -6 -14.5t-6 -14.5zM938 1341h31l-21 -118h56l-7 -27h-86zM1114 1341l-16 -84q-2 -4 -2 -16q0 -20 22 -20q26 0 31 36l16 84h31l-16 -81q-6 -34 -21.5 -50t-44.5 -16q-49 0 -49 47q0 13 2 21
l16 79h31zM1237 1221q23 0 23 16q0 11 -21 20q-29 17 -29 39q0 21 16.5 34t41.5 13q14 0 32 -6l-8 -26q-18 6 -28 6q-21 0 -21 -14q0 -11 21 -21q28 -16 28 -39q0 -24 -16.5 -36.5t-42.5 -12.5t-41 10l10 27q13 -10 35 -10zM1413 1315h-53l-6 -31h51l-4 -27h-53l-7 -34h58
l-4 -27h-88l26 145h86zM1575 1214q-20 -20 -53 -20q-27 0 -43.5 17t-16.5 44q0 41 27 68q23 20 53 20q29 0 44.5 -16t15.5 -43q0 -43 -27 -70zM1495 1255q0 -34 31 -34q14 0 24 10q19 16 19 51q0 37 -31 37q-16 0 -25 -12q-18 -18 -18 -52zM1657 1305q0 -3 -10 -58l-11 -51
h-28l28 145h37l19 -55q9 -28 12 -49h2q0 21 6 51l10 53h29l-29 -145h-30l-21 57q-9 31 -14 52zM1780 1341h30l-22 -118h55l-4 -27h-88zM1907 1255l-13 -59h-30l12 59l-29 86h33l10 -36q4 -24 4 -27h2q6 12 15 27l20 36h37zM1997 1212q0 8 5.5 14.5t14.5 6.5q7 0 13 -5.5
t6 -13.5q0 -20 -21 -20q-7 0 -12.5 5t-5.5 13zM2056 1341l-22 -98h-25l14 98h33zM92 649h-51v-41h47v-14h-47v-55h-14v123h65v-13zM186 584q0 -23 -13 -35t-30 -12q-18 0 -29.5 13t-11.5 34t12 33t31 12t30 -12.5t11 -32.5zM117 584q0 -15 7.5 -25t18.5 -10q12 0 19.5 10
t7.5 25q0 12 -6.5 22t-18.5 10q-28 0 -28 -32zM223 539h-16v61v27h14v-17q6 19 25 19h4v-15h-4q-20 0 -23 -20v-8v-47zM299 600q0 28 17 46t46 18q15 0 29 -7l-4 -12q-9 6 -25 6q-47 0 -47 -51q0 -49 47 -49q16 0 25 6l4 -14q-12 -4 -33 -4q-27 0 -43 15.5t-16 45.5z
M444 537q-19 0 -31 13t-12 34t12.5 33t30.5 12q20 0 31.5 -12.5t11.5 -32.5q0 -23 -13 -35t-30 -12zM444 616q-26 0 -26 -32q0 -15 7 -25t19 -10q11 0 19 10t8 25q0 12 -7 22t-20 10zM633 539h-17v51q0 26 -18 26q-14 0 -18 -14q0 -1 -1 -4t-1 -4v-55h-15v53q0 24 -18 24
q-17 0 -21 -16q0 -1 -1 -3.5t-1 -4.5v-53h-14v65q0 17 -2 23h14l2 -15q8 17 27 17q21 0 24 -17h2q2 4 9 11q9 6 20 6q29 0 29 -37v-53zM784 592v-53h-16v51q0 26 -18 26q-16 0 -19 -14q-2 -2 -2 -8v-55h-16v53q0 24 -19 24q-14 0 -18 -16q-2 -2 -2 -8v-53h-15v65q0 17 -2 23
h15v-15h2q8 17 26 17t25 -17q1 1 4.5 5.5t5.5 5.5q9 6 21 6q28 0 28 -37zM881 588v-8h-62q0 -14 8.5 -21.5t20.5 -7.5t24 4l5 -12q-12 -4 -31 -4q-43 0 -43 43q0 21 11.5 34t29.5 13q19 0 28 -13t9 -28zM819 592h47q0 9 -5.5 17.5t-16.5 8.5t-18 -8.5t-7 -17.5zM901 600
q0 19 -2 27h14v-17h2q6 19 25 19h4v-15h-6q-17 0 -20 -20q0 -1 -1.5 -3.5t-1.5 -4.5v-47h-14v61zM1020 543q-8 -4 -25 -4q-43 0 -43 43q0 22 12.5 34.5t34.5 12.5q13 0 21 -4l-2 -13q-8 4 -19 4q-15 0 -23.5 -9t-8.5 -23q0 -15 9 -24t21 -9q13 0 21 4zM1047 662q10 0 10 -11
q0 -8 -10 -8q-11 0 -11 8q0 11 11 11zM1038 539v88h17v-88h-17zM1102 537q-13 0 -20 8t-7 18q0 33 51 33v2q0 20 -18 20q-11 0 -23 -8l-4 11q8 8 29 8q33 0 33 -35v-33q0 -16 2 -22h-15l-2 12q-14 -14 -26 -14zM1128 584q-38 0 -38 -19q0 -16 16 -16q15 0 20 14q0 1 1 3t1 3
v15zM1169 539v129h15v-129h-15zM1210 561l19 2q-7 -29 -19 -45h-10q6 15 10 43zM1286 539v120q20 5 31 5q22 0 33 -11q12 -9 12 -26t-10 -27q-12 -12 -37 -12h-12v-49h-17zM1303 649v-47q2 -2 12 -2q14 0 22.5 7.5t8.5 19.5q0 22 -29 22h-14zM1380 539v129h17v-129h-17z
M1489 543q-8 -4 -29 -4q-43 0 -43 43q0 21 11.5 34t29.5 13q19 0 28 -13t9 -28v-8h-61q0 -29 28 -29q13 0 25 4zM1458 618q-11 0 -17.5 -8.5t-6.5 -17.5h45q0 26 -21 26zM1577 539h-14v12h-2q-9 -14 -27 -14q-11 0 -19 8t-8 18q0 33 54 33v2q0 20 -21 20q-10 0 -22 -8l-5 11
q11 8 29 8q35 0 35 -35v-33v-22zM1561 569v15q-37 0 -37 -19q0 -16 14 -16t23 14v6zM1653 563q0 -11 -9 -17.5t-24 -6.5q-16 0 -25 6l4 10q12 -6 21 -6q18 0 18 14q0 7 -16 17q-25 6 -25 24q0 11 9 18t22 7q11 0 23 -4l-4 -13q-8 4 -19 4q-14 0 -14 -10q0 -11 16 -16
q23 -10 23 -27zM1745 588v-8h-62q0 -29 29 -29q13 0 25 4l2 -12q-8 -4 -29 -4q-43 0 -43 43q0 21 11.5 34t29.5 13q19 0 28 -13t9 -28zM1683 592h46q0 26 -21 26q-11 0 -18 -8.5t-7 -17.5zM1868 662h16l-43 -123h-18l-39 123h16l21 -60q10 -40 12 -47q12 41 14 47zM1903 662
q10 0 10 -11q0 -8 -10 -8q-11 0 -11 8q0 11 11 11zM1894 539v88h17v-88h-17zM1956 549q16 0 16 14q0 9 -16 17q-23 7 -23 24q0 11 9 18t22 7t21 -4l-5 -13q-4 4 -16 4q-16 0 -16 -10t16 -16q25 -9 25 -27q0 -11 -9 -17.5t-24 -6.5q-16 0 -25 6l4 10q12 -6 21 -6zM2017 662
q8 0 8 -11q0 -8 -10 -8q-8 0 -8 8q0 11 10 11zM2025 627v-88h-16v88h16zM2093 614h-22v-47q0 -16 12 -16h8l2 -10q-4 -2 -14 -2q-13 0 -19 6t-6 22v47h-12v13h12v22l17 4v-26h22v-13zM559 274h-35l2 21q-14 -25 -41 -25q-16 0 -27.5 13t-11.5 34q0 35 22.5 59.5t57.5 24.5
q11 0 17 -2l10 56h37l-25 -133q-6 -21 -6 -48zM502 301q22 0 28 35l7 33q-3 6 -15 6q-15 0 -26 -16t-11 -35q0 -23 17 -23zM655 436q0 -22 -22 -22q-17 0 -17 18q0 9 6 15t15 6q18 0 18 -17zM647 399l-24 -125h-37l24 125h37zM731 274l12 70q2 4 2 12q0 17 -12 17
q-10 0 -19 -12t-12 -31l-10 -56h-37l15 84q4 14 8 41h33l-4 -20h2q14 22 43 22q32 0 32 -32q0 -3 -1 -11.5t-1 -11.5l-14 -72h-37zM801 328l6 26h65l-4 -26h-67zM946 375q-16 0 -16 -10q0 -9 14 -15q29 -17 29 -35q0 -21 -16 -33t-42 -12q-23 0 -38 11l8 26q16 -8 33 -8
q16 0 16 10q0 9 -16 17q-25 11 -25 32q0 20 14.5 31.5t38.5 11.5t33 -6l-8 -26q-9 6 -25 6zM1047 371l-9 -43q-2 -4 -2 -15q0 -10 11 -10h10l-4 -29q-12 -4 -23 -4q-33 0 -33 27q0 4 1 12t1 13l11 49h-17l6 28h17l4 27l39 8l-8 -35h26l-4 -28h-26zM1190 274h-33l2 21
q-19 -25 -43 -25q-33 0 -33 35q0 15 2 25l15 69h37l-13 -67q-2 -6 -2 -17q0 -14 13 -14q21 0 30 41l11 57h36l-16 -84q-4 -29 -6 -41zM1335 274h-35l3 21q-14 -25 -41 -25q-16 0 -27.5 13t-11.5 34q0 35 22.5 59.5t57.5 24.5q10 0 16 -2l10 56h37l-25 -133q-6 -21 -6 -48z
M1278 301q23 0 29 35l6 33q-3 6 -15 6q-15 0 -25.5 -16t-10.5 -35q0 -23 16 -23zM1432 436q0 -10 -7 -16t-16 -6q-16 0 -16 18q0 21 20 21q8 0 13.5 -5t5.5 -12zM1423 399l-24 -125h-37l24 125h37zM1489 270q-25 0 -39 14.5t-14 39.5q0 33 20 55t53 22q25 0 39.5 -14.5
t14.5 -36.5q0 -34 -21 -57t-53 -23zM1505 375q-15 0 -23.5 -17t-8.5 -34q0 -25 20 -25q14 0 22.5 16t8.5 35q0 25 -19 25zM1591 270q-9 0 -14.5 7t-5.5 16q0 11 7 18.5t17 7.5t16.5 -6.5t6.5 -15.5q0 -11 -7.5 -19t-19.5 -8zM1722 373q-20 0 -31.5 -13.5t-11.5 -33.5
q0 -25 25 -25q13 0 25 4v-26q-18 -9 -35 -9q-23 0 -38.5 14.5t-15.5 37.5q0 34 23.5 56.5t58.5 22.5q17 0 25 -4l-8 -28q-8 4 -17 4zM1802 270q-24 0 -38.5 15t-14.5 39q0 33 21.5 55t54.5 22q24 0 38.5 -14.5t14.5 -36.5q0 -34 -22 -57t-54 -23zM1819 375
q-14 0 -22.5 -17.5t-8.5 -33.5q0 -25 20 -25q14 0 22.5 16t8.5 35q0 25 -20 25zM2036 274l12 68q0 3 1 8t1 8q0 15 -12 15q-21 0 -31 -43l-10 -56h-35l12 68q2 6 2 14q0 17 -12 17q-9 0 -18 -12t-13 -31l-10 -56h-35l17 84q3 20 6 41h31l-3 -20q16 22 43 22t31 -22
q14 22 43 22q14 0 22.5 -8.5t8.5 -23.5q0 -3 -1 -11.5t-1 -11.5l-14 -72h-35zM158 729q-69 3 -109.5 37t-38.5 82q0 37 15.5 52t33.5 15q28 0 37 -21.5t-6 -35.5q0 20 -20 24q-23 5 -33 -18q-4 -9 -4 -20q0 -41 34.5 -65.5t90.5 -24.5q116 0 116 172v6q0 23 -0.5 37t-4 39
t-10 39.5t-20 26t-32.5 11.5q-12 0 -14 -28v-78v-2v-129q0 -15 5 -22.5t10 -7.5l5 -1v-10h-111v10h5.5t9 6t6.5 17v2v221q0 33 -29 33q-9 0 -15.5 -5.5t-6.5 -11.5q0 -8 5 -11.5t10 -3.5l5 1q0 -33 -31 -33q-30 0 -30 31q0 23 20 36t43 13q20 -1 52 -8.5t61 -7.5
q139 0 139 -172q0 -49 -18 -92t-62 -74t-108 -29zM479 817v-10h-110v10q2 0 5 0.5t8.5 6.5t6.5 18v116q-1 11 -6 17.5t-9 6.5l-5 1v8l90 17v-160q0 -15 5 -22.5t10 -7.5zM426 1090q14 0 23.5 -10t9.5 -23t-9.5 -23t-23.5 -10t-23.5 10t-9.5 23t9.5 23t23.5 10zM592 983
q22 27 59 27q25 0 42.5 -16t17.5 -46v-100q0 -31 18 -31v-10h-108v10q2 0 4.5 0.5t7.5 6.5t6 18v112q0 22 -18 23q-20 2 -27 -18q-2 -5 -2 -11v-100q0 -15 5 -22.5t10 -7.5l5 -1v-10h-110v10q2 0 5 0.5t8.5 6.5t6.5 18v116q-1 11 -6 17.5t-10 6.5l-4 1v8l90 17v-25z
M924 1022q0 3 0.5 8t6 18.5t15.5 23.5t32.5 18t53.5 8q20 0 39 -5.5t25 -7.5t22 5q4 4 12 4v-74h-10q0 2 -1.5 6t-7.5 14t-14.5 17.5t-26.5 13.5t-40 6q-23 0 -38 -15.5t-14.5 -33t17.5 -24.5q8 -3 44.5 -13t59.5 -19t43.5 -33.5t18.5 -59.5q-2 -32 -32.5 -52t-88.5 -20
q-24 0 -43.5 2.5t-27.5 5t-14 1t-11 -8.5h-10v78h12q0 -25 29 -40.5t65 -15.5q37 0 52 17.5t4.5 38t-39.5 28.5q-2 1 -19.5 6t-23 7t-21.5 8.5t-22.5 11t-17.5 13t-16 17t-9 20.5t-4 26zM1284 999h-4.5t-7.5 -5.5t-6 -16.5l-2 -135q1 -12 6 -18t10 -6l4 -1v-10h-29
q-13 0 -20.5 1t-18.5 5.5t-16.5 17t-5.5 31.5v113q-1 12 -6 18t-10 6h-4v11q29 0 54.5 11t37.5 11v-22h18v-11zM1303 999v11h106v-11h-4.5t-7 -6t-4.5 -18v-107q0 -22 11.5 -27.5t23.5 4t12 23.5v103q0 14 -4 21t-8 7h-3v11h105v-11h-5t-8.5 -6t-7.5 -18v-133q2 -12 7 -18
t10 -6l4 -1v-10h-49q-16 0 -28.5 11.5t-12.5 21.5q-16 -33 -51 -33q-26 0 -47 16t-21 45v103q0 13 -4 20t-7 7.5t-7 0.5zM1831 762q0 -33 -39 -33q-18 0 -38.5 4.5t-45.5 25t-31 54.5q-15 -6 -32 -6q-41 0 -70 29.5t-29 72.5q0 41 29 71t70 30q14 0 30 -4v92l90 -19v-8
q-2 0 -4.5 -0.5t-7.5 -6.5t-6 -17v-213q3 -86 47 -89q-6 6 -6 17q0 8 6.5 14t15.5 6q8 0 14.5 -6.5t6.5 -13.5zM1645 821q30 0 30 88q0 44 -6 66t-24 22q-31 0 -31 -88t31 -88zM1886 817v-10h-108v10q2 0 5 0.5t8.5 6.5t6.5 18v116q-1 11 -6 17.5t-10 6.5l-4 1v8l90 17v-160
q0 -15 4.5 -22.5t9.5 -7.5zM1802 1057q0 13 10 23t23 10q12 0 22.5 -10t10.5 -23t-10.5 -23t-22.5 -10q-13 0 -23 10t-10 23zM2087 907q0 -41 -28.5 -70.5t-69.5 -29.5t-71 29.5t-30 70.5q0 43 30 73t71 30t69.5 -30t28.5 -73zM1989 823q18 0 24 22t6 64t-6 64t-24 22
q-31 0 -31 -86t31 -86zM25 299v51h376v-51h-376zM1081 1403h-227l174 219h227zM2091 1403h-215l174 219h41v-219zM399 1403h-227l174 219h227zM1421 1403h-227l174 219h227zM233 1622l-174 -219h-34v219h208zM741 1403h-229l174 219h227zM1763 1403h-227l172 219h229z
M1028 209h227l-174 -219h-227zM1876 -10l174 219h41v-219h-215zM346 209h227l-174 -219h-227zM1368 209h227l-174 -219h-227zM25 209h208l-174 -219h-34v219zM686 209h227l-172 -219h-229zM1708 209h229l-174 -219h-227z" />
    <glyph glyph-name="seven" unicode="7" horiz-adv-x="2150" 
d="M57 1249l-10 -53h-31l27 143q20 4 39 4q24 0 37 -10q16 -10 16 -30q0 -28 -20 -41q-15 -15 -45 -15q-4 0 -8 1t-5 1zM70 1317l-9 -43h13q13 0 21.5 6.5t8.5 17.5q0 19 -22 19h-12zM246 1315h-56l-6 -31h54l-7 -27h-51l-6 -34h57l-4 -27h-90l29 145h86zM291 1253l-10 -57
h-31l26 143q20 4 39 4q27 0 37 -10q17 -7 17 -26q0 -30 -33 -41v-2q11 -5 14 -27q5 -39 6 -41h-32q0 2 -1 6.5t-2 12.5l-2 16q-2 22 -20 22h-8zM303 1317l-8 -39h12q31 0 31 22q0 19 -23 19q-3 0 -7 -1t-5 -1zM416 1221q22 0 22 16q0 11 -20 20q-29 17 -29 39q0 21 16 34
t41 13q15 0 33 -6l-8 -26q-18 6 -29 6q-20 0 -20 -14q0 -11 20 -21q29 -16 29 -39q0 -24 -16.5 -36.5t-42.5 -12.5t-41 10l10 27q13 -10 35 -10zM569 1343q27 0 42.5 -16t15.5 -43q0 -45 -25 -70q-23 -20 -53 -20q-28 0 -44 17t-16 44q0 41 27 68q20 20 53 20zM578 1231
q16 16 16 51q0 37 -29 37q-15 0 -24 -12q-19 -16 -19 -52q0 -34 31 -34q12 0 25 10zM674 1247l-10 -51h-29l27 145h36l19 -55q7 -21 14 -49q1 4 2.5 21.5t3.5 29.5l11 53h28l-26 -145h-33l-21 57q-10 33 -12 52h-2l-3 -22q-3 -22 -5 -36zM817 1235l-16 -39h-33l70 145h41
l16 -145h-33l-2 39h-43zM842 1288l-15 -31h31l-2 31q0 4 -1 14.5t-1 14.5q-2 -4 -6 -14.5t-6 -14.5zM938 1341h31l-21 -118h56l-7 -27h-86zM1114 1341l-16 -84q-2 -4 -2 -16q0 -20 22 -20q26 0 31 36l16 84h31l-16 -81q-6 -34 -21.5 -50t-44.5 -16q-49 0 -49 47q0 13 2 21
l16 79h31zM1237 1221q23 0 23 16q0 11 -21 20q-29 17 -29 39q0 21 16.5 34t41.5 13q14 0 32 -6l-8 -26q-18 6 -28 6q-21 0 -21 -14q0 -11 21 -21q28 -16 28 -39q0 -24 -16.5 -36.5t-42.5 -12.5t-41 10l10 27q13 -10 35 -10zM1413 1315h-53l-6 -31h51l-4 -27h-53l-7 -34h58
l-4 -27h-88l26 145h86zM1575 1214q-20 -20 -53 -20q-27 0 -43.5 17t-16.5 44q0 41 27 68q23 20 53 20q29 0 44.5 -16t15.5 -43q0 -43 -27 -70zM1495 1255q0 -34 31 -34q14 0 24 10q19 16 19 51q0 37 -31 37q-16 0 -25 -12q-18 -18 -18 -52zM1657 1305q0 -3 -10 -58l-11 -51
h-28l28 145h37l19 -55q9 -28 12 -49h2q0 21 6 51l10 53h29l-29 -145h-30l-21 57q-9 31 -14 52zM1780 1341h30l-22 -118h55l-4 -27h-88zM1907 1255l-13 -59h-30l12 59l-29 86h33l10 -36q4 -24 4 -27h2q6 12 15 27l20 36h37zM1997 1212q0 8 5.5 14.5t14.5 6.5q7 0 13 -5.5
t6 -13.5q0 -20 -21 -20q-7 0 -12.5 5t-5.5 13zM2056 1341l-22 -98h-25l14 98h33zM92 649h-51v-41h47v-14h-47v-55h-14v123h65v-13zM186 584q0 -23 -13 -35t-30 -12q-18 0 -29.5 13t-11.5 34t12 33t31 12t30 -12.5t11 -32.5zM117 584q0 -15 7.5 -25t18.5 -10q12 0 19.5 10
t7.5 25q0 12 -6.5 22t-18.5 10q-28 0 -28 -32zM223 539h-16v61v27h14v-17q6 19 25 19h4v-15h-4q-20 0 -23 -20v-8v-47zM299 600q0 28 17 46t46 18q15 0 29 -7l-4 -12q-9 6 -25 6q-47 0 -47 -51q0 -49 47 -49q16 0 25 6l4 -14q-12 -4 -33 -4q-27 0 -43 15.5t-16 45.5z
M444 537q-19 0 -31 13t-12 34t12.5 33t30.5 12q20 0 31.5 -12.5t11.5 -32.5q0 -23 -13 -35t-30 -12zM444 616q-26 0 -26 -32q0 -15 7 -25t19 -10q11 0 19 10t8 25q0 12 -7 22t-20 10zM633 539h-17v51q0 26 -18 26q-14 0 -18 -14q0 -1 -1 -4t-1 -4v-55h-15v53q0 24 -18 24
q-17 0 -21 -16q0 -1 -1 -3.5t-1 -4.5v-53h-14v65q0 17 -2 23h14l2 -15q8 17 27 17q21 0 24 -17h2q2 4 9 11q9 6 20 6q29 0 29 -37v-53zM784 592v-53h-16v51q0 26 -18 26q-16 0 -19 -14q-2 -2 -2 -8v-55h-16v53q0 24 -19 24q-14 0 -18 -16q-2 -2 -2 -8v-53h-15v65q0 17 -2 23
h15v-15h2q8 17 26 17t25 -17q1 1 4.5 5.5t5.5 5.5q9 6 21 6q28 0 28 -37zM881 588v-8h-62q0 -14 8.5 -21.5t20.5 -7.5t24 4l5 -12q-12 -4 -31 -4q-43 0 -43 43q0 21 11.5 34t29.5 13q19 0 28 -13t9 -28zM819 592h47q0 9 -5.5 17.5t-16.5 8.5t-18 -8.5t-7 -17.5zM901 600
q0 19 -2 27h14v-17h2q6 19 25 19h4v-15h-6q-17 0 -20 -20q0 -1 -1.5 -3.5t-1.5 -4.5v-47h-14v61zM1020 543q-8 -4 -25 -4q-43 0 -43 43q0 22 12.5 34.5t34.5 12.5q13 0 21 -4l-2 -13q-8 4 -19 4q-15 0 -23.5 -9t-8.5 -23q0 -15 9 -24t21 -9q13 0 21 4zM1047 662q10 0 10 -11
q0 -8 -10 -8q-11 0 -11 8q0 11 11 11zM1038 539v88h17v-88h-17zM1102 537q-13 0 -20 8t-7 18q0 33 51 33v2q0 20 -18 20q-11 0 -23 -8l-4 11q8 8 29 8q33 0 33 -35v-33q0 -16 2 -22h-15l-2 12q-14 -14 -26 -14zM1128 584q-38 0 -38 -19q0 -16 16 -16q15 0 20 14q0 1 1 3t1 3
v15zM1169 539v129h15v-129h-15zM1210 561l19 2q-7 -29 -19 -45h-10q6 15 10 43zM1286 539v120q20 5 31 5q22 0 33 -11q12 -9 12 -26t-10 -27q-12 -12 -37 -12h-12v-49h-17zM1303 649v-47q2 -2 12 -2q14 0 22.5 7.5t8.5 19.5q0 22 -29 22h-14zM1380 539v129h17v-129h-17z
M1489 543q-8 -4 -29 -4q-43 0 -43 43q0 21 11.5 34t29.5 13q19 0 28 -13t9 -28v-8h-61q0 -29 28 -29q13 0 25 4zM1458 618q-11 0 -17.5 -8.5t-6.5 -17.5h45q0 26 -21 26zM1577 539h-14v12h-2q-9 -14 -27 -14q-11 0 -19 8t-8 18q0 33 54 33v2q0 20 -21 20q-10 0 -22 -8l-5 11
q11 8 29 8q35 0 35 -35v-33v-22zM1561 569v15q-37 0 -37 -19q0 -16 14 -16t23 14v6zM1653 563q0 -11 -9 -17.5t-24 -6.5q-16 0 -25 6l4 10q12 -6 21 -6q18 0 18 14q0 7 -16 17q-25 6 -25 24q0 11 9 18t22 7q11 0 23 -4l-4 -13q-8 4 -19 4q-14 0 -14 -10q0 -11 16 -16
q23 -10 23 -27zM1745 588v-8h-62q0 -29 29 -29q13 0 25 4l2 -12q-8 -4 -29 -4q-43 0 -43 43q0 21 11.5 34t29.5 13q19 0 28 -13t9 -28zM1683 592h46q0 26 -21 26q-11 0 -18 -8.5t-7 -17.5zM1868 662h16l-43 -123h-18l-39 123h16l21 -60q10 -40 12 -47q12 41 14 47zM1903 662
q10 0 10 -11q0 -8 -10 -8q-11 0 -11 8q0 11 11 11zM1894 539v88h17v-88h-17zM1956 549q16 0 16 14q0 9 -16 17q-23 7 -23 24q0 11 9 18t22 7t21 -4l-5 -13q-4 4 -16 4q-16 0 -16 -10t16 -16q25 -9 25 -27q0 -11 -9 -17.5t-24 -6.5q-16 0 -25 6l4 10q12 -6 21 -6zM2017 662
q8 0 8 -11q0 -8 -10 -8q-8 0 -8 8q0 11 10 11zM2025 627v-88h-16v88h16zM2093 614h-22v-47q0 -16 12 -16h8l2 -10q-4 -2 -14 -2q-13 0 -19 6t-6 22v47h-12v13h12v22l17 4v-26h22v-13zM559 274h-35l2 21q-14 -25 -41 -25q-16 0 -27.5 13t-11.5 34q0 35 22.5 59.5t57.5 24.5
q11 0 17 -2l10 56h37l-25 -133q-6 -21 -6 -48zM502 301q22 0 28 35l7 33q-3 6 -15 6q-15 0 -26 -16t-11 -35q0 -23 17 -23zM655 436q0 -22 -22 -22q-17 0 -17 18q0 9 6 15t15 6q18 0 18 -17zM647 399l-24 -125h-37l24 125h37zM731 274l12 70q2 4 2 12q0 17 -12 17
q-10 0 -19 -12t-12 -31l-10 -56h-37l15 84q4 14 8 41h33l-4 -20h2q14 22 43 22q32 0 32 -32q0 -3 -1 -11.5t-1 -11.5l-14 -72h-37zM801 328l6 26h65l-4 -26h-67zM946 375q-16 0 -16 -10q0 -9 14 -15q29 -17 29 -35q0 -21 -16 -33t-42 -12q-23 0 -38 11l8 26q16 -8 33 -8
q16 0 16 10q0 9 -16 17q-25 11 -25 32q0 20 14.5 31.5t38.5 11.5t33 -6l-8 -26q-9 6 -25 6zM1047 371l-9 -43q-2 -4 -2 -15q0 -10 11 -10h10l-4 -29q-12 -4 -23 -4q-33 0 -33 27q0 4 1 12t1 13l11 49h-17l6 28h17l4 27l39 8l-8 -35h26l-4 -28h-26zM1190 274h-33l2 21
q-19 -25 -43 -25q-33 0 -33 35q0 15 2 25l15 69h37l-13 -67q-2 -6 -2 -17q0 -14 13 -14q21 0 30 41l11 57h36l-16 -84q-4 -29 -6 -41zM1335 274h-35l3 21q-14 -25 -41 -25q-16 0 -27.5 13t-11.5 34q0 35 22.5 59.5t57.5 24.5q10 0 16 -2l10 56h37l-25 -133q-6 -21 -6 -48z
M1278 301q23 0 29 35l6 33q-3 6 -15 6q-15 0 -25.5 -16t-10.5 -35q0 -23 16 -23zM1432 436q0 -10 -7 -16t-16 -6q-16 0 -16 18q0 21 20 21q8 0 13.5 -5t5.5 -12zM1423 399l-24 -125h-37l24 125h37zM1489 270q-25 0 -39 14.5t-14 39.5q0 33 20 55t53 22q25 0 39.5 -14.5
t14.5 -36.5q0 -34 -21 -57t-53 -23zM1505 375q-15 0 -23.5 -17t-8.5 -34q0 -25 20 -25q14 0 22.5 16t8.5 35q0 25 -19 25zM1591 270q-9 0 -14.5 7t-5.5 16q0 11 7 18.5t17 7.5t16.5 -6.5t6.5 -15.5q0 -11 -7.5 -19t-19.5 -8zM1722 373q-20 0 -31.5 -13.5t-11.5 -33.5
q0 -25 25 -25q13 0 25 4v-26q-18 -9 -35 -9q-23 0 -38.5 14.5t-15.5 37.5q0 34 23.5 56.5t58.5 22.5q17 0 25 -4l-8 -28q-8 4 -17 4zM1802 270q-24 0 -38.5 15t-14.5 39q0 33 21.5 55t54.5 22q24 0 38.5 -14.5t14.5 -36.5q0 -34 -22 -57t-54 -23zM1819 375
q-14 0 -22.5 -17.5t-8.5 -33.5q0 -25 20 -25q14 0 22.5 16t8.5 35q0 25 -20 25zM2036 274l12 68q0 3 1 8t1 8q0 15 -12 15q-21 0 -31 -43l-10 -56h-35l12 68q2 6 2 14q0 17 -12 17q-9 0 -18 -12t-13 -31l-10 -56h-35l17 84q3 20 6 41h31l-3 -20q16 22 43 22t31 -22
q14 22 43 22q14 0 22.5 -8.5t8.5 -23.5q0 -3 -1 -11.5t-1 -11.5l-14 -72h-35zM158 729q-69 3 -109.5 37t-38.5 82q0 37 15.5 52t33.5 15q28 0 37 -21.5t-6 -35.5q0 20 -20 24q-23 5 -33 -18q-4 -9 -4 -20q0 -41 34.5 -65.5t90.5 -24.5q116 0 116 172v6q0 23 -0.5 37t-4 39
t-10 39.5t-20 26t-32.5 11.5q-12 0 -14 -28v-78v-2v-129q0 -15 5 -22.5t10 -7.5l5 -1v-10h-111v10h5.5t9 6t6.5 17v2v221q0 33 -29 33q-9 0 -15.5 -5.5t-6.5 -11.5q0 -8 5 -11.5t10 -3.5l5 1q0 -33 -31 -33q-30 0 -30 31q0 23 20 36t43 13q20 -1 52 -8.5t61 -7.5
q139 0 139 -172q0 -49 -18 -92t-62 -74t-108 -29zM479 817v-10h-110v10q2 0 5 0.5t8.5 6.5t6.5 18v116q-1 11 -6 17.5t-9 6.5l-5 1v8l90 17v-160q0 -15 5 -22.5t10 -7.5zM426 1090q14 0 23.5 -10t9.5 -23t-9.5 -23t-23.5 -10t-23.5 10t-9.5 23t9.5 23t23.5 10zM592 983
q22 27 59 27q25 0 42.5 -16t17.5 -46v-100q0 -31 18 -31v-10h-108v10q2 0 4.5 0.5t7.5 6.5t6 18v112q0 22 -18 23q-20 2 -27 -18q-2 -5 -2 -11v-100q0 -15 5 -22.5t10 -7.5l5 -1v-10h-110v10q2 0 5 0.5t8.5 6.5t6.5 18v116q-1 11 -6 17.5t-10 6.5l-4 1v8l90 17v-25z
M924 1022q0 3 0.5 8t6 18.5t15.5 23.5t32.5 18t53.5 8q20 0 39 -5.5t25 -7.5t22 5q4 4 12 4v-74h-10q0 2 -1.5 6t-7.5 14t-14.5 17.5t-26.5 13.5t-40 6q-23 0 -38 -15.5t-14.5 -33t17.5 -24.5q8 -3 44.5 -13t59.5 -19t43.5 -33.5t18.5 -59.5q-2 -32 -32.5 -52t-88.5 -20
q-24 0 -43.5 2.5t-27.5 5t-14 1t-11 -8.5h-10v78h12q0 -25 29 -40.5t65 -15.5q37 0 52 17.5t4.5 38t-39.5 28.5q-2 1 -19.5 6t-23 7t-21.5 8.5t-22.5 11t-17.5 13t-16 17t-9 20.5t-4 26zM1284 999h-4.5t-7.5 -5.5t-6 -16.5l-2 -135q1 -12 6 -18t10 -6l4 -1v-10h-29
q-13 0 -20.5 1t-18.5 5.5t-16.5 17t-5.5 31.5v113q-1 12 -6 18t-10 6h-4v11q29 0 54.5 11t37.5 11v-22h18v-11zM1303 999v11h106v-11h-4.5t-7 -6t-4.5 -18v-107q0 -22 11.5 -27.5t23.5 4t12 23.5v103q0 14 -4 21t-8 7h-3v11h105v-11h-5t-8.5 -6t-7.5 -18v-133q2 -12 7 -18
t10 -6l4 -1v-10h-49q-16 0 -28.5 11.5t-12.5 21.5q-16 -33 -51 -33q-26 0 -47 16t-21 45v103q0 13 -4 20t-7 7.5t-7 0.5zM1831 762q0 -33 -39 -33q-18 0 -38.5 4.5t-45.5 25t-31 54.5q-15 -6 -32 -6q-41 0 -70 29.5t-29 72.5q0 41 29 71t70 30q14 0 30 -4v92l90 -19v-8
q-2 0 -4.5 -0.5t-7.5 -6.5t-6 -17v-213q3 -86 47 -89q-6 6 -6 17q0 8 6.5 14t15.5 6q8 0 14.5 -6.5t6.5 -13.5zM1645 821q30 0 30 88q0 44 -6 66t-24 22q-31 0 -31 -88t31 -88zM1886 817v-10h-108v10q2 0 5 0.5t8.5 6.5t6.5 18v116q-1 11 -6 17.5t-10 6.5l-4 1v8l90 17v-160
q0 -15 4.5 -22.5t9.5 -7.5zM1802 1057q0 13 10 23t23 10q12 0 22.5 -10t10.5 -23t-10.5 -23t-22.5 -10q-13 0 -23 10t-10 23zM2087 907q0 -41 -28.5 -70.5t-69.5 -29.5t-71 29.5t-30 70.5q0 43 30 73t71 30t69.5 -30t28.5 -73zM1989 823q18 0 24 22t6 64t-6 64t-24 22
q-31 0 -31 -86t31 -86zM25 299v51h376v-51h-376zM1081 1403h-227l174 219h227zM2091 1403h-215l174 219h41v-219zM399 1403h-227l174 219h227zM1421 1403h-227l174 219h227zM233 1622l-174 -219h-34v219h208zM741 1403h-229l174 219h227zM1763 1403h-227l172 219h229z
M1028 209h227l-174 -219h-227zM1876 -10l174 219h41v-219h-215zM346 209h227l-174 -219h-227zM1368 209h227l-174 -219h-227zM25 209h208l-174 -219h-34v219zM686 209h227l-172 -219h-229zM1708 209h229l-174 -219h-227z" />
    <glyph glyph-name="eight" unicode="8" horiz-adv-x="2150" 
d="M57 1249l-10 -53h-31l27 143q20 4 39 4q24 0 37 -10q16 -10 16 -30q0 -28 -20 -41q-15 -15 -45 -15q-4 0 -8 1t-5 1zM70 1317l-9 -43h13q13 0 21.5 6.5t8.5 17.5q0 19 -22 19h-12zM246 1315h-56l-6 -31h54l-7 -27h-51l-6 -34h57l-4 -27h-90l29 145h86zM291 1253l-10 -57
h-31l26 143q20 4 39 4q27 0 37 -10q17 -7 17 -26q0 -30 -33 -41v-2q11 -5 14 -27q5 -39 6 -41h-32q0 2 -1 6.5t-2 12.5l-2 16q-2 22 -20 22h-8zM303 1317l-8 -39h12q31 0 31 22q0 19 -23 19q-3 0 -7 -1t-5 -1zM416 1221q22 0 22 16q0 11 -20 20q-29 17 -29 39q0 21 16 34
t41 13q15 0 33 -6l-8 -26q-18 6 -29 6q-20 0 -20 -14q0 -11 20 -21q29 -16 29 -39q0 -24 -16.5 -36.5t-42.5 -12.5t-41 10l10 27q13 -10 35 -10zM569 1343q27 0 42.5 -16t15.5 -43q0 -45 -25 -70q-23 -20 -53 -20q-28 0 -44 17t-16 44q0 41 27 68q20 20 53 20zM578 1231
q16 16 16 51q0 37 -29 37q-15 0 -24 -12q-19 -16 -19 -52q0 -34 31 -34q12 0 25 10zM674 1247l-10 -51h-29l27 145h36l19 -55q7 -21 14 -49q1 4 2.5 21.5t3.5 29.5l11 53h28l-26 -145h-33l-21 57q-10 33 -12 52h-2l-3 -22q-3 -22 -5 -36zM817 1235l-16 -39h-33l70 145h41
l16 -145h-33l-2 39h-43zM842 1288l-15 -31h31l-2 31q0 4 -1 14.5t-1 14.5q-2 -4 -6 -14.5t-6 -14.5zM938 1341h31l-21 -118h56l-7 -27h-86zM1114 1341l-16 -84q-2 -4 -2 -16q0 -20 22 -20q26 0 31 36l16 84h31l-16 -81q-6 -34 -21.5 -50t-44.5 -16q-49 0 -49 47q0 13 2 21
l16 79h31zM1237 1221q23 0 23 16q0 11 -21 20q-29 17 -29 39q0 21 16.5 34t41.5 13q14 0 32 -6l-8 -26q-18 6 -28 6q-21 0 -21 -14q0 -11 21 -21q28 -16 28 -39q0 -24 -16.5 -36.5t-42.5 -12.5t-41 10l10 27q13 -10 35 -10zM1413 1315h-53l-6 -31h51l-4 -27h-53l-7 -34h58
l-4 -27h-88l26 145h86zM1575 1214q-20 -20 -53 -20q-27 0 -43.5 17t-16.5 44q0 41 27 68q23 20 53 20q29 0 44.5 -16t15.5 -43q0 -43 -27 -70zM1495 1255q0 -34 31 -34q14 0 24 10q19 16 19 51q0 37 -31 37q-16 0 -25 -12q-18 -18 -18 -52zM1657 1305q0 -3 -10 -58l-11 -51
h-28l28 145h37l19 -55q9 -28 12 -49h2q0 21 6 51l10 53h29l-29 -145h-30l-21 57q-9 31 -14 52zM1780 1341h30l-22 -118h55l-4 -27h-88zM1907 1255l-13 -59h-30l12 59l-29 86h33l10 -36q4 -24 4 -27h2q6 12 15 27l20 36h37zM1997 1212q0 8 5.5 14.5t14.5 6.5q7 0 13 -5.5
t6 -13.5q0 -20 -21 -20q-7 0 -12.5 5t-5.5 13zM2056 1341l-22 -98h-25l14 98h33zM92 649h-51v-41h47v-14h-47v-55h-14v123h65v-13zM186 584q0 -23 -13 -35t-30 -12q-18 0 -29.5 13t-11.5 34t12 33t31 12t30 -12.5t11 -32.5zM117 584q0 -15 7.5 -25t18.5 -10q12 0 19.5 10
t7.5 25q0 12 -6.5 22t-18.5 10q-28 0 -28 -32zM223 539h-16v61v27h14v-17q6 19 25 19h4v-15h-4q-20 0 -23 -20v-8v-47zM299 600q0 28 17 46t46 18q15 0 29 -7l-4 -12q-9 6 -25 6q-47 0 -47 -51q0 -49 47 -49q16 0 25 6l4 -14q-12 -4 -33 -4q-27 0 -43 15.5t-16 45.5z
M444 537q-19 0 -31 13t-12 34t12.5 33t30.5 12q20 0 31.5 -12.5t11.5 -32.5q0 -23 -13 -35t-30 -12zM444 616q-26 0 -26 -32q0 -15 7 -25t19 -10q11 0 19 10t8 25q0 12 -7 22t-20 10zM633 539h-17v51q0 26 -18 26q-14 0 -18 -14q0 -1 -1 -4t-1 -4v-55h-15v53q0 24 -18 24
q-17 0 -21 -16q0 -1 -1 -3.5t-1 -4.5v-53h-14v65q0 17 -2 23h14l2 -15q8 17 27 17q21 0 24 -17h2q2 4 9 11q9 6 20 6q29 0 29 -37v-53zM784 592v-53h-16v51q0 26 -18 26q-16 0 -19 -14q-2 -2 -2 -8v-55h-16v53q0 24 -19 24q-14 0 -18 -16q-2 -2 -2 -8v-53h-15v65q0 17 -2 23
h15v-15h2q8 17 26 17t25 -17q1 1 4.5 5.5t5.5 5.5q9 6 21 6q28 0 28 -37zM881 588v-8h-62q0 -14 8.5 -21.5t20.5 -7.5t24 4l5 -12q-12 -4 -31 -4q-43 0 -43 43q0 21 11.5 34t29.5 13q19 0 28 -13t9 -28zM819 592h47q0 9 -5.5 17.5t-16.5 8.5t-18 -8.5t-7 -17.5zM901 600
q0 19 -2 27h14v-17h2q6 19 25 19h4v-15h-6q-17 0 -20 -20q0 -1 -1.5 -3.5t-1.5 -4.5v-47h-14v61zM1020 543q-8 -4 -25 -4q-43 0 -43 43q0 22 12.5 34.5t34.5 12.5q13 0 21 -4l-2 -13q-8 4 -19 4q-15 0 -23.5 -9t-8.5 -23q0 -15 9 -24t21 -9q13 0 21 4zM1047 662q10 0 10 -11
q0 -8 -10 -8q-11 0 -11 8q0 11 11 11zM1038 539v88h17v-88h-17zM1102 537q-13 0 -20 8t-7 18q0 33 51 33v2q0 20 -18 20q-11 0 -23 -8l-4 11q8 8 29 8q33 0 33 -35v-33q0 -16 2 -22h-15l-2 12q-14 -14 -26 -14zM1128 584q-38 0 -38 -19q0 -16 16 -16q15 0 20 14q0 1 1 3t1 3
v15zM1169 539v129h15v-129h-15zM1210 561l19 2q-7 -29 -19 -45h-10q6 15 10 43zM1286 539v120q20 5 31 5q22 0 33 -11q12 -9 12 -26t-10 -27q-12 -12 -37 -12h-12v-49h-17zM1303 649v-47q2 -2 12 -2q14 0 22.5 7.5t8.5 19.5q0 22 -29 22h-14zM1380 539v129h17v-129h-17z
M1489 543q-8 -4 -29 -4q-43 0 -43 43q0 21 11.5 34t29.5 13q19 0 28 -13t9 -28v-8h-61q0 -29 28 -29q13 0 25 4zM1458 618q-11 0 -17.5 -8.5t-6.5 -17.5h45q0 26 -21 26zM1577 539h-14v12h-2q-9 -14 -27 -14q-11 0 -19 8t-8 18q0 33 54 33v2q0 20 -21 20q-10 0 -22 -8l-5 11
q11 8 29 8q35 0 35 -35v-33v-22zM1561 569v15q-37 0 -37 -19q0 -16 14 -16t23 14v6zM1653 563q0 -11 -9 -17.5t-24 -6.5q-16 0 -25 6l4 10q12 -6 21 -6q18 0 18 14q0 7 -16 17q-25 6 -25 24q0 11 9 18t22 7q11 0 23 -4l-4 -13q-8 4 -19 4q-14 0 -14 -10q0 -11 16 -16
q23 -10 23 -27zM1745 588v-8h-62q0 -29 29 -29q13 0 25 4l2 -12q-8 -4 -29 -4q-43 0 -43 43q0 21 11.5 34t29.5 13q19 0 28 -13t9 -28zM1683 592h46q0 26 -21 26q-11 0 -18 -8.5t-7 -17.5zM1868 662h16l-43 -123h-18l-39 123h16l21 -60q10 -40 12 -47q12 41 14 47zM1903 662
q10 0 10 -11q0 -8 -10 -8q-11 0 -11 8q0 11 11 11zM1894 539v88h17v-88h-17zM1956 549q16 0 16 14q0 9 -16 17q-23 7 -23 24q0 11 9 18t22 7t21 -4l-5 -13q-4 4 -16 4q-16 0 -16 -10t16 -16q25 -9 25 -27q0 -11 -9 -17.5t-24 -6.5q-16 0 -25 6l4 10q12 -6 21 -6zM2017 662
q8 0 8 -11q0 -8 -10 -8q-8 0 -8 8q0 11 10 11zM2025 627v-88h-16v88h16zM2093 614h-22v-47q0 -16 12 -16h8l2 -10q-4 -2 -14 -2q-13 0 -19 6t-6 22v47h-12v13h12v22l17 4v-26h22v-13zM559 274h-35l2 21q-14 -25 -41 -25q-16 0 -27.5 13t-11.5 34q0 35 22.5 59.5t57.5 24.5
q11 0 17 -2l10 56h37l-25 -133q-6 -21 -6 -48zM502 301q22 0 28 35l7 33q-3 6 -15 6q-15 0 -26 -16t-11 -35q0 -23 17 -23zM655 436q0 -22 -22 -22q-17 0 -17 18q0 9 6 15t15 6q18 0 18 -17zM647 399l-24 -125h-37l24 125h37zM731 274l12 70q2 4 2 12q0 17 -12 17
q-10 0 -19 -12t-12 -31l-10 -56h-37l15 84q4 14 8 41h33l-4 -20h2q14 22 43 22q32 0 32 -32q0 -3 -1 -11.5t-1 -11.5l-14 -72h-37zM801 328l6 26h65l-4 -26h-67zM946 375q-16 0 -16 -10q0 -9 14 -15q29 -17 29 -35q0 -21 -16 -33t-42 -12q-23 0 -38 11l8 26q16 -8 33 -8
q16 0 16 10q0 9 -16 17q-25 11 -25 32q0 20 14.5 31.5t38.5 11.5t33 -6l-8 -26q-9 6 -25 6zM1047 371l-9 -43q-2 -4 -2 -15q0 -10 11 -10h10l-4 -29q-12 -4 -23 -4q-33 0 -33 27q0 4 1 12t1 13l11 49h-17l6 28h17l4 27l39 8l-8 -35h26l-4 -28h-26zM1190 274h-33l2 21
q-19 -25 -43 -25q-33 0 -33 35q0 15 2 25l15 69h37l-13 -67q-2 -6 -2 -17q0 -14 13 -14q21 0 30 41l11 57h36l-16 -84q-4 -29 -6 -41zM1335 274h-35l3 21q-14 -25 -41 -25q-16 0 -27.5 13t-11.5 34q0 35 22.5 59.5t57.5 24.5q10 0 16 -2l10 56h37l-25 -133q-6 -21 -6 -48z
M1278 301q23 0 29 35l6 33q-3 6 -15 6q-15 0 -25.5 -16t-10.5 -35q0 -23 16 -23zM1432 436q0 -10 -7 -16t-16 -6q-16 0 -16 18q0 21 20 21q8 0 13.5 -5t5.5 -12zM1423 399l-24 -125h-37l24 125h37zM1489 270q-25 0 -39 14.5t-14 39.5q0 33 20 55t53 22q25 0 39.5 -14.5
t14.5 -36.5q0 -34 -21 -57t-53 -23zM1505 375q-15 0 -23.5 -17t-8.5 -34q0 -25 20 -25q14 0 22.5 16t8.5 35q0 25 -19 25zM1591 270q-9 0 -14.5 7t-5.5 16q0 11 7 18.5t17 7.5t16.5 -6.5t6.5 -15.5q0 -11 -7.5 -19t-19.5 -8zM1722 373q-20 0 -31.5 -13.5t-11.5 -33.5
q0 -25 25 -25q13 0 25 4v-26q-18 -9 -35 -9q-23 0 -38.5 14.5t-15.5 37.5q0 34 23.5 56.5t58.5 22.5q17 0 25 -4l-8 -28q-8 4 -17 4zM1802 270q-24 0 -38.5 15t-14.5 39q0 33 21.5 55t54.5 22q24 0 38.5 -14.5t14.5 -36.5q0 -34 -22 -57t-54 -23zM1819 375
q-14 0 -22.5 -17.5t-8.5 -33.5q0 -25 20 -25q14 0 22.5 16t8.5 35q0 25 -20 25zM2036 274l12 68q0 3 1 8t1 8q0 15 -12 15q-21 0 -31 -43l-10 -56h-35l12 68q2 6 2 14q0 17 -12 17q-9 0 -18 -12t-13 -31l-10 -56h-35l17 84q3 20 6 41h31l-3 -20q16 22 43 22t31 -22
q14 22 43 22q14 0 22.5 -8.5t8.5 -23.5q0 -3 -1 -11.5t-1 -11.5l-14 -72h-35zM158 729q-69 3 -109.5 37t-38.5 82q0 37 15.5 52t33.5 15q28 0 37 -21.5t-6 -35.5q0 20 -20 24q-23 5 -33 -18q-4 -9 -4 -20q0 -41 34.5 -65.5t90.5 -24.5q116 0 116 172v6q0 23 -0.5 37t-4 39
t-10 39.5t-20 26t-32.5 11.5q-12 0 -14 -28v-78v-2v-129q0 -15 5 -22.5t10 -7.5l5 -1v-10h-111v10h5.5t9 6t6.5 17v2v221q0 33 -29 33q-9 0 -15.5 -5.5t-6.5 -11.5q0 -8 5 -11.5t10 -3.5l5 1q0 -33 -31 -33q-30 0 -30 31q0 23 20 36t43 13q20 -1 52 -8.5t61 -7.5
q139 0 139 -172q0 -49 -18 -92t-62 -74t-108 -29zM479 817v-10h-110v10q2 0 5 0.5t8.5 6.5t6.5 18v116q-1 11 -6 17.5t-9 6.5l-5 1v8l90 17v-160q0 -15 5 -22.5t10 -7.5zM426 1090q14 0 23.5 -10t9.5 -23t-9.5 -23t-23.5 -10t-23.5 10t-9.5 23t9.5 23t23.5 10zM592 983
q22 27 59 27q25 0 42.5 -16t17.5 -46v-100q0 -31 18 -31v-10h-108v10q2 0 4.5 0.5t7.5 6.5t6 18v112q0 22 -18 23q-20 2 -27 -18q-2 -5 -2 -11v-100q0 -15 5 -22.5t10 -7.5l5 -1v-10h-110v10q2 0 5 0.5t8.5 6.5t6.5 18v116q-1 11 -6 17.5t-10 6.5l-4 1v8l90 17v-25z
M924 1022q0 3 0.5 8t6 18.5t15.5 23.5t32.5 18t53.5 8q20 0 39 -5.5t25 -7.5t22 5q4 4 12 4v-74h-10q0 2 -1.5 6t-7.5 14t-14.5 17.5t-26.5 13.5t-40 6q-23 0 -38 -15.5t-14.5 -33t17.5 -24.5q8 -3 44.5 -13t59.5 -19t43.5 -33.5t18.5 -59.5q-2 -32 -32.5 -52t-88.5 -20
q-24 0 -43.5 2.5t-27.5 5t-14 1t-11 -8.5h-10v78h12q0 -25 29 -40.5t65 -15.5q37 0 52 17.5t4.5 38t-39.5 28.5q-2 1 -19.5 6t-23 7t-21.5 8.5t-22.5 11t-17.5 13t-16 17t-9 20.5t-4 26zM1284 999h-4.5t-7.5 -5.5t-6 -16.5l-2 -135q1 -12 6 -18t10 -6l4 -1v-10h-29
q-13 0 -20.5 1t-18.5 5.5t-16.5 17t-5.5 31.5v113q-1 12 -6 18t-10 6h-4v11q29 0 54.5 11t37.5 11v-22h18v-11zM1303 999v11h106v-11h-4.5t-7 -6t-4.5 -18v-107q0 -22 11.5 -27.5t23.5 4t12 23.5v103q0 14 -4 21t-8 7h-3v11h105v-11h-5t-8.5 -6t-7.5 -18v-133q2 -12 7 -18
t10 -6l4 -1v-10h-49q-16 0 -28.5 11.5t-12.5 21.5q-16 -33 -51 -33q-26 0 -47 16t-21 45v103q0 13 -4 20t-7 7.5t-7 0.5zM1831 762q0 -33 -39 -33q-18 0 -38.5 4.5t-45.5 25t-31 54.5q-15 -6 -32 -6q-41 0 -70 29.5t-29 72.5q0 41 29 71t70 30q14 0 30 -4v92l90 -19v-8
q-2 0 -4.5 -0.5t-7.5 -6.5t-6 -17v-213q3 -86 47 -89q-6 6 -6 17q0 8 6.5 14t15.5 6q8 0 14.5 -6.5t6.5 -13.5zM1645 821q30 0 30 88q0 44 -6 66t-24 22q-31 0 -31 -88t31 -88zM1886 817v-10h-108v10q2 0 5 0.5t8.5 6.5t6.5 18v116q-1 11 -6 17.5t-10 6.5l-4 1v8l90 17v-160
q0 -15 4.5 -22.5t9.5 -7.5zM1802 1057q0 13 10 23t23 10q12 0 22.5 -10t10.5 -23t-10.5 -23t-22.5 -10q-13 0 -23 10t-10 23zM2087 907q0 -41 -28.5 -70.5t-69.5 -29.5t-71 29.5t-30 70.5q0 43 30 73t71 30t69.5 -30t28.5 -73zM1989 823q18 0 24 22t6 64t-6 64t-24 22
q-31 0 -31 -86t31 -86zM25 299v51h376v-51h-376zM1081 1403h-227l174 219h227zM2091 1403h-215l174 219h41v-219zM399 1403h-227l174 219h227zM1421 1403h-227l174 219h227zM233 1622l-174 -219h-34v219h208zM741 1403h-229l174 219h227zM1763 1403h-227l172 219h229z
M1028 209h227l-174 -219h-227zM1876 -10l174 219h41v-219h-215zM346 209h227l-174 -219h-227zM1368 209h227l-174 -219h-227zM25 209h208l-174 -219h-34v219zM686 209h227l-172 -219h-229zM1708 209h229l-174 -219h-227z" />
    <glyph glyph-name="nine" unicode="9" horiz-adv-x="2150" 
d="M57 1249l-10 -53h-31l27 143q20 4 39 4q24 0 37 -10q16 -10 16 -30q0 -28 -20 -41q-15 -15 -45 -15q-4 0 -8 1t-5 1zM70 1317l-9 -43h13q13 0 21.5 6.5t8.5 17.5q0 19 -22 19h-12zM246 1315h-56l-6 -31h54l-7 -27h-51l-6 -34h57l-4 -27h-90l29 145h86zM291 1253l-10 -57
h-31l26 143q20 4 39 4q27 0 37 -10q17 -7 17 -26q0 -30 -33 -41v-2q11 -5 14 -27q5 -39 6 -41h-32q0 2 -1 6.5t-2 12.5l-2 16q-2 22 -20 22h-8zM303 1317l-8 -39h12q31 0 31 22q0 19 -23 19q-3 0 -7 -1t-5 -1zM416 1221q22 0 22 16q0 11 -20 20q-29 17 -29 39q0 21 16 34
t41 13q15 0 33 -6l-8 -26q-18 6 -29 6q-20 0 -20 -14q0 -11 20 -21q29 -16 29 -39q0 -24 -16.5 -36.5t-42.5 -12.5t-41 10l10 27q13 -10 35 -10zM569 1343q27 0 42.5 -16t15.5 -43q0 -45 -25 -70q-23 -20 -53 -20q-28 0 -44 17t-16 44q0 41 27 68q20 20 53 20zM578 1231
q16 16 16 51q0 37 -29 37q-15 0 -24 -12q-19 -16 -19 -52q0 -34 31 -34q12 0 25 10zM674 1247l-10 -51h-29l27 145h36l19 -55q7 -21 14 -49q1 4 2.5 21.5t3.5 29.5l11 53h28l-26 -145h-33l-21 57q-10 33 -12 52h-2l-3 -22q-3 -22 -5 -36zM817 1235l-16 -39h-33l70 145h41
l16 -145h-33l-2 39h-43zM842 1288l-15 -31h31l-2 31q0 4 -1 14.5t-1 14.5q-2 -4 -6 -14.5t-6 -14.5zM938 1341h31l-21 -118h56l-7 -27h-86zM1114 1341l-16 -84q-2 -4 -2 -16q0 -20 22 -20q26 0 31 36l16 84h31l-16 -81q-6 -34 -21.5 -50t-44.5 -16q-49 0 -49 47q0 13 2 21
l16 79h31zM1237 1221q23 0 23 16q0 11 -21 20q-29 17 -29 39q0 21 16.5 34t41.5 13q14 0 32 -6l-8 -26q-18 6 -28 6q-21 0 -21 -14q0 -11 21 -21q28 -16 28 -39q0 -24 -16.5 -36.5t-42.5 -12.5t-41 10l10 27q13 -10 35 -10zM1413 1315h-53l-6 -31h51l-4 -27h-53l-7 -34h58
l-4 -27h-88l26 145h86zM1575 1214q-20 -20 -53 -20q-27 0 -43.5 17t-16.5 44q0 41 27 68q23 20 53 20q29 0 44.5 -16t15.5 -43q0 -43 -27 -70zM1495 1255q0 -34 31 -34q14 0 24 10q19 16 19 51q0 37 -31 37q-16 0 -25 -12q-18 -18 -18 -52zM1657 1305q0 -3 -10 -58l-11 -51
h-28l28 145h37l19 -55q9 -28 12 -49h2q0 21 6 51l10 53h29l-29 -145h-30l-21 57q-9 31 -14 52zM1780 1341h30l-22 -118h55l-4 -27h-88zM1907 1255l-13 -59h-30l12 59l-29 86h33l10 -36q4 -24 4 -27h2q6 12 15 27l20 36h37zM1997 1212q0 8 5.5 14.5t14.5 6.5q7 0 13 -5.5
t6 -13.5q0 -20 -21 -20q-7 0 -12.5 5t-5.5 13zM2056 1341l-22 -98h-25l14 98h33zM92 649h-51v-41h47v-14h-47v-55h-14v123h65v-13zM186 584q0 -23 -13 -35t-30 -12q-18 0 -29.5 13t-11.5 34t12 33t31 12t30 -12.5t11 -32.5zM117 584q0 -15 7.5 -25t18.5 -10q12 0 19.5 10
t7.5 25q0 12 -6.5 22t-18.5 10q-28 0 -28 -32zM223 539h-16v61v27h14v-17q6 19 25 19h4v-15h-4q-20 0 -23 -20v-8v-47zM299 600q0 28 17 46t46 18q15 0 29 -7l-4 -12q-9 6 -25 6q-47 0 -47 -51q0 -49 47 -49q16 0 25 6l4 -14q-12 -4 -33 -4q-27 0 -43 15.5t-16 45.5z
M444 537q-19 0 -31 13t-12 34t12.5 33t30.5 12q20 0 31.5 -12.5t11.5 -32.5q0 -23 -13 -35t-30 -12zM444 616q-26 0 -26 -32q0 -15 7 -25t19 -10q11 0 19 10t8 25q0 12 -7 22t-20 10zM633 539h-17v51q0 26 -18 26q-14 0 -18 -14q0 -1 -1 -4t-1 -4v-55h-15v53q0 24 -18 24
q-17 0 -21 -16q0 -1 -1 -3.5t-1 -4.5v-53h-14v65q0 17 -2 23h14l2 -15q8 17 27 17q21 0 24 -17h2q2 4 9 11q9 6 20 6q29 0 29 -37v-53zM784 592v-53h-16v51q0 26 -18 26q-16 0 -19 -14q-2 -2 -2 -8v-55h-16v53q0 24 -19 24q-14 0 -18 -16q-2 -2 -2 -8v-53h-15v65q0 17 -2 23
h15v-15h2q8 17 26 17t25 -17q1 1 4.5 5.5t5.5 5.5q9 6 21 6q28 0 28 -37zM881 588v-8h-62q0 -14 8.5 -21.5t20.5 -7.5t24 4l5 -12q-12 -4 -31 -4q-43 0 -43 43q0 21 11.5 34t29.5 13q19 0 28 -13t9 -28zM819 592h47q0 9 -5.5 17.5t-16.5 8.5t-18 -8.5t-7 -17.5zM901 600
q0 19 -2 27h14v-17h2q6 19 25 19h4v-15h-6q-17 0 -20 -20q0 -1 -1.5 -3.5t-1.5 -4.5v-47h-14v61zM1020 543q-8 -4 -25 -4q-43 0 -43 43q0 22 12.5 34.5t34.5 12.5q13 0 21 -4l-2 -13q-8 4 -19 4q-15 0 -23.5 -9t-8.5 -23q0 -15 9 -24t21 -9q13 0 21 4zM1047 662q10 0 10 -11
q0 -8 -10 -8q-11 0 -11 8q0 11 11 11zM1038 539v88h17v-88h-17zM1102 537q-13 0 -20 8t-7 18q0 33 51 33v2q0 20 -18 20q-11 0 -23 -8l-4 11q8 8 29 8q33 0 33 -35v-33q0 -16 2 -22h-15l-2 12q-14 -14 -26 -14zM1128 584q-38 0 -38 -19q0 -16 16 -16q15 0 20 14q0 1 1 3t1 3
v15zM1169 539v129h15v-129h-15zM1210 561l19 2q-7 -29 -19 -45h-10q6 15 10 43zM1286 539v120q20 5 31 5q22 0 33 -11q12 -9 12 -26t-10 -27q-12 -12 -37 -12h-12v-49h-17zM1303 649v-47q2 -2 12 -2q14 0 22.5 7.5t8.5 19.5q0 22 -29 22h-14zM1380 539v129h17v-129h-17z
M1489 543q-8 -4 -29 -4q-43 0 -43 43q0 21 11.5 34t29.5 13q19 0 28 -13t9 -28v-8h-61q0 -29 28 -29q13 0 25 4zM1458 618q-11 0 -17.5 -8.5t-6.5 -17.5h45q0 26 -21 26zM1577 539h-14v12h-2q-9 -14 -27 -14q-11 0 -19 8t-8 18q0 33 54 33v2q0 20 -21 20q-10 0 -22 -8l-5 11
q11 8 29 8q35 0 35 -35v-33v-22zM1561 569v15q-37 0 -37 -19q0 -16 14 -16t23 14v6zM1653 563q0 -11 -9 -17.5t-24 -6.5q-16 0 -25 6l4 10q12 -6 21 -6q18 0 18 14q0 7 -16 17q-25 6 -25 24q0 11 9 18t22 7q11 0 23 -4l-4 -13q-8 4 -19 4q-14 0 -14 -10q0 -11 16 -16
q23 -10 23 -27zM1745 588v-8h-62q0 -29 29 -29q13 0 25 4l2 -12q-8 -4 -29 -4q-43 0 -43 43q0 21 11.5 34t29.5 13q19 0 28 -13t9 -28zM1683 592h46q0 26 -21 26q-11 0 -18 -8.5t-7 -17.5zM1868 662h16l-43 -123h-18l-39 123h16l21 -60q10 -40 12 -47q12 41 14 47zM1903 662
q10 0 10 -11q0 -8 -10 -8q-11 0 -11 8q0 11 11 11zM1894 539v88h17v-88h-17zM1956 549q16 0 16 14q0 9 -16 17q-23 7 -23 24q0 11 9 18t22 7t21 -4l-5 -13q-4 4 -16 4q-16 0 -16 -10t16 -16q25 -9 25 -27q0 -11 -9 -17.5t-24 -6.5q-16 0 -25 6l4 10q12 -6 21 -6zM2017 662
q8 0 8 -11q0 -8 -10 -8q-8 0 -8 8q0 11 10 11zM2025 627v-88h-16v88h16zM2093 614h-22v-47q0 -16 12 -16h8l2 -10q-4 -2 -14 -2q-13 0 -19 6t-6 22v47h-12v13h12v22l17 4v-26h22v-13zM559 274h-35l2 21q-14 -25 -41 -25q-16 0 -27.5 13t-11.5 34q0 35 22.5 59.5t57.5 24.5
q11 0 17 -2l10 56h37l-25 -133q-6 -21 -6 -48zM502 301q22 0 28 35l7 33q-3 6 -15 6q-15 0 -26 -16t-11 -35q0 -23 17 -23zM655 436q0 -22 -22 -22q-17 0 -17 18q0 9 6 15t15 6q18 0 18 -17zM647 399l-24 -125h-37l24 125h37zM731 274l12 70q2 4 2 12q0 17 -12 17
q-10 0 -19 -12t-12 -31l-10 -56h-37l15 84q4 14 8 41h33l-4 -20h2q14 22 43 22q32 0 32 -32q0 -3 -1 -11.5t-1 -11.5l-14 -72h-37zM801 328l6 26h65l-4 -26h-67zM946 375q-16 0 -16 -10q0 -9 14 -15q29 -17 29 -35q0 -21 -16 -33t-42 -12q-23 0 -38 11l8 26q16 -8 33 -8
q16 0 16 10q0 9 -16 17q-25 11 -25 32q0 20 14.5 31.5t38.5 11.5t33 -6l-8 -26q-9 6 -25 6zM1047 371l-9 -43q-2 -4 -2 -15q0 -10 11 -10h10l-4 -29q-12 -4 -23 -4q-33 0 -33 27q0 4 1 12t1 13l11 49h-17l6 28h17l4 27l39 8l-8 -35h26l-4 -28h-26zM1190 274h-33l2 21
q-19 -25 -43 -25q-33 0 -33 35q0 15 2 25l15 69h37l-13 -67q-2 -6 -2 -17q0 -14 13 -14q21 0 30 41l11 57h36l-16 -84q-4 -29 -6 -41zM1335 274h-35l3 21q-14 -25 -41 -25q-16 0 -27.5 13t-11.5 34q0 35 22.5 59.5t57.5 24.5q10 0 16 -2l10 56h37l-25 -133q-6 -21 -6 -48z
M1278 301q23 0 29 35l6 33q-3 6 -15 6q-15 0 -25.5 -16t-10.5 -35q0 -23 16 -23zM1432 436q0 -10 -7 -16t-16 -6q-16 0 -16 18q0 21 20 21q8 0 13.5 -5t5.5 -12zM1423 399l-24 -125h-37l24 125h37zM1489 270q-25 0 -39 14.5t-14 39.5q0 33 20 55t53 22q25 0 39.5 -14.5
t14.5 -36.5q0 -34 -21 -57t-53 -23zM1505 375q-15 0 -23.5 -17t-8.5 -34q0 -25 20 -25q14 0 22.5 16t8.5 35q0 25 -19 25zM1591 270q-9 0 -14.5 7t-5.5 16q0 11 7 18.5t17 7.5t16.5 -6.5t6.5 -15.5q0 -11 -7.5 -19t-19.5 -8zM1722 373q-20 0 -31.5 -13.5t-11.5 -33.5
q0 -25 25 -25q13 0 25 4v-26q-18 -9 -35 -9q-23 0 -38.5 14.5t-15.5 37.5q0 34 23.5 56.5t58.5 22.5q17 0 25 -4l-8 -28q-8 4 -17 4zM1802 270q-24 0 -38.5 15t-14.5 39q0 33 21.5 55t54.5 22q24 0 38.5 -14.5t14.5 -36.5q0 -34 -22 -57t-54 -23zM1819 375
q-14 0 -22.5 -17.5t-8.5 -33.5q0 -25 20 -25q14 0 22.5 16t8.5 35q0 25 -20 25zM2036 274l12 68q0 3 1 8t1 8q0 15 -12 15q-21 0 -31 -43l-10 -56h-35l12 68q2 6 2 14q0 17 -12 17q-9 0 -18 -12t-13 -31l-10 -56h-35l17 84q3 20 6 41h31l-3 -20q16 22 43 22t31 -22
q14 22 43 22q14 0 22.5 -8.5t8.5 -23.5q0 -3 -1 -11.5t-1 -11.5l-14 -72h-35zM158 729q-69 3 -109.5 37t-38.5 82q0 37 15.5 52t33.5 15q28 0 37 -21.5t-6 -35.5q0 20 -20 24q-23 5 -33 -18q-4 -9 -4 -20q0 -41 34.5 -65.5t90.5 -24.5q116 0 116 172v6q0 23 -0.5 37t-4 39
t-10 39.5t-20 26t-32.5 11.5q-12 0 -14 -28v-78v-2v-129q0 -15 5 -22.5t10 -7.5l5 -1v-10h-111v10h5.5t9 6t6.5 17v2v221q0 33 -29 33q-9 0 -15.5 -5.5t-6.5 -11.5q0 -8 5 -11.5t10 -3.5l5 1q0 -33 -31 -33q-30 0 -30 31q0 23 20 36t43 13q20 -1 52 -8.5t61 -7.5
q139 0 139 -172q0 -49 -18 -92t-62 -74t-108 -29zM479 817v-10h-110v10q2 0 5 0.5t8.5 6.5t6.5 18v116q-1 11 -6 17.5t-9 6.5l-5 1v8l90 17v-160q0 -15 5 -22.5t10 -7.5zM426 1090q14 0 23.5 -10t9.5 -23t-9.5 -23t-23.5 -10t-23.5 10t-9.5 23t9.5 23t23.5 10zM592 983
q22 27 59 27q25 0 42.5 -16t17.5 -46v-100q0 -31 18 -31v-10h-108v10q2 0 4.5 0.5t7.5 6.5t6 18v112q0 22 -18 23q-20 2 -27 -18q-2 -5 -2 -11v-100q0 -15 5 -22.5t10 -7.5l5 -1v-10h-110v10q2 0 5 0.5t8.5 6.5t6.5 18v116q-1 11 -6 17.5t-10 6.5l-4 1v8l90 17v-25z
M924 1022q0 3 0.5 8t6 18.5t15.5 23.5t32.5 18t53.5 8q20 0 39 -5.5t25 -7.5t22 5q4 4 12 4v-74h-10q0 2 -1.5 6t-7.5 14t-14.5 17.5t-26.5 13.5t-40 6q-23 0 -38 -15.5t-14.5 -33t17.5 -24.5q8 -3 44.5 -13t59.5 -19t43.5 -33.5t18.5 -59.5q-2 -32 -32.5 -52t-88.5 -20
q-24 0 -43.5 2.5t-27.5 5t-14 1t-11 -8.5h-10v78h12q0 -25 29 -40.5t65 -15.5q37 0 52 17.5t4.5 38t-39.5 28.5q-2 1 -19.5 6t-23 7t-21.5 8.5t-22.5 11t-17.5 13t-16 17t-9 20.5t-4 26zM1284 999h-4.5t-7.5 -5.5t-6 -16.5l-2 -135q1 -12 6 -18t10 -6l4 -1v-10h-29
q-13 0 -20.5 1t-18.5 5.5t-16.5 17t-5.5 31.5v113q-1 12 -6 18t-10 6h-4v11q29 0 54.5 11t37.5 11v-22h18v-11zM1303 999v11h106v-11h-4.5t-7 -6t-4.5 -18v-107q0 -22 11.5 -27.5t23.5 4t12 23.5v103q0 14 -4 21t-8 7h-3v11h105v-11h-5t-8.5 -6t-7.5 -18v-133q2 -12 7 -18
t10 -6l4 -1v-10h-49q-16 0 -28.5 11.5t-12.5 21.5q-16 -33 -51 -33q-26 0 -47 16t-21 45v103q0 13 -4 20t-7 7.5t-7 0.5zM1831 762q0 -33 -39 -33q-18 0 -38.5 4.5t-45.5 25t-31 54.5q-15 -6 -32 -6q-41 0 -70 29.5t-29 72.5q0 41 29 71t70 30q14 0 30 -4v92l90 -19v-8
q-2 0 -4.5 -0.5t-7.5 -6.5t-6 -17v-213q3 -86 47 -89q-6 6 -6 17q0 8 6.5 14t15.5 6q8 0 14.5 -6.5t6.5 -13.5zM1645 821q30 0 30 88q0 44 -6 66t-24 22q-31 0 -31 -88t31 -88zM1886 817v-10h-108v10q2 0 5 0.5t8.5 6.5t6.5 18v116q-1 11 -6 17.5t-10 6.5l-4 1v8l90 17v-160
q0 -15 4.5 -22.5t9.5 -7.5zM1802 1057q0 13 10 23t23 10q12 0 22.5 -10t10.5 -23t-10.5 -23t-22.5 -10q-13 0 -23 10t-10 23zM2087 907q0 -41 -28.5 -70.5t-69.5 -29.5t-71 29.5t-30 70.5q0 43 30 73t71 30t69.5 -30t28.5 -73zM1989 823q18 0 24 22t6 64t-6 64t-24 22
q-31 0 -31 -86t31 -86zM25 299v51h376v-51h-376zM1081 1403h-227l174 219h227zM2091 1403h-215l174 219h41v-219zM399 1403h-227l174 219h227zM1421 1403h-227l174 219h227zM233 1622l-174 -219h-34v219h208zM741 1403h-229l174 219h227zM1763 1403h-227l172 219h229z
M1028 209h227l-174 -219h-227zM1876 -10l174 219h41v-219h-215zM346 209h227l-174 -219h-227zM1368 209h227l-174 -219h-227zM25 209h208l-174 -219h-34v219zM686 209h227l-172 -219h-229zM1708 209h229l-174 -219h-227z" />
    <glyph glyph-name="colon" unicode=":" horiz-adv-x="155" 
d="M45 575q-20 0 -34.5 -14.5t-14.5 -36.5t14.5 -36.5t34.5 -14.5q22 0 36.5 14.5t14.5 36.5t-14.5 36.5t-36.5 14.5zM45 1180q-20 0 -34.5 -15t-14.5 -37t14.5 -36.5t34.5 -14.5q22 0 36.5 14.5t14.5 36.5t-14.5 37t-36.5 15z" />
    <glyph glyph-name="semicolon" unicode=";" horiz-adv-x="153" 
d="M43 1180q-20 0 -34.5 -15t-14.5 -37t14.5 -36.5t34.5 -14.5q22 0 36.5 14.5t14.5 36.5t-14.5 37t-36.5 15zM37 483q10 -4 11.5 -12.5t-2.5 -14.5l-3 -7q45 24 51 57q3 13 -2 31q-10 38 -49 38q-21 0 -36 -15t-15 -36q0 -19 14 -31.5t31 -9.5z" />
    <glyph glyph-name="semicolon" unicode="&#x37e;" horiz-adv-x="153" 
d="M43 1180q-20 0 -34.5 -15t-14.5 -37t14.5 -36.5t34.5 -14.5q22 0 36.5 14.5t14.5 36.5t-14.5 37t-36.5 15zM37 483q10 -4 11.5 -12.5t-2.5 -14.5l-3 -7q45 24 51 57q3 13 -2 31q-10 38 -49 38q-21 0 -36 -15t-15 -36q0 -19 14 -31.5t31 -9.5z" />
    <glyph glyph-name="less" unicode="&#x3c;" horiz-adv-x="448" 
d="M-4 772l371 -135q12 -4 20 -16.5t8 -24.5v156q0 -14 -8.5 -20.5t-21.5 -2.5l-246 88l246 88q13 4 21.5 -2t8.5 -18v153q0 -12 -8 -24.5t-20 -16.5l-371 -133q-9 -3 -9 -46.5t9 -45.5z" />
    <glyph glyph-name="equal" unicode="=" horiz-adv-x="468" 
d="M426 993q0 -12 -8 -21.5t-21 -10.5h-370q-12 1 -19.5 10.5t-7.5 21.5v-155q0 13 8.5 22.5t20.5 9.5h366q13 0 22 -9t9 -23v155zM426 797q0 -14 -8 -23.5t-21 -9.5h-370q-12 0 -19.5 9.5t-7.5 23.5v-156q0 14 8.5 23.5t20.5 9.5h366q13 0 22 -9.5t9 -23.5v156z" />
    <glyph glyph-name="greater" unicode="&#x3e;" horiz-adv-x="446" 
d="M393 772q9 2 9 45.5t-9 46.5l-370 133q-12 4 -19.5 16.5t-7.5 24.5v-153q0 12 8.5 18t20.5 2l245 -88l-245 -88q-12 -4 -20.5 2.5t-8.5 20.5v-156q0 12 7.5 24.5t19.5 16.5z" />
    <glyph glyph-name="question" unicode="?" horiz-adv-x="1304" 
d="M557 217q-45 0 -76.5 -31.5t-31.5 -76.5q0 -44 32 -76.5t76 -32.5t76.5 32.5t32.5 76.5q0 45 -32 76.5t-77 31.5zM451 289h231q-22 0 -43 16t-21 41q-1 15 6 28.5t14 19.5l7 7q26 34 86.5 82.5t126 97.5t132 106.5t120 130.5t74.5 149q23 95 14 185t-57.5 171t-121 144.5
t-178.5 105.5t-229 53q-109 10 -229 -27t-221.5 -117.5t-145.5 -185.5q-18 -28 -61 -28l295 -27q-23 3 -38 20.5t-11 45.5v2q29 139 146 222t259 75q75 -5 139.5 -32.5t110.5 -71t79 -102.5t48 -125.5t12.5 -141t-22.5 -148.5q-23 -86 -58 -156.5t-73.5 -117.5t-80 -86.5
t-81 -72t-74 -64.5t-62.5 -73.5t-42 -90.5q-2 -10 -17.5 -23t-33.5 -12z" />
    <glyph glyph-name="at" unicode="@" horiz-adv-x="1681" 
d="M1235 225q37 40 84 17l-191 102l-69 37q24 -14 19 -45.5t-31 -52.5q-127 -101 -291 -128.5t-314 25.5q-129 45 -228 142t-150 223t-46 258q6 155 86 292.5t211 221.5q150 93 334 96h4h15q123 -3 236.5 -53t199.5 -137q89 -90 136.5 -210t45.5 -245v-4q-1 -9 -2 -29
t-2 -30q-6 -37 -25 -66q-30 -46 -88 -57.5t-104 14.5q-40 23 -63 68t-23 96v250q1 49 23 78.5t53 29.5h-310q43 0 64 -47v-41q-89 66 -193 66h-4q-76 0 -145.5 -36.5t-112.5 -98.5q-50 -68 -58 -157t28 -165q34 -70 98 -119t139 -63q75 -12 149 11t128 75l22 22q1 -1 3 -4
t3 -4q51 -79 140 -119t182 -28q106 17 172 86q49 49 68 102.5t24 144.5v27q6 140 -39 266q-81 240 -294.5 392.5t-463.5 154.5h-6q-224 -1 -419.5 -122t-295.5 -318q-101 -202 -82.5 -429.5t148.5 -406.5q112 -155 286.5 -243.5t364.5 -88.5q163 0 317 66t267 184zM614 958
h2q53 0 98.5 -29.5t67.5 -76.5q32 -73 3.5 -145.5t-95.5 -102.5q-51 -21 -107.5 -10.5t-95.5 47.5q-44 43 -53.5 106t19.5 115q25 44 68.5 70t92.5 26z" />
    <glyph glyph-name="A" unicode="A" 
d="M508 1632q4 0 20 -4q22 -8 28.5 -37.5t-5.5 -72.5l-438 -1401q-17 -52 -49.5 -84.5t-63.5 -32.5h201q-31 0 -43 29.5t0 76.5l211 668q7 33 49 33h383q40 0 51 -33l209 -668q13 -47 0.5 -76.5t-43.5 -29.5h364q-31 0 -63 32.5t-49 84.5l-439 1401q-15 51 -3.5 82.5
t44.5 31.5h-364zM825 856q5 -10 1.5 -20t-21.5 -11h-391q-29 2 -21 31l209 670q4 12 8 18l6 -18z" />
    <glyph glyph-name="B" unicode="B" horiz-adv-x="1310" 
d="M596 1632h-596q30 0 51.5 -29.5t24.5 -76.5v-1420q-3 -47 -24.5 -76.5t-51.5 -29.5h201h465q146 0 252 35t168.5 101.5t91.5 154.5t28 203q-2 185 -108 302t-320 142q233 55 236 340q1 80 -25 143t-67.5 101.5t-98.5 64t-112 35t-115 10.5zM518 926q93 -2 168 -23
t122 -50.5t81.5 -72.5t51 -79.5t26.5 -82t11.5 -68.5t2.5 -51v-5q0 -78 -2 -96q-21 -230 -209 -322q-113 -56 -283 -56h-168q-32 32 -32 97v809h231zM506 1614q64 -1 114 -22t80.5 -53t50.5 -75.5t28 -85.5t9 -88q1 -41 -5.5 -82.5t-26.5 -90.5t-52 -85.5t-88.5 -61
t-130.5 -24.5h-198v572q0 60 32 96h187z" />
    <glyph glyph-name="C" unicode="C" horiz-adv-x="1411" 
d="M983 1440v-2q11 -24 -11.5 -43t-47.5 -21l299 27q-25 -3 -58 26q-120 110 -270.5 164t-312.5 39q-157 -14 -294 -92t-230 -196.5t-140 -275t-31 -321.5q15 -165 90 -310t188 -244.5t262 -150.5t306 -36q148 13 273 85.5t188 174.5h-31q-61 -98 -187.5 -164t-244.5 -77
q-151 -14 -289.5 80t-231 270t-112.5 391q-20 216 38 407.5t177 310t271 128.5q137 7 250.5 -43t148.5 -127z" />
    <glyph glyph-name="D" unicode="D" horiz-adv-x="1327" 
d="M440 0q142 0 259 30.5t197 80t140.5 120t95.5 142.5t56.5 156t28 152.5t6.5 139.5q0 64 -8 129.5t-30.5 147.5t-58 155t-96 144t-139.5 122t-194.5 82t-254.5 31h-442q30 0 52.5 -30t23.5 -76v-1420q-1 -46 -23.5 -76t-52.5 -30h440zM319 1614h19q104 -1 192.5 -22.5
t152 -54.5t114.5 -83t83 -99t56 -111.5t35.5 -111.5t18 -108t7.5 -91.5t0.5 -71.5t-0.5 -40q1 -32 0.5 -65.5t-11.5 -118.5t-33.5 -156t-72 -159t-119 -150t-184 -105.5t-258.5 -46.5q-32 32 -32 97v1401q0 60 32 96z" />
    <glyph glyph-name="E" unicode="E" horiz-adv-x="1234" 
d="M1128 1632h-1128q30 0 51.5 -29.5t24.5 -76.5v-1420q-3 -47 -24.5 -76.5t-51.5 -29.5h1130v227q-1 -7 -3.5 -18.5t-23.5 -43t-56 -57.5t-108.5 -52t-172.5 -36h-447q-32 32 -32 95v702h231q47 -8 83.5 -22t54.5 -28t29.5 -27t14.5 -21l2 -8v114v117q-1 -3 -3 -8.5
t-13.5 -20.5t-29.5 -27.5t-54.5 -27t-83.5 -22.5h-231v680q0 63 35 98h442q72 -8 131.5 -23.5t96.5 -34t64.5 -39.5t41 -40.5t21.5 -35t9 -25.5l2 -9v225h-2z" />
    <glyph glyph-name="F" unicode="F" horiz-adv-x="1234" 
d="M0 1632q31 0 53 -29.5t23 -76.5v-1420q-1 -47 -23 -76.5t-53 -29.5h365q-31 0 -53.5 32.5t-22.5 82.5v702h231q47 -8 83.5 -22t54.5 -28t29.5 -27t14.5 -21l3 -8v114v117q-1 -3 -3 -8.5t-14 -20.5t-30 -27.5t-54.5 -27t-83.5 -22.5h-231v680q0 65 33 98h442
q72 -8 131.5 -23.5t96.5 -34t64.5 -39.5t41 -40.5t21.5 -35t9 -25.5l2 -9v225h-1130z" />
    <glyph glyph-name="G" unicode="G" horiz-adv-x="1527" 
d="M1313 195q-32 0 -54 32.5t-22 83.5v394q0 51 22 82.5t54 31.5h-363q30 0 51.5 -29.5t24.5 -76.5v-518q-5 -75 -65 -107q-118 -56 -222 -65q-152 -14 -290.5 80t-230.5 270t-112 391q-20 216 38 407.5t177 310t271 128.5q136 7 249 -43t148 -127q8 -24 -13.5 -42
t-45.5 -20l299 27q-33 -3 -64 31q-29 40 -80 77.5t-122 68.5t-169 44.5t-204 3.5q-157 -14 -294 -92t-230 -196.5t-140 -275t-32 -321.5q16 -165 91 -310t188.5 -244t262 -150t305.5 -37q82 8 171 37.5t152.5 60.5t133 59.5t115.5 33.5z" />
    <glyph glyph-name="H" unicode="H" horiz-adv-x="1388" 
d="M362 0q-31 0 -53 33t-22 84v657q0 12 14 22t37 11h-2h610q22 -1 35.5 -10t13.5 -21v-670q-1 -47 -22.5 -76.5t-52.5 -29.5h364q-31 0 -53.5 32.5t-22.5 82.5v1401q0 51 22 83.5t54 32.5h-364q31 0 52.5 -29.5t22.5 -76.5v-670q0 -12 -12 -21t-31 -10h-620q-20 2 -32.5 11
t-12.5 22v660q0 50 22 82t53 32h-362q30 0 51.5 -29.5t24.5 -76.5v-1420q-3 -47 -24.5 -76.5t-51.5 -29.5h362z" />
    <glyph glyph-name="I" unicode="I" horiz-adv-x="466" 
d="M0 1632q30 0 51.5 -29.5t24.5 -76.5v-1420q-3 -47 -24.5 -76.5t-51.5 -29.5h362q-31 0 -53 32.5t-22 82.5v1401q0 51 21.5 83.5t53.5 32.5h-362z" />
    <glyph glyph-name="J" unicode="J" horiz-adv-x="688" 
d="M221 1632q30 0 51.5 -29.5t24.5 -76.5v-1112q0 -112 -4 -146q-30 -268 -293 -268q86 0 155.5 8t120.5 24.5t89 37.5t63.5 52t41.5 61.5t24 72.5t11 80t3 88v1092q0 51 22 83.5t54 32.5h-363z" />
    <glyph glyph-name="K" unicode="K" horiz-adv-x="1302" 
d="M1118 1632h-203q39 0 30 -42q-7 -31 -38 -72l-620 -852v850q0 51 22.5 83.5t55.5 32.5h-365q30 0 52.5 -30t23.5 -76v-1420q-1 -46 -23.5 -76t-52.5 -30h365q-33 0 -55.5 32.5t-22.5 82.5v483l106 147l443 -639q20 -31 26.5 -55.5t-1.5 -37.5t-27 -13h362
q-31 0 -75.5 32.5t-80.5 82.5l-538 778l461 633q38 47 81 76.5t74 29.5z" />
    <glyph glyph-name="L" unicode="L" horiz-adv-x="1234" 
d="M365 1632h-365q31 0 53 -29.5t25 -76.5v-1417q-3 -49 -25 -78t-53 -29l1130 -2v227q-1 -7 -3.5 -18.5t-23.5 -43t-56 -57.5t-108.5 -52t-172.5 -36h-442q-35 32 -35 97v1401q0 51 22 82.5t54 31.5z" />
    <glyph glyph-name="M" unicode="M" horiz-adv-x="1587" 
d="M381 1630h-379q32 0 54 -32t22 -82v-1401q0 -52 -22.5 -84.5t-55.5 -32.5h203q-31 0 -53 29.5t-23 76.5v1420v2v-2l504 -1526l74 2l489 1518v-1412q-1 -48 -23.5 -77t-52.5 -29h365q-33 0 -55.5 32t-22.5 83v1401q0 51 22.5 82.5t55.5 31.5h-379q33 0 44.5 -31.5
t-3.5 -82.5l-397 -1231l-406 1231q-17 52 -5.5 83t44.5 31z" />
    <glyph glyph-name="N" unicode="N" horiz-adv-x="1249" 
d="M367 1632h-363h4h-6q32 0 54 -32t22 -82l-2 -1401q0 -52 -21.5 -84.5t-54.5 -32.5h76h49h76q-30 0 -51.5 29.5t-24.5 76.5l2 1420v6q0 -2 4 -6l676 -1417q21 -49 13 -78t-38 -29l363 -2q-43 0 -57.5 27.5t-18.5 78.5l2 1420q1 47 23 76.5t53 29.5h-201q32 0 54 -32
t22 -82l-2 -1401v-13l-6 13l-668 1401q-24 52 -17.5 83t38.5 31z" />
    <glyph glyph-name="O" unicode="O" horiz-adv-x="1648" 
d="M778 1634q-210 0 -388.5 -109.5t-282 -297.5t-103.5 -410t103.5 -410t282 -297.5t388.5 -109.5q126 0 243.5 41t212.5 117t166.5 176.5t110.5 225t39 257.5t-39 257.5t-110.5 225t-166.5 176.5t-212.5 117t-243.5 41zM778 1612q114 0 217.5 -63t178.5 -170t119 -254.5
t44 -309.5q0 -129 -28 -250.5t-80 -219t-120.5 -171.5t-154 -114t-176.5 -40q-153 0 -282 106.5t-204 289.5t-75 399q0 217 75 400.5t204 290t282 106.5z" />
    <glyph glyph-name="P" unicode="P" horiz-adv-x="1308" 
d="M666 1632h-666q30 0 51.5 -29.5t24.5 -76.5v-1420q-3 -47 -24.5 -76.5t-51.5 -29.5h362q-31 0 -53 33t-22 84v493h377q137 1 242 39t169.5 105t97 153t33.5 189q1 115 -28 209t-91 169t-169 116.5t-252 41.5zM319 1614h168q74 0 137.5 -12t109.5 -32.5t85 -49t63 -61
t44 -67.5t29 -70.5t17 -68.5t8 -61.5t2 -51t-1 -35.5v-11q-4 -156 -58 -255q-112 -206 -415 -210h-221v889q0 60 32 96z" />
    <glyph glyph-name="Q" unicode="Q" horiz-adv-x="1650" 
d="M776 0q142 0 277 55q16 -8 28 -12q55 -28 104.5 -41.5t84.5 -13.5t65 6.5t49.5 18t33 22.5t18.5 19l6 9q-17 -20 -41.5 -24.5t-57.5 5.5t-66 25t-80 39q-14 7 -21 11q170 111 270 295.5t100 402.5q0 222 -103.5 410t-282 297.5t-388.5 109.5q-126 0 -243.5 -41
t-212.5 -117t-166.5 -176.5t-110.5 -225t-39 -257.5t39 -257.5t110.5 -225t166.5 -176.5t212.5 -117t243.5 -41h4zM1090 160q-51 13 -101 2.5t-93 -36t-73 -54t-41 -52.5h-10q-91 0 -176.5 40t-154 114t-120.5 171.5t-80 219t-28 250.5q0 162 44 309.5t119 254.5t178.5 170
t217.5 63q153 0 282 -106.5t204 -290t75 -400.5q0 -201 -65.5 -373.5t-177.5 -281.5zM983 78q-90 -52 -186 -58q78 78 186 58z" />
    <glyph glyph-name="R" unicode="R" horiz-adv-x="1310" 
d="M365 0q-32 0 -54 33t-22 84v493h317q49 -28 84 -94l195 -407q21 -49 13 -78t-38 -29h365q-33 0 -70 31.5t-61 83.5l-189 391q-6 9 -18 32t-17.5 30.5t-17.5 20.5t-26.5 19.5t-34.5 10.5q206 31 310.5 159.5t106.5 315.5q1 115 -28.5 209t-91.5 169t-169.5 116.5
t-252.5 41.5h-666q31 0 53 -29.5t23 -76.5v-1420q-1 -47 -23 -76.5t-53 -29.5h365zM487 1614q107 0 191.5 -24.5t134.5 -64.5t88 -90t51 -101.5t24 -99t6.5 -82.5t-1.5 -52v-6q0 -28 -1 -50.5t-10.5 -73t-25.5 -90t-51.5 -89t-83.5 -82t-126 -56t-175 -24.5h-219v889
q0 63 33 96h165z" />
    <glyph glyph-name="S" unicode="S" horiz-adv-x="1329" 
d="M274 326q0 95 70 106l-352 2q54 -15 84 -65q14 -44 40.5 -90t74 -96.5t106.5 -89.5t145 -64.5t183 -26.5q291 -1 443.5 108t158.5 316q3 95 -24.5 170t-76 125t-112.5 89t-136.5 68t-146 56t-142 58.5t-124 69.5t-93 95.5t-46.5 130.5q-9 66 5.5 124t51.5 104.5t105.5 73
t160.5 24.5q76 -2 137.5 -47t83.5 -131q10 -48 0 -70q-16 -33 -71 -35l358 -2q-27 6 -53 27.5t-39 50.5q-49 111 -165 170.5t-298 56.5q-97 -1 -185 -31.5t-151 -80.5t-104.5 -113.5t-52.5 -130.5q-16 -98 4 -176.5t67 -130.5t112.5 -93.5t141 -72.5t152 -59.5t147 -62
t124 -74t84.5 -101t28 -137.5q-2 -67 -26 -129t-67.5 -112.5t-113 -79.5t-154.5 -27t-153 34t-106 79t-57.5 96.5t-17.5 93.5z" />
    <glyph glyph-name="T" unicode="T" horiz-adv-x="1288" 
d="M0 1632v-225q0 4 1.5 11.5t10.5 28t23 39.5t42.5 42.5t65.5 41t95 30t129 14.5h86q29 -29 32 -88v-1420q-1 -46 -23 -76t-52 -30h364q-33 0 -55.5 32.5t-22.5 82.5v1401q0 63 35 98h86q71 -2 129 -14t95 -30.5t65.5 -40.5t42.5 -43.5t22.5 -39t10.5 -28.5l2 -11v225
h-1184z" />
    <glyph glyph-name="U" unicode="U" horiz-adv-x="1390" 
d="M76 494q0 -151 77 -265t204.5 -171.5t285.5 -57.5q234 0 393.5 123.5t171.5 339.5v1053q0 51 22.5 83.5t55.5 32.5h-364q30 0 51 -29.5t24 -76.5v-1223q0 -95 -48.5 -160.5t-126.5 -95t-179 -29.5q-157 0 -255.5 72t-98.5 213v1215q0 50 22 82t54 32h-365q31 0 53 -29.5
t23 -76.5v-1032z" />
    <glyph glyph-name="V" unicode="V" horiz-adv-x="1488" 
d="M856 4q-22 8 -28.5 38t6.5 73l438 1401q15 51 47 83.5t65 32.5h-200q30 0 42 -29.5t-1 -76.5l-443 -1420q-1 -3 -4 -9t-4 -9q-1 3 -4 9t-4 9l-444 1420q-12 47 0.5 76.5t42.5 29.5h-365q33 0 65.5 -32.5t47.5 -83.5l438 -1401q16 -51 4.5 -83t-43.5 -32h365q-9 0 -21 4z
" />
    <glyph glyph-name="W" unicode="W" horiz-adv-x="2160" 
d="M0 1632q32 0 64 -32.5t49 -83.5l438 -1401q16 -51 4 -83t-45 -32h364q-4 0 -20 4q-22 8 -28.5 38t5.5 73l197 626l197 -626q16 -51 4 -83t-45 -32h364q-4 0 -20 4q-22 8 -28.5 38t5.5 73l439 1401q17 52 49 84t63 32h-201q31 0 43 -29.5t0 -76.5l-444 -1420
q-4 -12 -8 -18l-6 18l-305 973l137 437q15 51 46.5 83.5t63.5 32.5h-200q31 0 43 -29.5t0 -76.5l-115 -367l-115 367q-12 47 0 76.5t43 29.5h-364q31 0 63 -32t49 -84l218 -697l-224 -713l-6 -18q-4 6 -8 18l-444 1420q-12 47 0 76.5t43 29.5h-365z" />
    <glyph glyph-name="X" unicode="X" horiz-adv-x="1300" 
d="M1085 1632h-202q21 0 30 -14t4 -40.5t-24 -59.5l-348 -594l-338 592q-30 52 -26.5 84t36.5 32h-364q30 0 68.5 -29.5t68.5 -76.5l446 -785l-364 -624q-30 -52 -71.5 -84.5t-74.5 -32.5h203q-31 0 -35.5 29.5t21.5 76.5l346 592l338 -592q16 -31 19.5 -55.5t-6.5 -37.5
t-30 -13h365q-31 0 -71.5 32.5t-69.5 82.5l-439 766l379 645q31 47 69.5 76.5t69.5 29.5z" />
    <glyph glyph-name="Y" unicode="Y" horiz-adv-x="1581" 
d="M625 668v-562q-1 -47 -23 -76.5t-53 -29.5h364q-31 0 -53 32.5t-22 82.5v555l499 856q30 46 70 76t70 30h-201q21 0 29.5 -14t3.5 -40.5t-25 -59.5l-471 -807l-461 805q-29 52 -25 84t35 32h-362q30 0 68 -29.5t67 -76.5z" />
    <glyph glyph-name="Z" unicode="Z" horiz-adv-x="1157" 
d="M18 1632v-225q0 4 1.5 11.5t10.5 28t22.5 39.5t41.5 42.5t65 41t95 30t129 14.5h371q17 -31 -6 -88l-625 -1420q-23 -46 -58 -76t-65 -30h1051v2v225q-1 -8 -4.5 -21.5t-25.5 -48.5t-57.5 -62t-109 -50t-170.5 -25h-356q-18 32 10 95l618 1401q23 51 59 83.5t68 32.5
h-1065z" />
    <glyph glyph-name="bracketleft" unicode="[" horiz-adv-x="671" 
d="M606 1630q-27 -3 -79 -9q-74 -8 -110 -13.5t-97 -20.5t-91.5 -38t-74 -61.5t-65 -96t-44.5 -136.5t-32 -188t-9 -246q0 -465 122 -637q72 -102 214 -135q48 -12 212 -30q31 -4 54 -7v27q-28 7 -68.5 14t-66 11t-59.5 14.5t-55.5 25t-47.5 41.5t-42 64.5t-33 94t-26 129
t-14.5 171t-5.5 219.5q0 207 19 349t41 217.5t76.5 120.5t88 55.5t113.5 24.5q52 10 80 16v24z" />
    <glyph glyph-name="backslash" unicode="\" horiz-adv-x="843" 
d="M268 1630h-256q33 0 64.5 -31t48.5 -83l432 -1401q15 -53 3.5 -84t-44.5 -31h256q-30 0 -60.5 29t-47.5 77l-439 1418q-12 47 0.5 76.5t42.5 29.5z" />
    <glyph glyph-name="bracketright" unicode="]" horiz-adv-x="671" 
d="M4 1630v-24q28 -6 80 -16q55 -9 81.5 -15.5t70 -27t65 -50t49.5 -85t40.5 -133t22 -192.5t9.5 -264q0 -121 -5.5 -219.5t-14.5 -171t-26 -129t-33 -94t-42 -64.5t-47.5 -41.5t-55.5 -25t-59.5 -14.5t-66 -11t-68.5 -14v-27q31 4 92 11q82 9 122 15t105.5 26.5t97.5 51.5
t74.5 88.5t62 138.5t34 201.5t14.5 276.5q0 122 -9 222t-22 175t-39 133.5t-49 98t-63.5 69t-71 45.5t-83.5 28t-88.5 17t-97.5 12q-17 2 -26.5 3t-24.5 2.5t-28 3.5z" />
    <glyph glyph-name="grave" unicode="`" horiz-adv-x="204" 
d="M0 1909q17 -3 27 -23l67 -139q4 -19 -10 -21h121q-22 3 -33 21l-68 141q-5 6 -1.5 13.5t10.5 7.5h-113z" />
    <glyph glyph-name="a" unicode="a" 
d="M508 1632q4 0 20 -4q22 -8 28.5 -37.5t-5.5 -72.5l-438 -1401q-17 -52 -49.5 -84.5t-63.5 -32.5h201q-31 0 -43 29.5t0 76.5l211 668q7 33 49 33h383q40 0 51 -33l209 -668q13 -47 0.5 -76.5t-43.5 -29.5h364q-31 0 -63 32.5t-49 84.5l-439 1401q-15 51 -3.5 82.5
t44.5 31.5h-364zM825 856q5 -10 1.5 -20t-21.5 -11h-391q-29 2 -21 31l209 670q4 12 8 18l6 -18z" />
    <glyph glyph-name="b" unicode="b" horiz-adv-x="1310" 
d="M596 1632h-596q30 0 51.5 -29.5t24.5 -76.5v-1420q-3 -47 -24.5 -76.5t-51.5 -29.5h201h465q146 0 252 35t168.5 101.5t91.5 154.5t28 203q-2 185 -108 302t-320 142q233 55 236 340q1 80 -25 143t-67.5 101.5t-98.5 64t-112 35t-115 10.5zM518 926q93 -2 168 -23
t122 -50.5t81.5 -72.5t51 -79.5t26.5 -82t11.5 -68.5t2.5 -51v-5q0 -78 -2 -96q-21 -230 -209 -322q-113 -56 -283 -56h-168q-32 32 -32 97v809h231zM506 1614q64 -1 114 -22t80.5 -53t50.5 -75.5t28 -85.5t9 -88q1 -41 -5.5 -82.5t-26.5 -90.5t-52 -85.5t-88.5 -61
t-130.5 -24.5h-198v572q0 60 32 96h187z" />
    <glyph glyph-name="c" unicode="c" horiz-adv-x="1411" 
d="M983 1440v-2q11 -24 -11.5 -43t-47.5 -21l299 27q-25 -3 -58 26q-120 110 -270.5 164t-312.5 39q-157 -14 -294 -92t-230 -196.5t-140 -275t-31 -321.5q15 -165 90 -310t188 -244.5t262 -150.5t306 -36q148 13 273 85.5t188 174.5h-31q-61 -98 -187.5 -164t-244.5 -77
q-151 -14 -289.5 80t-231 270t-112.5 391q-20 216 38 407.5t177 310t271 128.5q137 7 250.5 -43t148.5 -127z" />
    <glyph glyph-name="d" unicode="d" horiz-adv-x="1327" 
d="M440 0q142 0 259 30.5t197 80t140.5 120t95.5 142.5t56.5 156t28 152.5t6.5 139.5q0 64 -8 129.5t-30.5 147.5t-58 155t-96 144t-139.5 122t-194.5 82t-254.5 31h-442q30 0 52.5 -30t23.5 -76v-1420q-1 -46 -23.5 -76t-52.5 -30h440zM319 1614h19q104 -1 192.5 -22.5
t152 -54.5t114.5 -83t83 -99t56 -111.5t35.5 -111.5t18 -108t7.5 -91.5t0.5 -71.5t-0.5 -40q1 -32 0.5 -65.5t-11.5 -118.5t-33.5 -156t-72 -159t-119 -150t-184 -105.5t-258.5 -46.5q-32 32 -32 97v1401q0 60 32 96z" />
    <glyph glyph-name="e" unicode="e" horiz-adv-x="1234" 
d="M1128 1632h-1128q30 0 51.5 -29.5t24.5 -76.5v-1420q-3 -47 -24.5 -76.5t-51.5 -29.5h1130v227q-1 -7 -3.5 -18.5t-23.5 -43t-56 -57.5t-108.5 -52t-172.5 -36h-447q-32 32 -32 95v702h231q47 -8 83.5 -22t54.5 -28t29.5 -27t14.5 -21l2 -8v114v117q-1 -3 -3 -8.5
t-13.5 -20.5t-29.5 -27.5t-54.5 -27t-83.5 -22.5h-231v680q0 63 35 98h442q72 -8 131.5 -23.5t96.5 -34t64.5 -39.5t41 -40.5t21.5 -35t9 -25.5l2 -9v225h-2z" />
    <glyph glyph-name="f" unicode="f" horiz-adv-x="1234" 
d="M0 1632q31 0 53 -29.5t23 -76.5v-1420q-1 -47 -23 -76.5t-53 -29.5h365q-31 0 -53.5 32.5t-22.5 82.5v702h231q47 -8 83.5 -22t54.5 -28t29.5 -27t14.5 -21l3 -8v114v117q-1 -3 -3 -8.5t-14 -20.5t-30 -27.5t-54.5 -27t-83.5 -22.5h-231v680q0 65 33 98h442
q72 -8 131.5 -23.5t96.5 -34t64.5 -39.5t41 -40.5t21.5 -35t9 -25.5l2 -9v225h-1130z" />
    <glyph glyph-name="g" unicode="g" horiz-adv-x="1527" 
d="M1313 195q-32 0 -54 32.5t-22 83.5v394q0 51 22 82.5t54 31.5h-363q30 0 51.5 -29.5t24.5 -76.5v-518q-5 -75 -65 -107q-118 -56 -222 -65q-152 -14 -290.5 80t-230.5 270t-112 391q-20 216 38 407.5t177 310t271 128.5q136 7 249 -43t148 -127q8 -24 -13.5 -42
t-45.5 -20l299 27q-33 -3 -64 31q-29 40 -80 77.5t-122 68.5t-169 44.5t-204 3.5q-157 -14 -294 -92t-230 -196.5t-140 -275t-32 -321.5q16 -165 91 -310t188.5 -244t262 -150t305.5 -37q82 8 171 37.5t152.5 60.5t133 59.5t115.5 33.5z" />
    <glyph glyph-name="h" unicode="h" horiz-adv-x="1388" 
d="M362 0q-31 0 -53 33t-22 84v657q0 12 14 22t37 11h-2h610q22 -1 35.5 -10t13.5 -21v-670q-1 -47 -22.5 -76.5t-52.5 -29.5h364q-31 0 -53.5 32.5t-22.5 82.5v1401q0 51 22 83.5t54 32.5h-364q31 0 52.5 -29.5t22.5 -76.5v-670q0 -12 -12 -21t-31 -10h-620q-20 2 -32.5 11
t-12.5 22v660q0 50 22 82t53 32h-362q30 0 51.5 -29.5t24.5 -76.5v-1420q-3 -47 -24.5 -76.5t-51.5 -29.5h362z" />
    <glyph glyph-name="i" unicode="i" horiz-adv-x="466" 
d="M0 1632q30 0 51.5 -29.5t24.5 -76.5v-1420q-3 -47 -24.5 -76.5t-51.5 -29.5h362q-31 0 -53 32.5t-22 82.5v1401q0 51 21.5 83.5t53.5 32.5h-362z" />
    <glyph glyph-name="j" unicode="j" horiz-adv-x="688" 
d="M221 1632q30 0 51.5 -29.5t24.5 -76.5v-1112q0 -112 -4 -146q-30 -268 -293 -268q86 0 155.5 8t120.5 24.5t89 37.5t63.5 52t41.5 61.5t24 72.5t11 80t3 88v1092q0 51 22 83.5t54 32.5h-363z" />
    <glyph glyph-name="k" unicode="k" horiz-adv-x="1302" 
d="M1118 1632h-203q39 0 30 -42q-7 -31 -38 -72l-620 -852v850q0 51 22.5 83.5t55.5 32.5h-365q30 0 52.5 -30t23.5 -76v-1420q-1 -46 -23.5 -76t-52.5 -30h365q-33 0 -55.5 32.5t-22.5 82.5v483l106 147l443 -639q20 -31 26.5 -55.5t-1.5 -37.5t-27 -13h362
q-31 0 -75.5 32.5t-80.5 82.5l-538 778l461 633q38 47 81 76.5t74 29.5z" />
    <glyph glyph-name="l" unicode="l" horiz-adv-x="1234" 
d="M365 1632h-365q31 0 53 -29.5t25 -76.5v-1417q-3 -49 -25 -78t-53 -29l1130 -2v227q-1 -7 -3.5 -18.5t-23.5 -43t-56 -57.5t-108.5 -52t-172.5 -36h-442q-35 32 -35 97v1401q0 51 22 82.5t54 31.5z" />
    <glyph glyph-name="m" unicode="m" horiz-adv-x="1587" 
d="M381 1630h-379q32 0 54 -32t22 -82v-1401q0 -52 -22.5 -84.5t-55.5 -32.5h203q-31 0 -53 29.5t-23 76.5v1420v2v-2l504 -1526l74 2l489 1518v-1412q-1 -48 -23.5 -77t-52.5 -29h365q-33 0 -55.5 32t-22.5 83v1401q0 51 22.5 82.5t55.5 31.5h-379q33 0 44.5 -31.5
t-3.5 -82.5l-397 -1231l-406 1231q-17 52 -5.5 83t44.5 31z" />
    <glyph glyph-name="n" unicode="n" horiz-adv-x="1249" 
d="M367 1632h-363h4h-6q32 0 54 -32t22 -82l-2 -1401q0 -52 -21.5 -84.5t-54.5 -32.5h76h49h76q-30 0 -51.5 29.5t-24.5 76.5l2 1420v6q0 -2 4 -6l676 -1417q21 -49 13 -78t-38 -29l363 -2q-43 0 -57.5 27.5t-18.5 78.5l2 1420q1 47 23 76.5t53 29.5h-201q32 0 54 -32
t22 -82l-2 -1401v-13l-6 13l-668 1401q-24 52 -17.5 83t38.5 31z" />
    <glyph glyph-name="o" unicode="o" horiz-adv-x="1648" 
d="M778 1634q-210 0 -388.5 -109.5t-282 -297.5t-103.5 -410t103.5 -410t282 -297.5t388.5 -109.5q126 0 243.5 41t212.5 117t166.5 176.5t110.5 225t39 257.5t-39 257.5t-110.5 225t-166.5 176.5t-212.5 117t-243.5 41zM778 1612q114 0 217.5 -63t178.5 -170t119 -254.5
t44 -309.5q0 -129 -28 -250.5t-80 -219t-120.5 -171.5t-154 -114t-176.5 -40q-153 0 -282 106.5t-204 289.5t-75 399q0 217 75 400.5t204 290t282 106.5z" />
    <glyph glyph-name="p" unicode="p" horiz-adv-x="1308" 
d="M666 1632h-666q30 0 51.5 -29.5t24.5 -76.5v-1420q-3 -47 -24.5 -76.5t-51.5 -29.5h362q-31 0 -53 33t-22 84v493h377q137 1 242 39t169.5 105t97 153t33.5 189q1 115 -28 209t-91 169t-169 116.5t-252 41.5zM319 1614h168q74 0 137.5 -12t109.5 -32.5t85 -49t63 -61
t44 -67.5t29 -70.5t17 -68.5t8 -61.5t2 -51t-1 -35.5v-11q-4 -156 -58 -255q-112 -206 -415 -210h-221v889q0 60 32 96z" />
    <glyph glyph-name="q" unicode="q" horiz-adv-x="1650" 
d="M776 0q142 0 277 55q16 -8 28 -12q55 -28 104.5 -41.5t84.5 -13.5t65 6.5t49.5 18t33 22.5t18.5 19l6 9q-17 -20 -41.5 -24.5t-57.5 5.5t-66 25t-80 39q-14 7 -21 11q170 111 270 295.5t100 402.5q0 222 -103.5 410t-282 297.5t-388.5 109.5q-126 0 -243.5 -41
t-212.5 -117t-166.5 -176.5t-110.5 -225t-39 -257.5t39 -257.5t110.5 -225t166.5 -176.5t212.5 -117t243.5 -41h4zM1090 160q-51 13 -101 2.5t-93 -36t-73 -54t-41 -52.5h-10q-91 0 -176.5 40t-154 114t-120.5 171.5t-80 219t-28 250.5q0 162 44 309.5t119 254.5t178.5 170
t217.5 63q153 0 282 -106.5t204 -290t75 -400.5q0 -201 -65.5 -373.5t-177.5 -281.5zM983 78q-90 -52 -186 -58q78 78 186 58z" />
    <glyph glyph-name="r" unicode="r" horiz-adv-x="1310" 
d="M365 0q-32 0 -54 33t-22 84v493h317q49 -28 84 -94l195 -407q21 -49 13 -78t-38 -29h365q-33 0 -70 31.5t-61 83.5l-189 391q-6 9 -18 32t-17.5 30.5t-17.5 20.5t-26.5 19.5t-34.5 10.5q206 31 310.5 159.5t106.5 315.5q1 115 -28.5 209t-91.5 169t-169.5 116.5
t-252.5 41.5h-666q31 0 53 -29.5t23 -76.5v-1420q-1 -47 -23 -76.5t-53 -29.5h365zM487 1614q107 0 191.5 -24.5t134.5 -64.5t88 -90t51 -101.5t24 -99t6.5 -82.5t-1.5 -52v-6q0 -28 -1 -50.5t-10.5 -73t-25.5 -90t-51.5 -89t-83.5 -82t-126 -56t-175 -24.5h-219v889
q0 63 33 96h165z" />
    <glyph glyph-name="s" unicode="s" horiz-adv-x="1329" 
d="M274 326q0 95 70 106l-352 2q54 -15 84 -65q14 -44 40.5 -90t74 -96.5t106.5 -89.5t145 -64.5t183 -26.5q291 -1 443.5 108t158.5 316q3 95 -24.5 170t-76 125t-112.5 89t-136.5 68t-146 56t-142 58.5t-124 69.5t-93 95.5t-46.5 130.5q-9 66 5.5 124t51.5 104.5t105.5 73
t160.5 24.5q76 -2 137.5 -47t83.5 -131q10 -48 0 -70q-16 -33 -71 -35l358 -2q-27 6 -53 27.5t-39 50.5q-49 111 -165 170.5t-298 56.5q-97 -1 -185 -31.5t-151 -80.5t-104.5 -113.5t-52.5 -130.5q-16 -98 4 -176.5t67 -130.5t112.5 -93.5t141 -72.5t152 -59.5t147 -62
t124 -74t84.5 -101t28 -137.5q-2 -67 -26 -129t-67.5 -112.5t-113 -79.5t-154.5 -27t-153 34t-106 79t-57.5 96.5t-17.5 93.5z" />
    <glyph glyph-name="t" unicode="t" horiz-adv-x="1288" 
d="M0 1632v-225q0 4 1.5 11.5t10.5 28t23 39.5t42.5 42.5t65.5 41t95 30t129 14.5h86q29 -29 32 -88v-1420q-1 -46 -23 -76t-52 -30h364q-33 0 -55.5 32.5t-22.5 82.5v1401q0 63 35 98h86q71 -2 129 -14t95 -30.5t65.5 -40.5t42.5 -43.5t22.5 -39t10.5 -28.5l2 -11v225
h-1184z" />
    <glyph glyph-name="u" unicode="u" horiz-adv-x="1390" 
d="M76 494q0 -151 77 -265t204.5 -171.5t285.5 -57.5q234 0 393.5 123.5t171.5 339.5v1053q0 51 22.5 83.5t55.5 32.5h-364q30 0 51 -29.5t24 -76.5v-1223q0 -95 -48.5 -160.5t-126.5 -95t-179 -29.5q-157 0 -255.5 72t-98.5 213v1215q0 50 22 82t54 32h-365q31 0 53 -29.5
t23 -76.5v-1032z" />
    <glyph glyph-name="v" unicode="v" horiz-adv-x="1488" 
d="M856 4q-22 8 -28.5 38t6.5 73l438 1401q15 51 47 83.5t65 32.5h-200q30 0 42 -29.5t-1 -76.5l-443 -1420q-1 -3 -4 -9t-4 -9q-1 3 -4 9t-4 9l-444 1420q-12 47 0.5 76.5t42.5 29.5h-365q33 0 65.5 -32.5t47.5 -83.5l438 -1401q16 -51 4.5 -83t-43.5 -32h365q-9 0 -21 4z
" />
    <glyph glyph-name="w" unicode="w" horiz-adv-x="2160" 
d="M0 1632q32 0 64 -32.5t49 -83.5l438 -1401q16 -51 4 -83t-45 -32h364q-4 0 -20 4q-22 8 -28.5 38t5.5 73l197 626l197 -626q16 -51 4 -83t-45 -32h364q-4 0 -20 4q-22 8 -28.5 38t5.5 73l439 1401q17 52 49 84t63 32h-201q31 0 43 -29.5t0 -76.5l-444 -1420
q-4 -12 -8 -18l-6 18l-305 973l137 437q15 51 46.5 83.5t63.5 32.5h-200q31 0 43 -29.5t0 -76.5l-115 -367l-115 367q-12 47 0 76.5t43 29.5h-364q31 0 63 -32t49 -84l218 -697l-224 -713l-6 -18q-4 6 -8 18l-444 1420q-12 47 0 76.5t43 29.5h-365z" />
    <glyph glyph-name="x" unicode="x" horiz-adv-x="1300" 
d="M1085 1632h-202q21 0 30 -14t4 -40.5t-24 -59.5l-348 -594l-338 592q-30 52 -26.5 84t36.5 32h-364q30 0 68.5 -29.5t68.5 -76.5l446 -785l-364 -624q-30 -52 -71.5 -84.5t-74.5 -32.5h203q-31 0 -35.5 29.5t21.5 76.5l346 592l338 -592q16 -31 19.5 -55.5t-6.5 -37.5
t-30 -13h365q-31 0 -71.5 32.5t-69.5 82.5l-439 766l379 645q31 47 69.5 76.5t69.5 29.5z" />
    <glyph glyph-name="y" unicode="y" horiz-adv-x="1581" 
d="M625 668v-562q-1 -47 -23 -76.5t-53 -29.5h364q-31 0 -53 32.5t-22 82.5v555l499 856q30 46 70 76t70 30h-201q21 0 29.5 -14t3.5 -40.5t-25 -59.5l-471 -807l-461 805q-29 52 -25 84t35 32h-362q30 0 68 -29.5t67 -76.5z" />
    <glyph glyph-name="z" unicode="z" horiz-adv-x="1157" 
d="M18 1632v-225q0 4 1.5 11.5t10.5 28t22.5 39.5t41.5 42.5t65 41t95 30t129 14.5h371q17 -31 -6 -88l-625 -1420q-23 -46 -58 -76t-65 -30h1051v2v225q-1 -8 -4.5 -21.5t-25.5 -48.5t-57.5 -62t-109 -50t-170.5 -25h-356q-18 32 10 95l618 1401q23 51 59 83.5t68 32.5
h-1065z" />
    <glyph glyph-name="braceleft" unicode="{" horiz-adv-x="763" 
d="M96 915l-96 -96l96 -96q11 -410 137 -560q74 -90 218 -119q48 -10 153 -21l92 -11v27q-30 7 -88 17q-54 9 -79.5 15t-68 26t-62.5 49.5t-47.5 85t-39.5 133t-21 193t-9 265.5q0 207 18.5 349t40.5 217.5t76 120.5t87.5 55.5t112.5 24.5q52 10 80 16v24q-28 -4 -83 -10
q-80 -9 -119 -15t-103 -25t-96.5 -46.5t-75.5 -78.5t-64 -122t-38 -176.5t-21 -241.5z" />
    <glyph glyph-name="bar" unicode="|" horiz-adv-x="337" 
d="M4 1630q31 0 53 -29.5t25 -76.5v-1418q-3 -49 -25 -77.5t-53 -28.5h262q-32 0 -54 32t-22 83v1401q0 51 22 82.5t54 31.5h-262z" />
    <glyph glyph-name="braceright" unicode="}" horiz-adv-x="753" 
d="M600 915q-4 136 -21.5 241.5t-38 176.5t-64 122t-75 78.5t-97 46.5t-103 25t-118.5 15q-55 6 -83 10v-24q28 -6 80 -16q55 -9 81.5 -15.5t69.5 -27t64 -50t49 -85t40.5 -133t22 -192.5t9.5 -264q0 -121 -5.5 -219.5t-14.5 -171t-25.5 -129t-32.5 -94t-42 -64.5t-47 -41.5
t-55.5 -25t-59.5 -14.5t-65.5 -11t-68.5 -14v-27q31 4 92 11q55 6 82 9.5t75.5 12.5t73 20t63 30.5t59 46t48.5 63.5t43 87t30.5 112.5t23 142.5t10.5 176l96 96z" />
    <glyph glyph-name="asciitilde" unicode="~" horiz-adv-x="464" 
d="M393 922q0 -26 -28 -33q-42 -12 -87.5 -6t-77.5 17.5t-76 13t-83 -18.5q-11 -6 -20.5 -3.5t-12.5 11.5l41 -129q0 21 31 33q48 14 82 10t54 -14.5t64.5 -13.5t114.5 12q22 5 35 -29z" />
    <glyph glyph-name="exclamdown" unicode="&#xa1;" horiz-adv-x="452" 
d="M0 0h362q-31 0 -53 32.5t-22 82.5l-62 1112q0 50 22 82t54 32h-231q30 0 51 -29.5t24 -76.5l-69 -1129q-3 -47 -24.5 -76.5t-51.5 -29.5zM186 1411q46 0 78.5 32.5t32.5 76.5q0 46 -32.5 78t-78.5 32q-44 0 -76 -32t-32 -78q0 -44 32 -76.5t76 -32.5z" />
    <glyph glyph-name="cent" unicode="&#xa2;" horiz-adv-x="1544" 
d="M539 1618q-195 -35 -347.5 -162t-229.5 -316t-58 -399q26 -277 204 -479t431 -252l-9 -119q-1 -47 -22.5 -76.5t-52.5 -29.5h364q-33 0 -54.5 32.5t-21.5 82.5l-6 98h13q148 15 272.5 87t187.5 175l-28 -2q-62 -97 -189 -163t-243 -77q-152 -14 -290.5 80.5t-230.5 270
t-112 391.5q-20 215 37.5 406.5t176.5 310t269 127.5q137 9 250.5 -41t148.5 -127q0 -2 2 -2q10 -25 -12.5 -44.5t-48.5 -21.5l299 27q-25 -2 -55 28q-195 179 -447 203l6 94q0 52 21.5 83.5t54.5 31.5h-364q31 0 52.5 -28.5t22.5 -77.5z" />
    <glyph glyph-name="sterling" unicode="&#xa3;" horiz-adv-x="1187" 
d="M459 1059h-199q-21 1 -33 16.5t-12 36.5v-252q0 22 13 37.5t34 15.5h197l-332 -796q-36 -61 -60.5 -88.5t-46.5 -28.5h1074l-25 227q0 -4 -0.5 -10t-7 -24.5t-17.5 -35.5t-37 -39.5t-60.5 -40.5t-92.5 -33.5t-129 -23.5h-379q-23 1 -25.5 26t15.5 60l332 807h188
q23 0 36 -15t13 -38v252q0 -21 -12.5 -36.5t-32.5 -16.5h-184l-273 481q-14 24 -15.5 43t5 26.5t15.5 6.5l323 2q63 -8 113.5 -23.5t81 -34t53 -39.5t32 -40.5t15 -35t6.5 -25.5v-9l23 225h-959q45 0 109 -114z" />
    <glyph glyph-name="currency" unicode="&#xa4;" horiz-adv-x="1030" 
d="M150 1118l-50 53l-75 -67l55 -62q-72 -106 -72 -223q0 -123 74 -227l-57 -64l75 -65q29 28 52 53q142 -123 342 -123q203 0 344 125l51 -55l76 65l-58 66q72 106 72 225q0 123 -70 221l56 64l-76 67q-27 -28 -47 -53q-147 127 -348 127q-204 0 -344 -127zM494 403
q-146 0 -249.5 122t-103.5 294t103.5 294t249.5 122t249 -122t103 -294t-103 -294t-249 -122z" />
    <glyph glyph-name="yen" unicode="&#xa5;" horiz-adv-x="1562" 
d="M1036 221q23 0 37 -14q12 -15 12 -39v479q0 -20 -12 -35t-33 -18h-206v76l501 856q32 53 70 78q42 28 70 28h-203q68 -6 10 -114l-473 -807l-459 805q-55 110 10 116h-364q29 -3 70 -30q34 -24 67 -76l490 -858v-74h-183q-20 3 -32 18q-13 16 -13 35v-479q0 24 15 39
q11 14 34 14h179v-115q-9 -100 -76 -106h364q-33 0 -53 33q-21 30 -24 82v106h202zM440 367q-20 3 -32 18q-11 11 -11 23q0 13 13 26q12 15 34 15h179v-82h-183zM1036 449q22 0 37 -15q10 -13 10 -26t-10 -23q-12 -15 -33 -18h-206v82h202z" />
    <glyph glyph-name="brokenbar" unicode="&#xa6;" horiz-adv-x="249" 
d="M53 1028q10 -4 11 -12.5t-3 -15.5l-4 -7q5 3 13.5 8t22.5 20t16 30v112h-101v-94q1 -21 12 -30t33 -11zM53 518q10 -4 11 -12.5t-3 -15.5l-4 -7q48 25 52 56v112l-101 2v-94q1 -21 12 -30t33 -11z" />
    <glyph glyph-name="section" unicode="&#xa7;" horiz-adv-x="821" 
d="M289 1055h-27q-123 -1 -213 -73t-104 -167q-10 -66 3 -118t43 -87t72 -62.5t90.5 -48t98 -40t94.5 -42t79.5 -49.5t54.5 -67.5t18 -91.5q-3 -96 -64 -166.5t-168 -67.5q-55 1 -99 22.5t-68.5 53t-37 65t-10.5 62.5q0 66 45 72l-227 2q36 -12 53 -45q12 -38 37.5 -77
t67 -78.5t107 -64.5t142.5 -26q187 -1 286 73t104 212q1 44 -8 81.5t-22.5 65t-38.5 53.5t-46.5 42.5t-57 34.5t-60 28.5t-64.5 26.5q144 17 219 88t78 190q2 81 -27 140.5t-77.5 95t-108 62t-121 50.5t-114 51t-89.5 72.5t-45 106.5q-6 61 12 109.5t69 80t130 29.5
q48 -2 88 -32.5t53 -88.5l1 -6l1.5 -7.5t1 -9t-0.5 -11t-2.5 -10.5t-5.5 -10t-9 -8t-13 -6t-18 -2h230q-17 5 -34 18.5t-24 32.5h-2q-67 157 -299 154q-123 -1 -213 -73.5t-104 -166.5q-12 -78 4.5 -135t69.5 -98.5t91.5 -61t118.5 -52.5q40 -17 60 -25zM328 1038
q84 -39 129 -89t41 -128q-2 -80 -46 -144.5t-122 -82.5q-54 21 -88.5 38t-72 44t-58.5 63.5t-27 83.5q-6 60 12 108.5t69 80.5t130 30q5 -1 16.5 -2t16.5 -2z" />
    <glyph glyph-name="dieresis" unicode="&#xa8;" horiz-adv-x="409" 
d="M82 1913q-32 0 -55 -23t-23 -55q0 -31 23 -53.5t55 -22.5t55 22.5t23 53.5q0 32 -23 55t-55 23zM332 1913q-32 0 -54 -23t-22 -55q0 -31 22 -53.5t54 -22.5t55 22.5t23 53.5q0 32 -23 55t-55 23z" />
    <glyph glyph-name="copyright" unicode="&#xa9;" horiz-adv-x="1638" 
d="M786 1604q158 0 301.5 -65t247 -174.5t165 -261t61.5 -317.5t-61.5 -317.5t-165 -261t-247 -174t-301.5 -64.5q-157 0 -300 64.5t-247 174t-165.5 261t-61.5 317.5t61.5 317.5t165.5 261t247 174.5t300 65zM786 1581q-115 0 -233 -63.5t-211.5 -169t-153 -255.5
t-59.5 -309t59.5 -308t153 -254t211.5 -168.5t233 -63.5t235.5 63.5t217.5 168.5t159 254.5t62 307.5q0 159 -62 309t-159 255.5t-217.5 169t-235.5 63.5zM1104 1159q18 -18 33 -16l-176 -17q15 2 28 13.5t6 25.5v2q-21 46 -88.5 75.5t-148.5 23.5q-89 -5 -160 -75
t-105 -183.5t-22 -241.5q19 -195 128.5 -323.5t246.5 -116.5q70 6 145 45.5t111 97.5h18q-38 -61 -111.5 -104t-160.5 -50q-125 -12 -236.5 42.5t-183 160t-84.5 236.5q-12 131 39 247.5t150.5 191.5t224.5 87q97 9 186.5 -23t159.5 -98z" />
    <glyph glyph-name="guillemotleft" unicode="&#xab;" horiz-adv-x="749" 
d="M-4 772l371 -135q12 -4 20 -16.5t8 -24.5v156q0 -14 -8.5 -20.5t-21.5 -2.5l-246 88l246 88q13 4 21.5 -2t8.5 -18v153q0 -12 -8 -24.5t-20 -16.5l-371 -133q-9 -3 -9 -46.5t9 -45.5zM301 772l371 -135q12 -4 20 -16.5t8 -24.5v156q0 -14 -8.5 -20.5t-21.5 -2.5l-246 88
l246 88q13 4 21.5 -2t8.5 -18v153q0 -12 -8 -24.5t-20 -16.5l-371 -133q-9 -3 -9 -46.5t9 -45.5z" />
    <glyph glyph-name="logicalnot" unicode="&#xac;" horiz-adv-x="620" 
d="M49 657q-17 -1 -27 -17t-10 -38v170q0 -24 11.5 -39.5t29.5 -15.5l379 45q17 0 28 15.5t11 39.5v-358q0 33 -11 89.5t-26 57.5z" />
    <glyph glyph-name="registered" unicode="&#xae;" horiz-adv-x="1634" 
d="M778 1604q157 0 300 -65t246.5 -174.5t164.5 -261t61 -317.5q0 -133 -39 -257.5t-110.5 -225t-166.5 -176.5t-212.5 -117t-243.5 -41q-210 0 -388.5 109.5t-282 297.5t-103.5 410q0 166 61 317.5t165 261t247 174.5t301 65zM778 1581q-116 0 -234 -63.5t-212 -169
t-153.5 -255.5t-59.5 -309t59.5 -308t153.5 -254t212 -168.5t234 -63.5q115 0 235 63.5t217 168.5t158.5 254.5t61.5 307.5q0 159 -61.5 309t-158.5 255.5t-217 169t-235 63.5zM670 313h-215q18 0 31 17.5t14 46.5v840q-1 29 -14 46t-31 17h395q86 0 149.5 -24.5t100 -69
t54 -100t17.5 -123.5q-2 -110 -63.5 -187t-183.5 -96q10 -2 18 -5.5t13 -7t10.5 -11t8 -11.5t8.5 -15t9 -16l111 -233q15 -30 37 -49t41 -19h-215q18 0 22 17.5t-8 46.5l-115 241q-20 39 -51 56h-188v-293q0 -30 13 -49t32 -19zM743 1270h-98q-20 -20 -20 -58v-526h131
q58 0 104 14t74.5 33t49.5 48.5t30.5 52.5t15 53.5t6 43.5t0.5 30q0 70 -7 105q-34 163 -200 196q-40 8 -86 8z" />
    <glyph glyph-name="plusminus" unicode="&#xb1;" horiz-adv-x="620" 
d="M174 862h-141q-12 0 -20.5 9.5t-8.5 23.5v-156q0 14 9 23.5t22 9.5h139v-141q-1 -12 -11 -19.5t-22 -7.5h156q-14 0 -23.5 8.5t-9.5 20.5v139h137q13 0 22 -9.5t9 -23.5v156q0 -14 -8.5 -23.5t-20.5 -9.5h-139v137q0 13 9.5 22t23.5 9h-156q12 0 22 -8t11 -21v-139z
M432 594q0 -14 -8.5 -23.5t-20.5 -9.5h-370q-12 0 -20.5 9.5t-8.5 23.5v-156q0 13 9 23t22 10h366q13 0 22 -10t9 -23v156z" />
    <glyph glyph-name="twosuperior" unicode="&#xb2;" horiz-adv-x="370" 
d="M20 1505q-5 -8 -16 -8l80 -6q-5 0 -9 4.5t-3 11.5v2q7 38 39 60.5t71 19.5q62 -3 91 -60t10 -136q-12 -52 -40 -95t-58 -67.5t-63 -42t-54 -24t-31 -7.5q-12 -6 -19 -6h308v61q0 -2 -1 -5t-6.5 -12t-15 -16t-29.5 -14t-47 -10l-164 2q32 7 69 22.5t81.5 42.5t79.5 70.5
t47 96.5q20 83 -24.5 140.5t-131.5 65.5q-46 5 -96 -21t-68 -69z" />
    <glyph glyph-name="threesuperior" unicode="&#xb3;" horiz-adv-x="391" 
d="M61 1546q-4 -4 -8 -4l51 -10h2h-2q-6 3 -6 10q6 22 29.5 36.5t54.5 14.5q38 0 62 -20.5t18 -56.5q-2 -17 -10 -29t-16 -18.5t-22 -10.5t-20 -4.5l-18 -1.5h-10v-4q53 -5 78 -20q49 -33 53 -109q3 -77 -29.5 -119t-93.5 -41q-41 0 -74 22t-34 58v2q0 16 16 16l-82 -6
q11 0 16 -8q10 -43 56.5 -67.5t103.5 -22.5q82 2 132 47t46 125q-5 101 -116 123q58 8 63 59q7 44 -28.5 67t-90.5 23q-40 0 -75 -13t-46 -38z" />
    <glyph glyph-name="acute" unicode="&#xb4;" horiz-adv-x="210" 
d="M209 1909h-111q6 0 8.5 -7.5t-0.5 -13.5l-69 -141q-7 -18 -33 -21h123q-17 3 -10 21l67 139q10 20 25 23z" />
    <glyph glyph-name="mu" unicode="&#xb5;" horiz-adv-x="507" 
d="M250 -2q-11 0 -17 4.5t-9 18t-3.5 22t-1.5 33.5l-31 495q31 -73 121 -73q44 1 75 22.5t48 61t26 94t9.5 120.5t-0.5 142v41h-14v-41q0 -317 -144 -320q-110 0 -133 144l-8 139q1 35 17 57.5t38 22.5h-170q24 0 40 -24t16 -62l-46 -813q0 -37 -16 -60.5t-39 -23.5h242z
" />
    <glyph glyph-name="paragraph" unicode="&#xb6;" horiz-adv-x="839" 
d="M836 981h-244h-115h-198q-122 -3 -206.5 -73.5t-84.5 -168.5t84.5 -168t206.5 -73h49h8l24 -422q-1 -35 -17 -56.5t-38 -21.5h170q-24 0 -39.5 23t-15.5 61l45 813q0 42 74 72q35 -10 60.5 -28t25.5 -38l51 -825q-1 -35 -17 -56.5t-38 -21.5h170q-24 0 -40 23.5t-16 60.5
l45 813q0 37 16 60.5t40 25.5zM334 504h-55q-88 5 -148.5 72.5t-60.5 162.5q0 94 60 163t146 73q16 0 24.5 -22.5t8.5 -51.5z" />
    <glyph glyph-name="cedilla" unicode="&#xb8;" horiz-adv-x="348" 
d="M133 59v-182h70q34 -2 57 -25t23 -57t-24 -58t-58 -24q-29 0 -51.5 19t-28.5 47q0 13 10 16h-102q4 -1 10 -20q8 -60 54.5 -102t107.5 -42q67 0 115.5 48.5t48.5 115.5t-47 114.5t-113 49.5v100h-72z" />
    <glyph glyph-name="onesuperior" unicode="&#xb9;" horiz-adv-x="124" 
d="M4 1536q19 0 23 -29v-327q-3 -29 -23 -29h100q-8 0 -14 9t-6 22v415z" />
    <glyph glyph-name="ordmasculine" unicode="&#xba;" horiz-adv-x="417" 
d="M205 1153q77 0 130.5 64.5t53.5 156.5t-54 157.5t-130 65.5q-77 0 -131 -65.5t-54 -157.5t54 -156.5t131 -64.5zM205 1159q-56 0 -94.5 63t-38.5 154q0 90 39 153.5t94 63.5t94 -63.5t39 -153.5q0 -91 -38.5 -154t-94.5 -63z" />
    <glyph glyph-name="guillemotright" unicode="&#xbb;" horiz-adv-x="751" 
d="M698 772q9 2 9 45.5t-9 46.5l-370 133q-12 4 -19.5 16.5t-7.5 24.5v-153q0 12 8.5 18t20.5 2l245 -88l-245 -88q-12 -4 -20.5 2.5t-8.5 20.5v-156q0 12 7.5 24.5t19.5 16.5zM393 772q9 2 9 45.5t-9 46.5l-370 133q-12 4 -19.5 16.5t-7.5 24.5v-153q0 12 8.5 18t20.5 2
l245 -88l-245 -88q-12 -4 -20.5 2.5t-8.5 20.5v-156q0 12 7.5 24.5t19.5 16.5z" />
    <glyph glyph-name="onequarter" unicode="&#xbc;" horiz-adv-x="673" 
d="M307 1272q15 0 22 -16t1 -42l-234 -755q-9 -26 -25.5 -42t-33.5 -16h194q-17 0 -23 17t3 45l229 747q9 27 26.5 44.5t35.5 17.5h-195zM8 1202q7 0 13.5 -8t7.5 -20v-328q-4 -29 -21 -29h98q-8 0 -14 9.5t-6 23.5v416zM539 848h-66q18 0 8 -29l-123 -276q-14 -29 -32 -29
h233v-84q0 -12 -6 -20.5t-14 -8.5h100q-9 0 -15 9t-6 22v385q0 13 6 22t15 9h-100zM553 840q6 -6 6 -21v-299h-143q-6 6 2 25l121 272q6 15 14 23z" />
    <glyph glyph-name="onehalf" unicode="&#xbd;" horiz-adv-x="729" 
d="M303 1272q16 0 23 -16.5t0 -41.5l-234 -755q-9 -26 -25.5 -42t-31.5 -16h194q-18 0 -24.5 17t2.5 45l231 747q7 27 24.5 44.5t35.5 17.5h-195zM4 1202q8 0 14.5 -8t6.5 -20v-328q0 -12 -6.5 -20.5t-14.5 -8.5h100q-9 0 -15.5 9t-6.5 24v416zM369 754q-6 -10 -17 -6l80 -9
q-5 0 -9 5.5t-3 13.5q7 39 38.5 61.5t71.5 20.5q62 -4 91 -62t10 -135q-15 -64 -52 -114t-79 -74.5t-71 -36t-44 -12.5q-14 -7 -18 -7h307h2v64q0 -2 -1 -5t-7 -12t-15.5 -16t-30 -14t-47.5 -10h-163q32 7 69 23t81 42.5t79 70t47 95.5q20 83 -24.5 141.5t-131.5 67.5
q-46 3 -95.5 -23t-67.5 -69z" />
    <glyph glyph-name="threequarters" unicode="&#xbe;" horiz-adv-x="839" 
d="M467 1272q17 0 24 -16t1 -42l-236 -755q-7 -25 -24 -41.5t-33 -16.5h194q-17 0 -23 17t1 45l231 747q9 28 26 45t34 17h-195zM700 848h-65q18 0 8 -29l-123 -276q-6 -12 -15.5 -20.5t-17.5 -8.5h234v-84q0 -12 -6.5 -20.5t-14.5 -8.5h101q-9 0 -16 9t-7 22v385q0 13 7 22
t16 9h-101zM715 840q6 -6 6 -21v-299h-143q-8 8 2 25l118 272q4 10 17 23zM55 1210q-6 -6 -10 -4l51 -12h2h-2q-6 3 -6 10q6 22 29.5 36.5t54.5 14.5q38 0 62 -19.5t20 -57.5q-8 -62 -88 -62h-10v-6q54 -4 80 -21q47 -31 51 -106q4 -78 -27.5 -121t-93.5 -41q-42 0 -76 22.5
t-35 59.5q0 7 6 12t11 5l-82 -7q11 0 16 -8q10 -43 56.5 -67.5t103.5 -22.5q82 2 133 47t47 125q-4 56 -38 85t-81 38q59 8 66 61q6 43 -30 66t-91 25q-39 0 -74 -14t-45 -38z" />
    </font>
</defs>
</svg>
