<?xml version="1.0" encoding="utf-8"?>
<!-- Generator: Adobe Illustrator 27.5.0, SVG Export Plug-In . SVG Version: 6.00 Build 0)  -->
<svg version="1.1" xmlns="http://www.w3.org/2000/svg" xmlns:xlink="http://www.w3.org/1999/xlink" x="0px" y="0px"
	 viewBox="0 0 13.7 13.7" style="enable-background:new 0 0 13.7 13.7;" xml:space="preserve">
<g id="Layer_1">
	<g>
		<defs>
			<path id="SVGID_1_" d="M7.4,0.6l0.8,0.6c0.2,0.1,0.4,0.2,0.6,0.2l1-0.1c0.4,0,0.8,0.2,1,0.6l0.3,0.9c0.1,0.2,0.2,0.4,0.4,0.5
				l0.9,0.5c0.4,0.2,0.6,0.6,0.5,1l-0.2,1c-0.1,0.2,0,0.5,0.1,0.7l0.5,0.9c0.2,0.4,0.1,0.8-0.2,1.1l-0.7,0.7
				c-0.2,0.2-0.3,0.4-0.3,0.6l-0.1,1c0,0.4-0.3,0.8-0.7,0.9l-1,0.2c-0.2,0-0.4,0.2-0.6,0.4L9.2,13c-0.2,0.3-0.7,0.5-1.1,0.3
				l-0.9-0.4c-0.2-0.1-0.5-0.1-0.7,0l-0.9,0.4c-0.4,0.2-0.8,0-1.1-0.3l-0.6-0.8c-0.1-0.2-0.3-0.3-0.6-0.4l-1-0.2
				c-0.4-0.1-0.7-0.4-0.7-0.9l-0.1-1c0-0.2-0.1-0.5-0.3-0.6L0.6,8.4C0.3,8.2,0.3,7.7,0.5,7.3l0.5-0.9C1.1,6.3,1.1,6,1,5.8l-0.2-1
				C0.7,4.4,0.9,4,1.3,3.8l0.9-0.5C2.4,3.2,2.5,3,2.6,2.8l0.3-0.9c0.1-0.4,0.5-0.7,1-0.6l1,0.1c0.2,0,0.5,0,0.6-0.2l0.8-0.6
				C6.6,0.3,7.1,0.3,7.4,0.6z"/>
		</defs>
		<use xlink:href="#SVGID_1_"  style="overflow:visible;fill:#1D1D1B;"/>
		<clipPath id="SVGID_00000036210524293699759770000007015661493646231211_">
			<use xlink:href="#SVGID_1_"  style="overflow:visible;"/>
		</clipPath>
	</g>
</g>
<g id="Calque_1">
</g>
<g id="Layer_5">
	<path style="fill:#FFFFFF;" d="M3.3,4.1L3.3,4.1C3.3,4,3.5,3.9,3.6,4L5,4.4c0,0,0.1,0,0.1,0c0,0,0.1,0.1,0.1,0.1v0.6l4.7,0.7l0.1,0
		V7c0,0.5-0.3,0.8-0.8,0.9H5.6c-0.1,0-0.3-0.1-0.4-0.2v0.2v0.7h0.6h0.3h2.6H9C9.3,8.7,9.6,9,9.6,9.4c0,0.4-0.3,0.7-0.8,0.7
		S8,9.8,8,9.4c0-0.1,0-0.2,0.1-0.4H6.6c0.1,0.1,0.1,0.2,0.1,0.4c0,0.4-0.3,0.7-0.8,0.7c-0.4,0-0.8-0.3-0.8-0.7c0-0.1,0-0.2,0.1-0.4
		H5h0h0C4.8,9,4.8,8.9,4.8,8.8v0V7V5.6V5.5V4.7L3.5,4.4C3.3,4.3,3.3,4.2,3.3,4.1z M8.8,9.7c0.2,0,0.4-0.2,0.4-0.4
		c0-0.2-0.1-0.3-0.3-0.4c0,0,0,0,0,0H8.7c-0.2,0-0.3,0.2-0.3,0.4C8.4,9.6,8.6,9.7,8.8,9.7z M5.9,9.7c0.2,0,0.4-0.2,0.4-0.4
		C6.3,9.2,6.2,9.1,6,9H5.8c-0.2,0-0.3,0.2-0.3,0.4C5.5,9.6,5.7,9.7,5.9,9.7z"/>
</g>
</svg>
