<?xml version="1.0" encoding="utf-8"?>
<!-- Generator: Adobe Illustrator 27.5.0, SVG Export Plug-In . SVG Version: 6.00 Build 0)  -->
<svg version="1.1" xmlns="http://www.w3.org/2000/svg" xmlns:xlink="http://www.w3.org/1999/xlink" x="0px" y="0px"
	 viewBox="0 0 60 60" style="enable-background:new 0 0 60 60;" xml:space="preserve">
<g id="Layer_1">
	<g>
		<defs>
			<path id="SVGID_1_" d="M32.4,3.4l3.3,2.5c0.8,0.6,1.7,0.9,2.7,0.8l4.1-0.3c1.8-0.1,3.4,0.9,4,2.6l1.4,3.9c0.3,0.9,1,1.7,1.9,2.2
				l3.7,2c1.6,0.8,2.4,2.6,2,4.4l-0.9,4.1c-0.2,1-0.1,2,0.4,2.8l2,3.6c0.9,1.6,0.6,3.5-0.7,4.8l-3,2.9c-0.7,0.7-1.1,1.6-1.2,2.6
				l-0.2,4.2c-0.1,1.8-1.4,3.3-3.1,3.6l-4.1,0.8c-1,0.2-1.8,0.7-2.4,1.5l-2.4,3.4c-1,1.4-2.9,2-4.6,1.4l-3.9-1.5
				c-0.9-0.4-1.9-0.4-2.8,0l-3.9,1.5c-1.7,0.6-3.5,0.1-4.6-1.4l-2.4-3.4c-0.6-0.8-1.4-1.3-2.4-1.5L11.2,50c-1.7-0.4-3-1.9-3.1-3.6
				l-0.2-4.2c-0.1-1-0.5-1.9-1.2-2.6l-3-2.9c-1.3-1.3-1.6-3.2-0.7-4.8l2-3.6c0.5-0.9,0.6-1.9,0.4-2.8l-0.9-4.1
				c-0.4-1.7,0.4-3.5,2-4.4l3.7-2c0.9-0.5,1.5-1.2,1.9-2.2L13.4,9c0.6-1.7,2.3-2.8,4-2.6l4.1,0.3c1,0.1,1.9-0.2,2.7-0.8l3.3-2.5
				C29,2.3,31,2.3,32.4,3.4z"/>
		</defs>
		<use xlink:href="#SVGID_1_"  style="overflow:visible;fill:#FFB6BA;"/>
		<clipPath id="SVGID_00000003806316747923834730000010016962525037671844_">
			<use xlink:href="#SVGID_1_"  style="overflow:visible;"/>
		</clipPath>
		<use xlink:href="#SVGID_1_"  style="overflow:visible;fill:none;stroke:#1D1D1B;stroke-width:0.3164;stroke-miterlimit:10;"/>
	</g>
</g>
<g id="Calque_1">
	<g style="enable-background:new    ;">
		<path d="M26.6,33.1h-0.9l-2.5-4l0,0v4h-0.9v-5.6h0.9l2.5,4l0,0v-4h0.9V33.1z"/>
		<path d="M30.9,30.6h-2.2v1.8h2.6v0.7h-3.5v-5.6h3.5v0.7h-2.5v1.6h2.2V30.6z"/>
		<path d="M36.4,31.6L36.4,31.6l0.8-4h1l-1.3,5.6h-0.8l-1.1-4h0l-1.1,4H33l-1.3-5.6h1l0.8,4h0l1.1-4h0.8L36.4,31.6z"/>
	</g>
</g>
</svg>
