<?xml version="1.0" encoding="utf-8"?>
<!-- Generator: Adobe Illustrator 27.4.0, SVG Export Plug-In . SVG Version: 6.00 Build 0)  -->
<svg version="1.1" id="Calque_1" xmlns="http://www.w3.org/2000/svg" xmlns:xlink="http://www.w3.org/1999/xlink" x="0px" y="0px"
	 viewBox="0 0 60 60" style="enable-background:new 0 0 60 60;" xml:space="preserve">
<style type="text/css">
	.st0{fill:#FFB6BA;}
	.st1{font-family:'Roboto-Medium';}
	.st2{font-size:7.3391px;}
</style>
<g>
	<g>
		<polygon class="st0" points="27.8,55 26.4,55.5 25.2,54.7 23.8,55 22.7,54 21.2,54.2 20.2,53.1 18.8,53.1 17.9,52 16.4,51.8 
			15.7,50.5 14.2,50.3 13.6,48.9 12.2,48.5 11.8,47.1 10.4,46.5 10.1,45 8.8,44.3 8.7,42.8 7.5,42 7.5,40.5 6.4,39.5 6.6,38.1 
			5.6,37 5.9,35.5 5,34.3 5.5,32.9 4.8,31.7 5.4,30.3 4.8,29 5.5,27.7 5.1,26.3 6,25.1 5.7,23.7 6.7,22.6 6.5,21.1 7.7,20.2 
			7.7,18.7 8.9,17.9 9.1,16.4 10.3,15.7 10.7,14.3 12,13.7 12.5,12.3 13.9,11.9 14.6,10.5 16,10.3 16.8,9 18.2,8.9 19.1,7.7 
			20.6,7.8 21.6,6.7 23.1,6.9 24.2,6 25.6,6.3 26.8,5.5 28.2,6 29.5,5.3 30.8,5.9 32.2,5.4 33.4,6.2 34.9,5.7 36,6.7 37.5,6.4 
			38.5,7.4 40,7.3 40.9,8.5 42.4,8.5 43.2,9.8 44.7,10 45.3,11.3 46.8,11.7 47.3,13 48.7,13.5 49.1,15 50.4,15.6 50.6,17.1 
			51.8,17.9 51.9,19.3 53.1,20.3 53,21.7 54,22.8 53.8,24.2 54.7,25.4 54.3,26.8 55.1,28 54.6,29.4 55.2,30.7 54.5,32 55.1,33.4 
			54.3,34.6 54.6,36 53.7,37.2 53.9,38.6 52.8,39.7 52.9,41.1 51.7,42 51.6,43.5 50.4,44.3 50.1,45.7 48.8,46.4 48.4,47.8 47,48.3 
			46.5,49.6 45,50 44.3,51.3 42.9,51.5 42,52.7 40.6,52.7 39.6,53.8 38.2,53.7 37.1,54.7 35.6,54.5 34.5,55.4 33.1,54.9 31.8,55.7 
			30.5,55.1 29.1,55.7 		"/>
		<path d="M29.5,5.7l1,0.5l0.3,0.2l0.3-0.1l1-0.4l0.9,0.6l0.3,0.2l0.3-0.1l1.1-0.3l0.9,0.7l0.3,0.2L36.3,7l1.1-0.2l0.8,0.8l0.3,0.2
			l0.3,0l1.1-0.1l0.7,0.8l0.2,0.3l0.4,0l1.1,0l0.6,0.9l0.2,0.3l0.3,0.1l1.1,0.2l0.5,1l0.2,0.3l0.3,0.1l1.1,0.3l0.4,1l0.1,0.3
			l0.3,0.1l1,0.4l0.3,1.1l0.1,0.3l0.3,0.2l1,0.5l0.2,1.1l0.1,0.3l0.3,0.2l0.9,0.6l0.1,1.1l0,0.3l0.3,0.2l0.9,0.7l-0.1,1.1l0,0.3
			l0.2,0.2l0.8,0.8L53.4,24l-0.1,0.3l0.2,0.3l0.7,0.9L54,26.5l-0.1,0.3l0.2,0.3l0.6,0.9l-0.4,1l-0.1,0.3l0.2,0.3l0.5,1l-0.5,1
			L54.1,32l0.1,0.3l0.4,1L54,34.3l-0.2,0.3l0.1,0.3l0.3,1.1l-0.7,0.8l-0.2,0.3l0.1,0.3l0.2,1.1l-0.8,0.8l-0.3,0.2l0,0.4l0,1.1
			l-0.9,0.7l-0.3,0.2l0,0.3l-0.1,1.1l-0.9,0.6L50,44L50,44.4l-0.2,1.1l-1,0.5l-0.3,0.2l-0.1,0.3l-0.3,1.1l-1,0.4L46.7,48l-0.1,0.3
			l-0.4,1l-1.1,0.3l-0.3,0.1L44.6,50l-0.5,1L43,51.1l-0.3,0l-0.2,0.3l-0.6,0.9l-1.1,0l-0.4,0l-0.2,0.3l-0.7,0.8l-1.1-0.1l-0.3,0
			l-0.3,0.2L37,54.3l-1.1-0.2L35.5,54l-0.3,0.2l-0.9,0.7l-1-0.3L33,54.5l-0.3,0.2l-0.9,0.6l-1-0.4l-0.3-0.1l-0.3,0.1l-1,0.5l-1-0.5
			l-0.3-0.2l-0.3,0.1l-1,0.4l-0.9-0.6l-0.3-0.2L25,54.3l-1.1,0.2l-0.8-0.7l-0.3-0.2l-0.3,0l-1.1,0.1L20.7,53l-0.2-0.3l-0.4,0l-1.1,0
			l-0.7-0.9l-0.2-0.3l-0.3,0l-1.1-0.1l-0.6-0.9l-0.2-0.3l-0.3-0.1l-1.1-0.2l-0.5-1l-0.1-0.3l-0.3-0.1l-1-0.3l-0.3-1l-0.1-0.3
			l-0.3-0.1l-1-0.4l-0.2-1.1l-0.1-0.3l-0.3-0.2l-1-0.5L9.1,43l0-0.3l-0.3-0.2l-0.9-0.6l0-1.1l0-0.4l-0.3-0.2l-0.8-0.7l0.1-1.1l0-0.3
			l-0.2-0.3L6,36.9l0.2-1.1l0.1-0.3l-0.2-0.3l-0.6-0.9l0.3-1l0.1-0.3l-0.2-0.3l-0.5-1l0.5-1l0.1-0.3L5.7,30l-0.4-1l0.6-0.9L6,27.8
			l-0.1-0.3l-0.3-1l0.7-0.9l0.2-0.3l-0.1-0.3l-0.2-1.1L6.9,23l0.2-0.3l0-0.3L7,21.3l0.8-0.7L8,20.4l0-0.4l0-1.1L9,18.3l0.3-0.2
			l0-0.3l0.1-1.1l1-0.5l0.3-0.2l0.1-0.3l0.2-1.1l1-0.4l0.3-0.1l0.1-0.3l0.4-1l1-0.3l0.3-0.1l0.1-0.3l0.5-1l1.1-0.2l0.3-0.1l0.2-0.3
			L17,9.4l1.1-0.1l0.3,0L18.6,9l0.7-0.9l1.1,0l0.4,0L21,7.9l0.8-0.8l1.1,0.1l0.3,0l0.3-0.2l0.8-0.7l1.1,0.3l0.3,0.1L26,6.5l0.9-0.6
			l1,0.4l0.3,0.1l0.3-0.2L29.5,5.7 M29.5,4.8l-1.3,0.7L26.8,5l-1.2,0.8l-1.5-0.4l-1.1,1l-1.5-0.2l-1,1.1l-1.5,0L18,8.5l-1.5,0.1
			l-0.8,1.3l-1.5,0.3l-0.6,1.4L12.2,12l-0.5,1.4L10.3,14L10,15.4l-1.3,0.7l-0.2,1.5l-1.2,0.9l0,1.5l-1.1,1l0.1,1.5l-1,1.1L5.6,25
			l-0.9,1.2l0.4,1.4L4.4,29l0.6,1.4l-0.6,1.4L5.1,33l-0.5,1.4l0.9,1.2l-0.3,1.5l1,1.1L6,39.7l1.1,1l0,1.5l1.2,0.9l0.2,1.5l1.3,0.7
			l0.3,1.5l1.4,0.6l0.5,1.4l1.4,0.5l0.6,1.4l1.5,0.3l0.8,1.3l1.5,0.1l0.9,1.2l1.5,0l1,1.1l1.5-0.2l1.1,1l1.5-0.3l1.2,0.9l1.4-0.5
			l1.3,0.7l1.4-0.6l1.4,0.6l1.3-0.8l1.4,0.4l1.2-0.9l1.5,0.3l1.1-1l1.5,0.1l1-1.1l1.5,0l0.8-1.2l1.5-0.2l0.7-1.3l1.5-0.4l0.6-1.4
			l1.4-0.5l0.4-1.4l1.3-0.7l0.3-1.5l1.3-0.8l0.1-1.5l1.2-0.9l-0.1-1.5l1.1-1l-0.2-1.5l1-1.2l-0.4-1.4l0.8-1.2L55,32l0.7-1.3L55,29.4
			l0.5-1.4l-0.8-1.3l0.4-1.4l-0.9-1.2l0.2-1.5l-1.1-1.1l0.1-1.5l-1.2-0.9l-0.1-1.5L51,16.8l-0.2-1.5l-1.3-0.7L49,13.2l-1.4-0.5
			L47,11.3l-1.4-0.4l-0.7-1.3l-1.5-0.2l-0.8-1.2l-1.5-0.1l-1-1.2L38.7,7l-1.1-1l-1.5,0.3l-1.2-0.9l-1.4,0.4l-1.3-0.8l-1.4,0.6
			L29.5,4.8L29.5,4.8z"/>
	</g>
	<text transform="matrix(1 0 0 1 22.1919 32.6582)" class="st1 st2">NEW</text>
</g>
</svg>
